<?xml version="1.0" encoding="UTF-8" standalone="no"?>
<!DOCTYPE svg PUBLIC "-//W3C//DTD SVG 1.1//EN" "http://www.w3.org/Graphics/SVG/1.1/DTD/svg11.dtd">
<svg width="100%" height="100%" viewBox="0 0 721 722" version="1.1" xmlns="http://www.w3.org/2000/svg" xmlns:xlink="http://www.w3.org/1999/xlink" xml:space="preserve" xmlns:serif="http://www.serif.com/" style="fill-rule:evenodd;clip-rule:evenodd;stroke-linejoin:round;stroke-miterlimit:2;">
    <g transform="matrix(1,0,0,1,-4110,-3085)">
        <g transform="matrix(5.55556,0,0,5.55556,0,0)">
            <g transform="matrix(1,0,0,1,833.165,670.267)">
                <path d="M0,-21.541C-10.011,-11.53 -14.849,1.698 -14.591,14.845L-12.65,14.845C-12.907,2.195 -8.259,-10.536 1.373,-20.168C11.001,-29.797 23.726,-34.444 36.371,-34.189L36.371,-36.13C23.229,-36.386 10.008,-31.548 0,-21.541" style="fill:rgb(237,28,36);fill-rule:nonzero;"/>
            </g>
            <g transform="matrix(1,0,0,1,840.948,673.478)">
                <path d="M0,-16.966C-7.864,-9.102 -11.639,1.308 -11.381,11.635L-9.425,11.635C-9.697,1.806 -6.116,-8.105 1.373,-15.593C8.859,-23.078 18.764,-26.659 28.588,-26.39L28.588,-28.345C18.265,-28.601 7.861,-24.827 0,-16.966" style="fill:rgb(237,28,36);fill-rule:nonzero;"/>
            </g>
            <g transform="matrix(1,0,0,1,848.732,676.699)">
                <path d="M0,-12.403C-5.72,-6.684 -8.417,0.906 -8.147,8.413L-6.156,8.413C-6.426,1.403 -3.969,-5.688 1.373,-11.03C6.712,-16.368 13.798,-18.826 20.804,-18.558L20.804,-20.549C13.302,-20.816 5.717,-18.12 0,-12.403" style="fill:rgb(237,28,36);fill-rule:nonzero;"/>
            </g>
            <g transform="matrix(1,0,0,1,856.515,679.92)">
                <path d="M0,-7.839C-3.572,-4.267 -5.197,0.507 -4.929,5.193L-2.98,5.193C-3.249,1.005 -1.821,-3.273 1.373,-6.466C4.564,-9.656 8.836,-11.085 13.021,-10.818L13.021,-12.767C8.338,-13.032 3.569,-11.408 0,-7.839" style="fill:rgb(237,28,36);fill-rule:nonzero;"/>
            </g>
            <g transform="matrix(1,0,0,1,827.925,602.027)">
                <path d="M0,36.521C-0.864,37.292 -1.715,38.085 -2.544,38.914C-3.373,39.744 -4.166,40.594 -4.937,41.459C-27.177,32.051 -53.893,36.379 -71.99,54.475C-80.166,62.65 -85.465,72.599 -88.028,83.086L-86.032,83.086C-83.507,73.103 -78.412,63.643 -70.617,55.848C-53.249,38.48 -27.679,34.202 -6.261,43C-8.289,45.429 -10.101,47.977 -11.692,50.624C-29.404,44.212 -50.032,48.084 -64.207,62.26C-70.224,68.276 -74.372,75.46 -76.681,83.086L-74.627,83.086C-72.375,75.968 -68.468,69.265 -62.835,63.632C-49.293,50.092 -29.625,46.327 -12.671,52.329C-14.171,55.016 -15.452,57.791 -16.514,60.633C-30.091,56.154 -45.644,59.265 -56.424,70.044C-60.265,73.886 -63.132,78.336 -65.036,83.086L-62.913,83.086C-61.107,78.847 -58.503,74.87 -55.051,71.418C-44.819,61.186 -30.062,58.224 -17.17,62.458C-18.145,65.342 -18.896,68.285 -19.429,71.26C-29.307,67.774 -40.753,69.942 -48.641,77.829C-50.254,79.442 -51.6,81.218 -52.738,83.086L-50.455,83.086C-49.532,81.717 -48.477,80.412 -47.267,79.202C-39.84,71.775 -29.023,69.792 -19.756,73.2C-20.224,76.4 -20.428,79.63 -20.389,82.858C-25.7,79.846 -32.267,79.951 -37.521,83.086L-32.715,83.086C-30.17,82.408 -27.484,82.415 -24.937,83.086L-18.409,83.086C-18.46,80.04 -18.317,76.992 -17.901,73.969C-17.809,73.305 -17.697,72.642 -17.583,71.979C-17.065,68.976 -16.32,66.006 -15.338,63.098C-15.131,62.486 -14.909,61.879 -14.681,61.273C-13.622,58.447 -12.34,55.688 -10.834,53.021C-10.513,52.451 -10.184,51.886 -9.843,51.326C-8.25,48.713 -6.432,46.2 -4.397,43.809C-3.958,43.293 -3.519,42.778 -3.059,42.274C-2.446,41.602 -1.821,40.937 -1.171,40.287C-0.522,39.638 0.143,39.013 0.815,38.4C1.319,37.94 1.835,37.501 2.351,37.062C4.741,35.027 7.254,33.21 9.868,31.617C10.428,31.275 10.993,30.946 11.562,30.625C14.23,29.119 16.989,27.837 19.814,26.779C20.421,26.551 21.027,26.329 21.639,26.122C24.548,25.141 27.517,24.396 30.52,23.878C31.183,23.764 31.845,23.652 32.51,23.56C35.528,23.145 38.57,23.003 41.611,23.054L41.611,16.479C40.958,13.967 40.955,11.321 41.611,8.81L41.611,3.968C38.493,9.218 38.392,15.771 41.398,21.073C38.171,21.034 34.941,21.238 31.741,21.705C28.334,12.437 30.318,1.62 37.746,-5.808C38.95,-7.012 40.249,-8.062 41.611,-8.982L41.611,-11.267C39.75,-10.132 37.981,-8.789 36.373,-7.181C28.485,0.706 26.316,12.152 29.801,22.032C26.826,22.564 23.883,23.315 20.999,24.29C16.767,11.397 19.73,-3.361 29.962,-13.593C33.409,-17.039 37.38,-19.64 41.611,-21.445L41.611,-23.57C36.868,-21.666 32.425,-18.802 28.589,-14.966C17.809,-4.187 14.697,11.368 19.174,24.946C16.333,26.008 13.558,27.289 10.87,28.788C4.871,11.832 8.637,-7.836 22.179,-21.378C27.806,-27.005 34.501,-30.909 41.611,-33.161L41.611,-35.215C33.993,-32.906 26.817,-28.762 20.806,-22.751C6.63,-8.575 2.757,12.052 9.165,29.767C6.519,31.358 3.971,33.17 1.542,35.198C-7.253,13.778 -2.972,-11.794 14.396,-29.162C22.185,-36.951 31.637,-42.043 41.611,-44.57L41.611,-46.565C31.133,-44.001 21.192,-38.704 13.023,-30.535C-5.074,-12.438 -9.405,14.279 0,36.521" style="fill:rgb(237,28,36);fill-rule:nonzero;"/>
            </g>
        </g>
    </g>
</svg>
