<?xml version="1.0" encoding="UTF-8" standalone="no"?>
<!DOCTYPE svg PUBLIC "-//W3C//DTD SVG 1.1//EN" "http://www.w3.org/Graphics/SVG/1.1/DTD/svg11.dtd">
<svg width="100%" height="100%" viewBox="0 0 3511 630" version="1.1" xmlns="http://www.w3.org/2000/svg" xmlns:xlink="http://www.w3.org/1999/xlink" xml:space="preserve" xmlns:serif="http://www.serif.com/" style="fill-rule:evenodd;clip-rule:evenodd;stroke-linejoin:round;stroke-miterlimit:2;">
    <g transform="matrix(1,0,0,1,-997,-4294)">
        <g transform="matrix(5.55556,0,0,5.55556,0,0)">
            <g transform="matrix(1,0,0,1,202.743,811.258)">
                <path d="M0,36.628L6.748,29.88L15.906,39.037L27.472,27.47L18.315,18.314L27.472,9.156L15.906,-2.411L6.749,6.747L0,-0.001L34.572,-34.573L550.881,-34.573L585.454,-0L578.706,6.748L569.548,-2.409L557.981,9.157L567.139,18.314L557.981,27.472L569.548,39.038L578.705,29.881L585.453,36.629L550.881,71.201L434.472,71.201L434.472,71.2L370.185,71.201L34.573,71.201L0,36.628ZM15.906,20.723L22.653,27.471L15.906,34.219L9.158,27.471L15.906,20.723ZM0,18.314L6.748,11.566L13.496,18.313L6.748,25.061L0,18.314ZM-11.566,25.061L-18.314,18.314L-11.566,11.566L-4.819,18.313L-11.566,25.061ZM15.906,2.408L22.653,9.156L15.905,15.904L9.158,9.156L15.906,2.408ZM569.548,15.905L562.801,9.157L569.548,2.409L576.296,9.157L569.548,15.905ZM585.453,18.314L578.706,25.062L571.958,18.314L578.706,11.566L585.453,18.314ZM597.02,11.566L603.768,18.314L597.02,25.062L590.273,18.315L597.02,11.566ZM569.548,34.219L562.801,27.472L569.548,20.724L576.296,27.471L569.548,34.219ZM33.442,74.889L552.012,74.889L555.7,71.201L590.272,36.628L581.115,27.472L587.863,20.724L597.02,29.881L608.587,18.314L597.02,6.747L587.863,15.905L581.115,9.157L590.273,-0L552.012,-38.261L33.441,-38.261L29.754,-34.573L-4.818,-0.001L4.339,9.156L-2.409,15.904L-11.566,6.747L-23.133,18.314L-11.566,29.88L-2.409,20.723L4.339,27.47L-4.819,36.628L33.442,74.889Z" style="fill:rgb(206,23,30);fill-rule:nonzero;"/>
            </g>
        </g>
    </g>
</svg>
