<?xml version="1.0" encoding="UTF-8" standalone="no"?>
<!DOCTYPE svg PUBLIC "-//W3C//DTD SVG 1.1//EN" "http://www.w3.org/Graphics/SVG/1.1/DTD/svg11.dtd">
<svg width="100%" height="100%" viewBox="0 0 55 1660" version="1.1" xmlns="http://www.w3.org/2000/svg" xmlns:xlink="http://www.w3.org/1999/xlink" xml:space="preserve" xmlns:serif="http://www.serif.com/" style="fill-rule:evenodd;clip-rule:evenodd;stroke-linejoin:round;stroke-miterlimit:2;">
    <g transform="matrix(1,0,0,1,-549,-1341)">
        <g transform="matrix(5.55556,0,0,5.55556,0,0)">
            <g transform="matrix(1,0,0,1,98.9502,259.082)">
                <path d="M0,15.836L0,14.876L9.067,14.876L9.067,0.96L0.713,0.96L0.713,11.532L4.89,11.532L4.89,3.85L5.562,3.85L5.562,12.492L0.041,12.492L0.041,0L9.739,0L9.739,15.836L0,15.836Z" style="fill:rgb(237,28,36);fill-rule:nonzero;"/>
            </g>
            <g transform="matrix(1,0,0,1,108.689,257.359)">
                <path d="M0,-15.836L0,-14.876L-9.067,-14.876L-9.067,-0.96L-0.713,-0.96L-0.713,-11.532L-4.89,-11.532L-4.89,-3.85L-5.562,-3.85L-5.562,-12.492L-0.041,-12.492L-0.041,0L-9.739,0L-9.739,-15.836L0,-15.836Z" style="fill:rgb(237,28,36);fill-rule:nonzero;"/>
            </g>
            <g transform="matrix(1,0,0,1,98.9502,294.542)">
                <path d="M0,15.836L0,14.876L9.067,14.876L9.067,0.96L0.713,0.96L0.713,11.532L4.89,11.532L4.89,3.85L5.562,3.85L5.562,12.492L0.041,12.492L0.041,0L9.739,0L9.739,15.836L0,15.836Z" style="fill:rgb(237,28,36);fill-rule:nonzero;"/>
            </g>
            <g transform="matrix(1,0,0,1,108.689,292.82)">
                <path d="M0,-15.836L0,-14.876L-9.067,-14.876L-9.067,-0.96L-0.713,-0.96L-0.713,-11.532L-4.89,-11.532L-4.89,-3.85L-5.562,-3.85L-5.562,-12.492L-0.041,-12.492L-0.041,0L-9.739,0L-9.739,-15.836L0,-15.836Z" style="fill:rgb(237,28,36);fill-rule:nonzero;"/>
            </g>
            <g transform="matrix(1,0,0,1,98.9502,330.003)">
                <path d="M0,15.836L0,14.876L9.067,14.876L9.067,0.96L0.713,0.96L0.713,11.532L4.89,11.532L4.89,3.85L5.562,3.85L5.562,12.492L0.041,12.492L0.041,0L9.739,0L9.739,15.836L0,15.836Z" style="fill:rgb(237,28,36);fill-rule:nonzero;"/>
            </g>
            <g transform="matrix(1,0,0,1,108.689,328.28)">
                <path d="M0,-15.836L0,-14.876L-9.067,-14.876L-9.067,-0.96L-0.713,-0.96L-0.713,-11.532L-4.89,-11.532L-4.89,-3.85L-5.562,-3.85L-5.562,-12.492L-0.041,-12.492L-0.041,0L-9.739,0L-9.739,-15.836L0,-15.836Z" style="fill:rgb(237,28,36);fill-rule:nonzero;"/>
            </g>
            <g transform="matrix(1,0,0,1,98.9502,365.463)">
                <path d="M0,15.836L0,14.876L9.067,14.876L9.067,0.96L0.713,0.96L0.713,11.532L4.89,11.532L4.89,3.85L5.562,3.85L5.562,12.492L0.041,12.492L0.041,0L9.739,0L9.739,15.836L0,15.836Z" style="fill:rgb(237,28,36);fill-rule:nonzero;"/>
            </g>
            <g transform="matrix(1,0,0,1,108.689,363.741)">
                <path d="M0,-15.836L0,-14.876L-9.067,-14.876L-9.067,-0.96L-0.713,-0.96L-0.713,-11.532L-4.89,-11.532L-4.89,-3.85L-5.562,-3.85L-5.562,-12.492L-0.041,-12.492L-0.041,0L-9.739,0L-9.739,-15.836L0,-15.836Z" style="fill:rgb(237,28,36);fill-rule:nonzero;"/>
            </g>
            <g transform="matrix(1,0,0,1,98.9502,400.924)">
                <path d="M0,15.836L0,14.876L9.067,14.876L9.067,0.96L0.713,0.96L0.713,11.532L4.89,11.532L4.89,3.85L5.562,3.85L5.562,12.492L0.041,12.492L0.041,0L9.739,0L9.739,15.836L0,15.836Z" style="fill:rgb(237,28,36);fill-rule:nonzero;"/>
            </g>
            <g transform="matrix(1,0,0,1,108.689,399.201)">
                <path d="M0,-15.836L0,-14.876L-9.067,-14.876L-9.067,-0.96L-0.713,-0.96L-0.713,-11.532L-4.89,-11.532L-4.89,-3.85L-5.562,-3.85L-5.562,-12.492L-0.041,-12.492L-0.041,0L-9.739,0L-9.739,-15.836L0,-15.836Z" style="fill:rgb(237,28,36);fill-rule:nonzero;"/>
            </g>
            <g transform="matrix(1,0,0,1,98.9502,436.384)">
                <path d="M0,15.836L0,14.876L9.067,14.876L9.067,0.96L0.713,0.96L0.713,11.532L4.89,11.532L4.89,3.85L5.562,3.85L5.562,12.492L0.041,12.492L0.041,0L9.739,0L9.739,15.836L0,15.836Z" style="fill:rgb(237,28,36);fill-rule:nonzero;"/>
            </g>
            <g transform="matrix(1,0,0,1,108.689,434.662)">
                <path d="M0,-15.836L0,-14.876L-9.067,-14.876L-9.067,-0.96L-0.713,-0.96L-0.713,-11.532L-4.89,-11.532L-4.89,-3.85L-5.562,-3.85L-5.562,-12.492L-0.041,-12.492L-0.041,0L-9.739,0L-9.739,-15.836L0,-15.836Z" style="fill:rgb(237,28,36);fill-rule:nonzero;"/>
            </g>
            <g transform="matrix(1,0,0,1,98.9502,470.947)">
                <path d="M0,15.836L0,14.876L9.067,14.876L9.067,0.96L0.713,0.96L0.713,11.532L4.89,11.532L4.89,3.85L5.562,3.85L5.562,12.492L0.041,12.492L0.041,0L9.739,0L9.739,15.836L0,15.836Z" style="fill:rgb(237,28,36);fill-rule:nonzero;"/>
            </g>
            <g transform="matrix(1,0,0,1,108.689,469.225)">
                <path d="M0,-15.836L0,-14.876L-9.067,-14.876L-9.067,-0.96L-0.713,-0.96L-0.713,-11.532L-4.89,-11.532L-4.89,-3.85L-5.562,-3.85L-5.562,-12.492L-0.041,-12.492L-0.041,0L-9.739,0L-9.739,-15.836L0,-15.836Z" style="fill:rgb(237,28,36);fill-rule:nonzero;"/>
            </g>
            <g transform="matrix(1,0,0,1,98.9502,506.408)">
                <path d="M0,15.836L0,14.876L9.067,14.876L9.067,0.96L0.713,0.96L0.713,11.532L4.89,11.532L4.89,3.85L5.562,3.85L5.562,12.492L0.041,12.492L0.041,0L9.739,0L9.739,15.836L0,15.836Z" style="fill:rgb(237,28,36);fill-rule:nonzero;"/>
            </g>
            <g transform="matrix(1,0,0,1,108.689,504.685)">
                <path d="M0,-15.836L0,-14.876L-9.067,-14.876L-9.067,-0.96L-0.713,-0.96L-0.713,-11.532L-4.89,-11.532L-4.89,-3.85L-5.562,-3.85L-5.562,-12.492L-0.041,-12.492L-0.041,0L-9.739,0L-9.739,-15.836L0,-15.836Z" style="fill:rgb(237,28,36);fill-rule:nonzero;"/>
            </g>
            <g transform="matrix(1,0,0,1,108.689,540.146)">
                <path d="M0,-15.836L0,-14.876L-9.067,-14.876L-9.067,-0.96L-0.713,-0.96L-0.713,-11.532L-4.89,-11.532L-4.89,-3.85L-5.562,-3.85L-5.562,-12.492L-0.041,-12.492L-0.041,0L-9.739,0L-9.739,-15.836L0,-15.836Z" style="fill:rgb(237,28,36);fill-rule:nonzero;"/>
            </g>
        </g>
    </g>
</svg>
