<?xml version="1.0" encoding="UTF-8" standalone="no"?>
<!DOCTYPE svg PUBLIC "-//W3C//DTD SVG 1.1//EN" "http://www.w3.org/Graphics/SVG/1.1/DTD/svg11.dtd">
<svg width="100%" height="100%" viewBox="0 0 1760 577" version="1.1" xmlns="http://www.w3.org/2000/svg" xmlns:xlink="http://www.w3.org/1999/xlink" xml:space="preserve" xmlns:serif="http://www.serif.com/" style="fill-rule:evenodd;clip-rule:evenodd;stroke-linejoin:round;stroke-miterlimit:2;">
    <g transform="matrix(1,0,0,1,-1807,-3230)">
        <g transform="matrix(5.55556,0,0,5.55556,0,0)">
            <g transform="matrix(1,0,0,1,469.243,660.466)">
                <path d="M0,24.309L0,14.103L-10.232,14.103L-10.232,24.309L-15.85,24.309L-15.85,0L-10.232,0L-10.232,9.685L0,9.685L0,0L5.658,0L5.658,24.309L0,24.309Z" style="fill:rgb(35,31,32);fill-rule:nonzero;"/>
            </g>
            <g transform="matrix(1,0,0,1,348.194,685.097)">
                <path d="M0,-24.631L0,-9.412C0,-7.73 0.247,-6.275 0.736,-5.091C1.222,-3.917 1.926,-2.942 2.828,-2.191C3.739,-1.434 4.838,-0.875 6.094,-0.531C7.369,-0.179 8.809,0 10.372,0C11.936,0 13.362,-0.179 14.611,-0.53C15.84,-0.875 16.888,-1.431 17.728,-2.183C18.569,-2.933 19.228,-3.91 19.688,-5.085C20.151,-6.266 20.385,-7.722 20.385,-9.412L20.385,-24.631L15.129,-24.631L15.129,-9.574C15.129,-8.041 14.748,-6.802 13.997,-5.893C13.23,-4.967 12.011,-4.498 10.372,-4.498C8.763,-4.498 7.552,-4.966 6.773,-5.89C6.007,-6.797 5.618,-8.036 5.618,-9.574L5.618,-24.631L0,-24.631Z" style="fill:rgb(35,31,32);fill-rule:nonzero;"/>
            </g>
            <g transform="matrix(1,0,0,1,331.993,660.466)">
                <path d="M0,24.312L0,4.539L-6.605,4.539L-6.605,0L12.261,0L12.261,2.177C12.261,3.48 11.202,4.539 9.899,4.539L5.617,4.539L5.617,24.312L0,24.312Z" style="fill:rgb(35,31,32);fill-rule:nonzero;"/>
            </g>
            <g transform="matrix(1,0,0,1,0,386.936)">
                <rect x="422.271" y="273.527" width="5.618" height="24.31" style="fill:rgb(35,31,32);"/>
            </g>
            <g transform="matrix(1,0,0,1,403.562,671.797)">
                <path d="M0,1.642L0.191,1.883L7.366,11.131C8.279,12.307 9.658,12.983 11.148,12.983L15.621,12.983L5.341,-0.094L5.189,-0.286L5.34,-0.479L13.793,-11.341L7.947,-11.341L0.195,-0.862L0,-0.61L-0.002,-1.049L-0.002,-11.341L-5.619,-11.341L-5.619,12.969L-0.002,12.969L-0.002,2.075L0,1.642Z" style="fill:rgb(35,31,32);fill-rule:nonzero;"/>
            </g>
            <g transform="matrix(1,0,0,1,379.385,673.645)">
                <path d="M0,-2.054L3.276,-2.054C4.454,-2.054 5.353,-2.377 5.946,-3.014C6.531,-3.645 6.828,-4.464 6.828,-5.449C6.828,-6.456 6.539,-7.287 5.968,-7.918C5.389,-8.558 4.483,-8.882 3.276,-8.882L0,-8.882L0,-2.054ZM11.234,11.125C9.57,11.125 8.001,10.242 7.141,8.819L2.771,1.603L0,1.603L0,11.125L-5.614,11.125L-5.614,-13.179L4.396,-13.179C6.967,-13.179 8.981,-12.508 10.382,-11.184C11.778,-9.863 12.485,-8.054 12.485,-5.807C12.485,-4.666 12.181,-3.511 11.582,-2.372C10.991,-1.253 9.942,-0.337 8.465,0.35L8.14,0.501L14.96,11.125L11.234,11.125Z" style="fill:rgb(35,31,32);fill-rule:nonzero;"/>
            </g>
            <g transform="matrix(1,0,0,1,432.5,661.459)">
                <path d="M0,22.283L0,17.623C1.788,18.445 4.091,19.268 6.475,19.268C9.216,19.268 10.606,18.327 10.606,16.525C10.606,14.411 8.739,14.177 5.005,12.571C2.463,11.436 0.04,9.673 0.04,5.601C0.04,0.862 3.654,-1.37 8.66,-1.37C11.321,-1.37 13.586,-0.744 14.857,-0.274L14.857,4.268C13.586,3.682 11.321,2.976 9.057,2.976C6.594,2.976 5.442,3.877 5.442,5.443C5.442,7.088 6.833,7.598 9.335,8.537C12.553,10.143 16.287,10.848 16.287,16.33C16.287,21.069 12.513,23.653 7.468,23.653C4.37,23.653 1.907,23.105 0,22.283" style="fill:rgb(35,31,32);fill-rule:nonzero;"/>
            </g>
            <g transform="matrix(1,0,0,1,606.021,660.463)">
                <path d="M0,24.31L0,0L15.223,0L15.223,2.205C15.223,3.492 14.176,4.539 12.889,4.539L5.618,4.539L5.618,9.767L13.782,9.767L13.782,13.825L5.618,13.825L5.618,19.773L15.223,19.773L15.223,24.31L0,24.31Z" style="fill:rgb(35,31,32);fill-rule:nonzero;"/>
            </g>
            <g transform="matrix(1,0,0,1,550.482,660.461)">
                <path d="M0,24.309L0,0L2.73,0C4.322,0 5.617,1.295 5.617,2.887L5.617,19.931L14.583,19.931L14.583,24.309L0,24.309Z" style="fill:rgb(35,31,32);fill-rule:nonzero;"/>
            </g>
            <g transform="matrix(0,-1,-1,0,530.665,675.43)">
                <rect x="-9.338" y="9.338" width="24.294" height="5.618" style="fill:rgb(35,31,32);"/>
            </g>
            <g transform="matrix(1,0,0,1,532.092,673.643)">
                <path d="M0,-2.054L3.276,-2.054C4.454,-2.054 5.353,-2.377 5.946,-3.014C6.531,-3.645 6.829,-4.464 6.829,-5.449C6.829,-6.456 6.539,-7.287 5.968,-7.918C5.389,-8.558 4.483,-8.882 3.276,-8.882L0,-8.882L0,-2.054ZM11.234,11.125C9.57,11.125 8.002,10.242 7.141,8.819L2.771,1.603L0,1.603L0,11.125L-5.614,11.125L-5.614,-13.179L4.396,-13.179C6.967,-13.179 8.981,-12.508 10.382,-11.184C11.778,-9.863 12.485,-8.054 12.485,-5.808C12.485,-4.666 12.181,-3.511 11.582,-2.372C10.991,-1.253 9.942,-0.337 8.465,0.35L8.14,0.501L14.96,11.125L11.234,11.125Z" style="fill:rgb(35,31,32);fill-rule:nonzero;"/>
            </g>
            <g transform="matrix(1,0,0,1,496.401,669.317)">
                <path d="M0,6.598L2.206,0.454C2.696,-0.929 3.187,-2.387 3.513,-3.462L3.595,-3.462C3.881,-2.349 4.371,-0.966 4.862,0.454L6.986,6.598L0,6.598ZM6.941,-8.856L0.49,-8.856L-8.678,15.454L-4.631,15.454C-3.603,15.454 -2.697,14.799 -2.374,13.824L-1.433,10.972L8.426,10.972L9.869,15.454L15.954,15.454L6.941,-8.856Z" style="fill:rgb(35,31,32);fill-rule:nonzero;"/>
            </g>
            <g transform="matrix(1,0,0,1,625.755,661.461)">
                <path d="M0,22.282L0,17.622C1.788,18.444 4.091,19.267 6.475,19.267C9.216,19.267 10.606,18.327 10.606,16.525C10.606,14.41 8.739,14.176 5.005,12.57C2.463,11.435 0.04,9.672 0.04,5.6C0.04,0.861 3.654,-1.371 8.66,-1.371C11.321,-1.371 13.586,-0.745 14.857,-0.274L14.857,4.267C13.586,3.681 11.321,2.976 9.057,2.976C6.594,2.976 5.442,3.877 5.442,5.442C5.442,7.087 6.833,7.597 9.335,8.536C12.553,10.142 16.287,10.847 16.287,16.329C16.287,21.068 12.513,23.653 7.468,23.653C4.369,23.653 1.907,23.104 0,22.282" style="fill:rgb(35,31,32);fill-rule:nonzero;"/>
            </g>
            <g transform="matrix(1,0,0,1,579.441,684.773)">
                <path d="M0,-24.308L3.481,-24.308C5.134,-24.308 6.671,-23.455 7.544,-22.051L14.325,-11.16C15.091,-9.95 15.979,-8.35 16.503,-7.219L16.625,-7.219C16.544,-8.311 16.503,-9.833 16.503,-10.926L16.503,-24.308L21.426,-24.308L21.426,0L15.267,0L7.021,-13.15C6.254,-14.359 5.447,-15.803 4.882,-16.895L4.801,-16.895C4.842,-15.842 4.922,-14.593 4.922,-13.423L4.922,0L0,0L0,-24.308Z" style="fill:rgb(35,31,32);fill-rule:nonzero;"/>
            </g>
            <g transform="matrix(0,-1,-1,0,583.635,675.43)">
                <rect x="-9.338" y="9.338" width="24.294" height="5.618" style="fill:rgb(35,31,32);"/>
            </g>
            <g transform="matrix(1,0,0,1,475.522,611.912)">
                <path d="M0,1.354C2.599,-8.414 -0.367,-18.651 -7.46,-24.075C-17.122,-17.96 -22.694,-6.457 -20.681,5.525C-20.017,9.486 -18.581,13.126 -16.559,16.317C-9.005,14.213 -2.362,10.23 0,1.354M13.042,29.545C28.989,26.868 39.742,11.769 37.061,-4.174C34.833,-17.442 24.014,-27.114 11.257,-28.449C8.681,-28.719 6.021,-28.646 3.339,-28.197C0.158,-27.664 -2.807,-26.63 -5.509,-25.197C8.546,-20.43 16.104,-13.184 16.627,-5.759C16.885,-1.174 14.754,2.141 11.954,4.844L31.828,3.455C32.39,3.417 32.567,4.071 31.886,4.267L-15.517,17.859C-10.693,24.505 -3.198,28.926 5.123,29.796C7.699,30.067 10.359,29.997 13.042,29.545M11.44,-30.194C27.052,-28.569 39.227,-15.377 39.233,0.663C39.239,17.805 25.347,31.706 8.205,31.712C-8.937,31.719 -22.839,17.827 -22.845,0.685C-22.851,-16.457 -8.959,-30.359 8.183,-30.365C9.282,-30.365 10.368,-30.305 11.44,-30.194" style="fill:white;fill-rule:nonzero;"/>
            </g>
            <g transform="matrix(1,0,0,1,454.841,607.734)">
                <path d="M0,9.703C0.663,13.664 2.1,17.303 4.122,20.494C11.676,18.39 18.319,14.408 20.681,5.532C23.28,-4.236 20.314,-14.473 13.22,-19.898C3.559,-13.782 -2.013,-2.279 0,9.703M57.742,0.004C60.422,15.947 49.669,31.045 33.722,33.722C31.039,34.175 28.38,34.245 25.804,33.974C17.483,33.104 9.988,28.682 5.163,22.036L52.566,8.445C53.248,8.249 53.071,7.595 52.509,7.633L32.634,9.022C35.435,6.319 37.566,3.004 37.308,-1.581C36.785,-9.006 29.227,-16.252 15.172,-21.02C17.873,-22.452 20.839,-23.486 24.019,-24.019C26.702,-24.468 29.362,-24.542 31.938,-24.271C44.694,-22.936 55.514,-13.264 57.742,0.004" style="fill:rgb(206,23,30);fill-rule:nonzero;"/>
            </g>
        </g>
    </g>
</svg>
