<?xml version="1.0" encoding="UTF-8" standalone="no"?>
<!DOCTYPE svg PUBLIC "-//W3C//DTD SVG 1.1//EN" "http://www.w3.org/Graphics/SVG/1.1/DTD/svg11.dtd">
<svg width="100%" height="100%" viewBox="0 0 474 448" version="1.1" xmlns="http://www.w3.org/2000/svg" xmlns:xlink="http://www.w3.org/1999/xlink" xml:space="preserve" xmlns:serif="http://www.serif.com/" style="fill-rule:evenodd;clip-rule:evenodd;stroke-linejoin:round;stroke-miterlimit:2;">
    <g transform="matrix(1,0,0,1,-520,-511)">
        <g>
            <g>
                <g>
                    <path d="M626.01,762.06C626.01,762.06 683.72,745.46 744.74,721.72C748.67,720.19 752.4,718.74 755.95,717.36C765.96,713.47 774.53,710.15 781.85,707.33C798.18,701.03 808.27,697.18 814.11,694.97C805.99,691.51 798.7,686.08 793.21,679.16C787.62,672.1 783.84,663.5 783.08,654.52C781.98,641.52 788.28,628.54 799.04,621.21C807.82,615.22 819.77,614.78 829.72,617.91C836.18,619.94 841.74,625.34 844.26,631.64C848.42,642.01 842.5,652.76 833.33,657.82C835.38,653.95 834.3,648.87 831.31,645.66C828.32,642.46 823.76,641.01 819.38,641.14C816.4,641.23 813.33,642.06 811.16,644.1C808.29,646.8 807.54,651.12 807.93,655.04C809.45,670.07 824.49,678.78 838.58,674.72C848.66,671.82 856.32,662.84 859.26,652.77C862.48,641.75 861.53,625.6 854.13,616.45C843.39,603.18 826.51,598.95 810.08,600.87C792.4,602.94 777.6,614.47 769.78,630.24C762.33,645.25 762.44,662.8 767.29,678.59C770.06,687.61 774.51,696.12 779.74,704.18C771.14,707.41 762.56,710.71 754.01,714.07C748.44,704.26 744.19,693.69 741.5,682.73C735.11,656.65 736.79,625.96 753.8,604.08C774.06,578.02 815.31,565.41 846.06,578.71C876.67,591.95 892.96,627.1 883.47,659.01C879.14,673.58 869.71,686.38 858.04,695.77C840.38,709.97 820.34,720.98 799.61,730.34C791.18,734.15 782.65,737.68 774.1,741.05C769.15,743 764.2,744.9 759.27,746.76C738.9,754.44 718.12,760.8 697.6,768.01C706.18,773.47 724.44,785.86 743.23,803.45C736.09,807.32 728.95,811.19 721.81,815.06C678.24,777.02 626.01,762.06 626.01,762.06Z" style="fill-rule:nonzero;"/>
                    <path d="M903.45,896.39C899.36,918.62 885,939.23 862.19,944.83C861.72,944.95 861.24,945.06 860.76,945.16C855.34,946.35 849.77,946.87 844.23,946.73C830.7,946.38 814.11,940.7 806.57,928.93C799.87,918.47 795.09,907.08 794.85,894.83L675.8,894.83C653.22,896.33 627.94,892.6 608.56,880.5C598.27,874.07 589.89,863.93 584.94,852.9C575.4,831.64 580.65,802.08 598.89,786.98C620.41,769.16 661.84,770.54 675.03,797.92C679.78,807.79 681.39,819.51 677.66,829.81C671.66,846.35 651,854.88 635.34,845.97C629.86,842.85 625.53,837.51 624.33,831.33C623.12,825.15 625.36,818.24 630.4,814.46C633.25,812.32 636.74,811.26 640.15,810.24C636.43,813.22 635.47,819.19 638.24,823.06C641.02,826.93 647.2,827.87 650.86,824.82C653.26,822.82 654.37,819.63 654.75,816.53C655.24,812.59 654.7,808.4 652.58,805.04C647.82,797.52 637.11,798.2 629.69,800.34C615.53,804.43 606.38,819.56 607.98,834.05C608.91,842.47 612.54,850.73 618.48,856.82C633.2,871.91 656.62,872.61 676.32,872.61L766.29,872.61C760.23,859.53 752.47,847.8 743.73,837.32C745.06,836.66 746.41,836.01 747.75,835.37C753.64,832.57 759.5,829.69 765.34,826.78C776.61,840.39 786.63,855.81 793.09,872.62L800.55,872.62C803.24,868.33 806.84,864.62 811.23,861.79C819.34,856.56 830.59,854.99 840.06,856.4C854.43,858.54 866.25,867.88 867.58,882.84C868.3,890.91 865.69,899.58 859.44,904.74C850.71,911.96 837.65,909.42 833.02,898.99C832.42,897.64 831.96,896.24 831.6,894.81C832.87,895.38 834.19,895.86 835.53,896.23C836.3,896.44 837.08,896.61 837.87,896.64C840.91,896.77 843.84,894.67 844.92,891.83C845.99,888.99 845.25,885.6 843.27,883.31C837.3,876.41 826.49,880.03 821.94,886.72C816.3,895.01 819.99,905.42 826.39,912.08C833.33,919.3 843.9,921.79 853.62,919.55C869.64,915.85 878.35,900.72 879.93,885.31C883.56,850.07 854.81,822.24 831.64,799.94C817.5,786.33 803.08,773.01 789.45,758.88C785.17,754.45 781.28,749.74 777.39,745.01C782.76,742.65 793.74,737.8 802.52,733.7C825.54,760.39 852.2,783.57 875.81,809.71C880.23,814.61 884.34,819.41 887.62,825.08C891.11,831.13 894.09,837.44 896.73,843.91C903.46,860.44 906.71,878.67 903.45,896.39Z" style="fill-rule:nonzero;"/>
                </g>
            </g>
            <g>
                <g>
                    <path d="M993.05,576.51C992.66,579.29 991.83,582.11 989.96,584.19C986.25,588.3 979.88,588.24 974.37,587.74C965.42,586.93 958.51,588.87 951.87,595.05C945.61,600.88 940.95,608.39 938.01,616.4C932.71,630.8 933.16,645.51 931.98,660.53C930.85,674.93 926.71,689.62 921.57,703.06C916.36,716.69 907.98,728.21 899.17,739.82C886.91,755.96 871.53,768.88 854.69,779.93C848.69,774.17 842.79,768.3 837,762.33C860.97,747.51 882.24,729.26 896.44,703.87C911.37,677.17 916.63,644.82 907.56,615.28C903.87,603.27 894.25,584.09 878.49,586.81C874.51,587.5 870.53,588.94 866.55,588.27C860.84,587.32 856.52,581.95 855.64,576.22C854.76,570.5 856.82,564.64 860.06,559.84C859.08,564.59 860.26,570.04 864.01,573.12C867.32,575.85 872.83,574.17 875.28,571.04C876.48,569.51 877.15,567.63 878.16,565.97C880.12,562.77 883.34,560.98 887.03,560.47C893.63,559.56 900.35,561.89 905.92,565.57C905.22,564.07 904.59,562.54 904.07,560.97C902.36,555.73 901.91,549.95 903.67,544.73C906.43,536.57 913.98,531.08 918.67,523.85C921.01,520.25 922.62,516.19 923.42,511.98C924.22,516.19 925.84,520.25 928.17,523.85C932.86,531.08 940.42,536.56 943.17,544.73C944.93,549.95 944.48,555.73 942.77,560.97C941.96,563.45 940.88,565.82 939.65,568.11C942.3,565.16 945.7,562.82 949.38,561.37C955.63,558.91 963.32,559.9 968.23,564.48C971.81,567.82 974.49,573.14 979.38,573.42C982.87,573.62 986.01,570.79 987.1,567.47C988.19,564.15 987.62,560.5 986.56,557.17C992.19,561.55 994.04,569.46 993.05,576.51Z" style="fill-rule:nonzero;"/>
                    <g>
                        <path d="M682.23,898.62C681.63,904.34 682.25,910.08 684.57,915.54C688.32,924.4 696.5,931.27 705.88,933.43C711.54,934.74 717.94,934.25 722.51,930.66C727.08,927.07 728.95,919.86 725.5,915.19C721.83,910.21 714.34,910.08 708.46,912C711.3,904.27 719.87,899.34 728.09,899.96C736.31,900.58 743.73,906.24 747.31,913.66C750.89,921.08 750.85,929.97 748.04,937.71C740.53,958.46 714.31,962.84 695.47,956.02C672.54,947.72 658.79,922.06 658.66,898.01C666.5,898.43 674.37,898.65 682.23,898.62Z" style="fill-rule:nonzero;"/>
                        <path d="M822.36,798.49C800.32,809.78 776.97,817.93 754.82,828.54C736.76,837.18 717.34,845.15 702.86,859.78C700.02,862.65 697.21,865.93 694.6,869.49C685.04,869.3 675.49,869.24 665.93,868.91C672.37,856.68 682.45,846.15 693.6,837.76C715.64,821.18 740.15,809.92 765.03,798.45C778.43,792.27 792.23,786.11 805.79,779.41C812,785.41 818.22,791.4 824.43,797.4C823.74,797.76 823.05,798.13 822.36,798.49Z" style="fill-rule:nonzero;"/>
                    </g>
                </g>
            </g>
            <path d="M908.06,917.53C911.01,917.33 913.64,915.48 915.49,913.17C919.98,907.58 920.43,899.83 920.4,892.66C920.4,892.15 920.4,891.63 920.57,891.14C920.77,890.57 921.19,890.11 921.56,889.64C922.3,888.72 922.91,887.72 923.42,886.66C923.93,887.71 924.54,888.71 925.28,889.64C925.66,890.11 926.08,890.57 926.27,891.14C926.44,891.62 926.44,892.14 926.44,892.66C926.41,899.84 926.86,907.58 931.35,913.17C933.2,915.47 935.83,917.33 938.78,917.53C941.73,917.73 944.89,915.87 945.52,912.98C946.89,915.84 947.54,919.14 946.8,922.23C946.06,925.32 943.75,928.11 940.69,928.93C937.62,929.75 933.96,928.22 932.81,925.26C932.59,930.27 931.92,935.32 930.12,940C928.67,943.78 926.43,947.32 923.43,950.01C920.43,947.31 918.19,943.78 916.74,940C914.94,935.32 914.27,930.27 914.05,925.26C912.9,928.22 909.23,929.75 906.17,928.93C903.1,928.11 900.8,925.31 900.06,922.23C899.32,919.14 899.97,915.84 901.34,912.98C901.95,915.86 905.11,917.72 908.06,917.53Z" style="fill-rule:nonzero;"/>
            <path d="M620.89,907.71C621.09,910.66 622.94,913.29 625.25,915.14C630.84,919.63 638.59,920.08 645.76,920.05C646.27,920.05 646.79,920.05 647.28,920.22C647.85,920.42 648.31,920.84 648.78,921.21C649.7,921.95 650.7,922.56 651.76,923.07C650.71,923.58 649.71,924.19 648.78,924.93C648.31,925.31 647.85,925.73 647.28,925.92C646.8,926.09 646.28,926.09 645.76,926.09C638.58,926.06 630.84,926.51 625.25,931C622.95,932.85 621.09,935.48 620.89,938.43C620.69,941.38 622.55,944.54 625.44,945.17C622.58,946.54 619.28,947.19 616.19,946.45C613.1,945.71 610.31,943.4 609.49,940.34C608.67,937.27 610.2,933.61 613.16,932.46C608.15,932.24 603.1,931.57 598.42,929.77C594.64,928.32 591.1,926.08 588.41,923.08C591.11,920.08 594.64,917.84 598.42,916.39C603.1,914.59 608.15,913.92 613.16,913.7C610.2,912.55 608.67,908.88 609.49,905.82C610.31,902.75 613.11,900.45 616.19,899.71C619.28,898.97 622.58,899.62 625.44,900.99C622.56,901.6 620.69,904.76 620.89,907.71Z" style="fill-rule:nonzero;"/>
            <path d="M970.14,798.12C957.01,801.03 945.12,794.11 938.66,782.89C936.02,778.31 934.13,773.81 932.96,768.63C930.45,757.53 929.48,746.36 928.38,735.06C928.34,734.69 928.3,734.3 928.06,734.02C927.66,733.57 926.9,733.64 926.42,733.99C925.46,734.69 925.34,736.06 925.32,737.25C924.84,761.87 928.37,785.83 932.71,810C933.04,811.86 933.41,813.78 934.53,815.31C936.16,817.54 940.42,818.31 941.93,815.48C942.54,814.34 942.38,812.94 942.79,811.71C943.51,809.58 945.82,808.36 948.04,808.04C950.26,807.72 952.54,808.05 954.78,807.92C949.98,810.55 949.25,815.07 949.17,820.02C949.13,822.61 949.02,825.27 947.98,827.63C947.61,828.48 947.11,829.29 946.41,829.89C945.46,830.72 944.2,831.12 942.95,831.27C939.64,831.67 936.17,830.36 933.96,827.86C931.75,825.36 930.87,821.76 931.67,818.53C928.54,818.63 925.76,821.54 925.81,824.67C925.86,827.74 928.14,830.23 930.05,832.63C933.56,837.04 933.86,843.68 931.62,848.82C930.37,851.68 928.34,854.12 926.32,856.5C925.42,857.56 924.47,858.64 923.42,859.55C922.37,858.64 921.42,857.56 920.52,856.5C918.5,854.12 916.47,851.68 915.22,848.82C912.98,843.69 913.27,837.05 916.79,832.63C918.7,830.23 920.98,827.74 921.03,824.67C921.08,821.54 918.31,818.63 915.17,818.53C915.97,821.76 915.09,825.37 912.88,827.86C910.67,830.35 907.2,831.67 903.89,831.27C902.64,831.12 901.38,830.71 900.43,829.89C899.73,829.28 899.23,828.47 898.86,827.63C897.82,825.26 897.71,822.6 897.67,820.02C897.59,815.08 896.86,810.56 892.06,807.92C894.31,808.05 896.58,807.71 898.8,808.04C901.02,808.37 903.34,809.58 904.05,811.71C904.46,812.94 904.31,814.34 904.91,815.48C906.42,818.31 910.68,817.54 912.31,815.31C913.43,813.79 913.79,811.86 914.13,810C918.46,785.83 922,761.87 921.52,737.25C921.5,736.06 921.38,734.69 920.42,733.99C919.93,733.64 919.17,733.56 918.78,734.02C918.54,734.3 918.49,734.69 918.46,735.06C917.36,746.35 916.39,757.53 913.88,768.63C912.71,773.81 910.82,778.31 908.18,782.89C901.72,794.11 889.83,801.03 876.7,798.12C868.34,796.27 861.79,789.06 859.28,780.87C861.07,781.87 863.24,782.17 865.23,781.69C866.63,781.36 867.91,780.67 869.28,780.25C872.5,779.26 876.09,779.84 879.06,781.42C882.03,783 884.43,785.53 886.26,788.36C885.04,786.44 884.08,784.27 884.05,782C884.01,779.73 885.05,777.34 887.04,776.24C886.98,778.5 888.64,780.59 890.74,781.43C892.84,782.27 895.26,782 897.35,781.11C900.38,779.83 902.79,777.34 904.5,774.53C912.79,760.92 913.98,743.75 914.17,728.24C914.17,728.24 919.48,723.9 923.41,711.38C927.34,723.89 932.65,728.24 932.65,728.24C932.84,743.75 934.03,760.92 942.32,774.53C944.03,777.34 946.44,779.83 949.47,781.11C951.55,781.99 953.98,782.26 956.08,781.43C958.18,780.59 959.84,778.5 959.78,776.24C961.77,777.34 962.81,779.73 962.77,782C962.73,784.27 961.77,786.44 960.56,788.36C962.39,785.53 964.79,783 967.76,781.42C970.73,779.84 974.32,779.26 977.54,780.25C978.91,780.67 980.2,781.36 981.59,781.69C983.58,782.17 985.75,781.87 987.54,780.87C985.05,789.06 978.5,796.27 970.14,798.12Z" style="fill-rule:nonzero;"/>
            <path d="M584.64,874.6C583.36,873.81 581.86,873.43 580.62,872.58C579.38,871.73 578.42,870.14 578.99,868.76C579.38,867.83 580.32,867.28 581.21,866.79C583.75,865.4 586.39,863.99 589.17,863.33C588.79,862.79 588.43,862.24 588.06,861.69C569.86,860.37 562.76,867.27 562.76,867.27C562.76,867.27 567.02,857.87 586.62,859.46L586.62,859.47C586.34,859.01 586.06,858.55 585.78,858.09C559.9,856.88 547.29,871.35 547.29,871.35C547.29,871.35 556.42,853.4 584.49,855.81C584.35,855.56 584.22,855.3 584.08,855.05C563.68,851.2 552.83,860.14 552.83,860.14C552.83,860.14 558.51,849.41 582.63,852.08C582.34,851.43 582.07,850.76 581.8,850.1C573.43,848.88 565.56,851.52 565.56,851.52C565.56,851.52 569.83,847.41 581,847.92C580.63,846.82 580.29,845.71 580.01,844.58C578.99,844.16 577.92,843.87 576.82,843.72C578.77,838.78 576.26,833.05 570.88,832.53C568.62,832.31 566.15,832.2 563.99,833.01C561.19,834.06 559.74,836.63 560.31,839.57C560.6,841.07 561.28,842.45 561.96,843.82C558.52,841.36 553.44,838.91 549.09,839C544.28,839.1 540.07,842.21 535.09,841.22C530.51,840.31 527.23,836.39 524.36,832.71C523.08,838.08 523.2,843.5 523.96,848.93C524.66,853.93 526.66,858.8 531.14,861.52C533.82,863.14 537,863.94 540.08,864.38C542.66,864.75 547.85,865.15 550.1,863.48C545.1,867.2 540.13,871.01 535.82,875.51C533.52,877.91 531.49,880.56 529.72,883.38C520.97,897.33 515.94,917.07 525.74,931.79C531.36,940.23 541.18,945.96 551.3,945.84C556.11,945.79 561,945.54 565.55,943.98C574.43,940.94 579.56,932.21 578.47,922.87C577.71,916.37 573.43,910.82 566.52,911.07C561.66,911.24 556.95,914.52 557.67,919.85C557.89,921.47 558.4,923.09 559.4,924.38C560.41,925.67 561.96,926.59 563.59,926.57C561.53,925.41 560.7,922.49 561.84,920.43C562.98,918.36 565.9,917.51 567.97,918.64C570.16,919.83 571,922.61 570.92,925.11C570.49,939.59 552.48,940.46 542.47,936.01C539.02,934.47 535.9,932.06 533.72,928.95C531.22,925.38 530.13,920.48 530.44,916.15C530.81,910.94 531.12,905.87 532.93,900.87C536.56,890.83 544.26,882.65 553.17,876.76C555.93,874.93 558.89,873.27 562.14,872.62C557.27,874.65 553.46,878.84 551.39,883.69C549.6,887.9 549.27,893.19 551.03,897.48C551.57,898.79 552.29,900.02 553.22,901.08C555.2,903.33 558.02,904.7 560.92,905.42C563.82,906.14 566.84,906.27 569.83,906.39C568.9,904.66 567.94,902.64 568.66,900.8C569.15,899.54 570.35,898.68 570.95,897.48C571.41,896.58 571.5,895.54 571.53,894.52C571.58,892.25 571.29,889.98 571.32,887.7C571.35,885.43 571.75,883.07 573.04,881.2C571.96,887.44 579.51,893.32 585,889.37C586.46,888.32 587.45,886.69 587.98,884.97C589.16,881.21 587.97,876.65 584.64,874.6Z" style="fill-rule:nonzero;"/>
            <path d="M675.36,794.62C676.69,797.51 680.11,798.7 683.21,799.43C686.89,800.31 691.03,800.89 694.22,798.86C695.28,801.82 693.38,805.35 690.46,806.54C683.14,809.53 676.57,800.81 675.36,794.62Z" style="fill-rule:nonzero;"/>
            <path d="M621.39,853.3C619.2,851.73 617.55,849.38 616.77,846.33C618.58,848.28 621.3,849.06 623.89,849.67C629.58,851.01 635.12,851.89 640.88,850.46C638.47,853.11 635.14,854.9 631.61,855.45C627.77,856.05 624.14,855.29 621.39,853.3Z" style="fill-rule:nonzero;"/>
            <path d="M780.86,769.61C778.61,771.2 776.34,772.8 774.51,774.86C772.68,776.92 771.32,779.51 771.24,782.26C771.16,785.01 772.57,787.89 775.06,789.06C771.98,790.35 768.07,789.19 766.21,786.42C762.01,780.19 768.3,773.9 773.73,769.65C765.3,772.96 757.07,776.81 749.13,781.17C746.39,782.67 743.47,784.48 742.46,787.44C740.96,791.83 745.09,795.45 749.28,795.36C746.04,795.97 742.41,796.5 739.68,794.64C736.96,792.78 736.65,789.34 737.42,786.31C738.32,782.78 741.44,780.31 744.49,778.3C750.89,774.07 757.83,770.66 765.07,768.13C766.9,767.49 768.71,766.8 770.52,766.11C768.28,766.45 766.01,766.68 763.75,766.8C759.76,767.02 755.24,767.31 751.33,766.35C748.32,765.61 744.63,763.65 744.6,760.14C744.58,758.32 745.38,756.58 746.37,755.05C746.93,757.59 748.95,759.62 751.28,760.77C753.61,761.92 756.24,762.3 758.83,762.51C767.08,763.19 775.47,762.3 783.39,759.89C784.58,759.53 785.77,759.13 786.96,758.75C788.16,760.09 789.37,761.42 790.6,762.73C787.34,765.04 784.1,767.33 780.86,769.61Z" style="fill-rule:nonzero;"/>
            <path d="M903.01,652.31L902.89,653.5C900.65,675.07 890.24,694.8 871.96,712.14C870.62,713.41 869.28,714.68 867.92,715.95C862.07,725.69 857.88,736.42 855.63,747.56C854.36,743.17 854.47,738.46 855.36,733.97C855.98,730.86 856.97,727.85 858.11,724.89C854.16,728.33 850.09,731.66 845.82,734.72C837.17,740.9 827.83,745.91 819.84,749.98L817.2,744.81C825,740.83 834.1,735.96 842.44,730C846.65,726.99 850.69,723.68 854.62,720.24C846.55,722.37 837.56,720.73 829.99,716.97C840.37,717.81 850.91,716.72 860.9,713.78C861.33,713.65 861.76,713.52 862.19,713.38C864.14,711.56 866.06,709.74 867.97,707.93C885.22,691.58 895.03,673.06 897.12,652.91L897.24,651.72C897.38,650.31 897.53,648.9 897.7,647.5L903.47,648.18C903.29,649.55 903.15,650.93 903.01,652.31Z" style="fill-rule:nonzero;"/>
            <path d="M726.4,637.86C721.75,636.74 716.27,639.32 714.83,643.89C714.48,645 714.36,646.18 714.37,647.34C714.4,653.69 718.19,659.67 723.42,663.26C727.22,665.87 731.69,667.31 736.28,667.89C736.66,673.56 737.27,679.22 738.11,684.84C733.32,684.44 728.49,684.76 723.77,685.64C719.3,686.47 714.16,688.07 711.32,691.88C709.53,694.29 708.47,697.25 708.39,700.25C708.27,704.88 710.38,709.13 714.98,710.71C717.96,711.73 721.41,711.23 723.97,709.41C724.51,709.03 725.01,708.59 725.38,708.05C726.02,707.13 726.26,706 726.48,704.9C727.76,708.27 727.02,712.03 725.04,714.97C721.48,720.25 714.88,721.42 709.32,718.98C696.65,713.42 694.52,696.03 702.51,685.58C704.73,682.68 707.67,680.34 710.96,678.76C701.49,677.47 691.47,679.41 682.34,682.65C680.92,683.15 679.5,683.67 678.11,684.24C667.72,688.48 658.98,698.33 657.38,709.61C656.05,719 658.93,731.02 668.53,735C672.17,736.51 676.32,736.69 680.14,735.7C683.09,734.93 686.21,733.01 686.54,729.98C686.81,727.48 684.97,725.13 682.73,724.01C680.48,722.88 677.89,722.71 675.38,722.56C677.71,718.89 684.73,718.58 688.21,720.5C692.39,722.81 693.6,729.14 692.27,733.33C690.57,738.7 684.7,743.46 679.04,743.82C671.99,744.27 664.75,742.43 659.02,738.31C651.86,733.16 648.29,725.31 647.97,716.65C647.52,704.24 652.28,691.06 661.28,682.35C669.03,674.84 679.32,670.43 689.78,668.22C696.94,666.71 705.49,665.98 713.31,667.19C707.82,661.34 703.78,653.69 703.76,645.94C703.73,636.46 711.53,627.74 721.18,627.55C726.14,627.45 731.15,629.77 734.09,633.76C737.04,637.75 737.75,643.35 735.69,647.86C734.59,643.2 731.05,638.98 726.4,637.86Z" style="fill-rule:nonzero;"/>
            <path d="M822.28,844.39C842.35,842.02 861.06,856.1 868.21,874.29C868.01,869.69 866.64,865.14 864.27,861.18C859.04,852.45 849.43,847.17 843.69,838.77C842.57,837.12 841.58,835.31 841.37,833.33C841.01,829.94 843.27,826.46 846.5,825.4C849.74,824.34 853.62,825.81 855.33,828.76C854.53,824.75 851.5,821.16 847.55,820.08C843.6,819 838.95,820.77 837.03,824.38C836.12,826.1 835.83,828.09 835.81,830.03C835.77,833.89 836.74,837.75 838.59,841.13C837.58,839.29 834.55,837.6 832.82,836.54C830.67,835.22 828.3,834.08 825.86,833.4C820.92,832.03 816.2,830.61 810.96,830.52C806.52,830.45 801.97,830.64 797.75,829.23C794.74,828.23 793.06,825.89 794.9,822.95C796.4,820.54 799.65,819.57 802.34,819.52C804.91,819.47 807.73,820.12 809.27,822.17C808.47,821.1 808.21,819.68 807.27,818.6C806.27,817.45 805.02,816.5 803.63,815.87C800.7,814.53 796.87,814.38 793.88,815.57C789.39,817.36 787.73,822.27 788.35,826.81C789.17,832.81 793.48,836.3 799.32,836.9C802.15,837.19 805,836.95 807.84,837C813.12,837.1 818.36,838.63 823.26,840.57C816.73,839.78 809.52,838.99 804.32,843.78C800.03,847.74 798.93,853.87 802.36,858.76C803.83,860.86 806.39,862.31 808.94,862.01C808.29,860.31 807.7,858.56 807.53,856.75C806.85,849.11 815.96,845.14 822.28,844.39Z" style="fill-rule:nonzero;"/>
            <path d="M762.99,923.26C765.3,919.81 767.13,916.05 767.47,912.14C767.82,908.12 766.17,903.67 762.58,901.82C759.2,900.08 754.99,901.01 751.73,902.95C753.24,899.69 757.11,898.29 760.66,897.79C766.14,897.01 772.04,899.82 773.85,905.33C775.06,909.03 774.29,913.22 772.21,916.51C774.71,914.61 776.7,912.05 777.91,909.16C779.25,905.97 779.8,902.2 782.41,899.94C784.7,897.96 788.02,897.68 791.02,898.05C788.52,899.35 786.54,901.61 785.56,904.26C784.85,906.18 784.67,908.24 784.2,910.23C783.1,914.86 780.34,919.07 776.55,921.93C779.95,919.65 784.45,918.91 788.27,920.4C792.09,921.89 794.98,925.73 794.97,929.82C794.96,933.77 792.33,937.42 788.85,939.28C786.09,940.75 782.64,941.19 779.84,939.81C782.85,938.22 786.21,936.17 786.74,932.8C787.2,929.87 785.1,926.95 782.36,925.82C779.62,924.7 776.45,925.11 773.71,926.24C770.97,927.37 768.57,929.17 766.16,930.89C762.83,933.26 760.02,936.21 756.52,938.44C753,940.68 749.21,942.5 745.25,943.82C749.49,939.55 753.41,934.99 757.34,930.44C759.22,928.29 761.24,925.86 762.99,923.26Z" style="fill-rule:nonzero;"/>
            <path d="M956.07,614.97C955.44,616.6 954.93,618.43 955.55,620.06C956,621.26 956.99,622.17 958.04,622.9C964.43,627.32 974.29,625.45 978.62,619C977.09,625.05 973,630.62 967.22,632.96C961.44,635.3 954.06,633.84 950.32,628.85C952.13,639.99 946.88,651.97 937.47,658.19C941.97,651.98 943.35,644.08 944.16,636.45C944.98,628.82 945.4,620.99 948.39,613.92C951.02,607.69 956.35,602.46 962.5,600C966.52,598.4 970.46,596.78 974.7,595.92C966.26,599.41 959.37,606.46 956.07,614.97Z" style="fill-rule:nonzero;"/>
        </g>
    </g>
</svg>
