<?xml version="1.0" encoding="UTF-8" standalone="no"?>
<!DOCTYPE svg PUBLIC "-//W3C//DTD SVG 1.1//EN" "http://www.w3.org/Graphics/SVG/1.1/DTD/svg11.dtd">
<svg width="100%" height="100%" viewBox="0 0 1055 343" version="1.1" xmlns="http://www.w3.org/2000/svg" xmlns:xlink="http://www.w3.org/1999/xlink" xml:space="preserve" xmlns:serif="http://www.serif.com/" style="fill-rule:evenodd;clip-rule:evenodd;stroke-linejoin:round;stroke-miterlimit:2;">
    <g transform="matrix(1,0,0,1,-2360,-1783)">
        <g transform="matrix(4.16667,0,0,4.16667,3071.09,2000.59)">
            <path d="M0,-21.778C0.316,-21.778 2.298,-21.976 5.95,-22.373C9.599,-22.767 12.295,-23.046 14.043,-23.207C19.755,-23.523 30.622,-23.362 46.651,-22.73C42.207,-29.395 36.06,-33.084 28.205,-33.798C20.35,-34.513 11.581,-31.139 1.904,-23.682L0,-21.778ZM-39.511,-23.445C-39.195,-27.409 -39.273,-30.741 -39.75,-33.441L-39.511,-23.445ZM-39.511,-23.445C-39.671,-22.968 -39.75,-22.333 -39.75,-21.54C-39.75,-20.744 -39.831,-20.19 -39.987,-19.874C-39.511,-20.03 -38.641,-20.112 -37.369,-20.112C-38.321,-21.697 -39.035,-22.809 -39.511,-23.445M-38.321,7.736C-37.689,7.42 -37.131,6.944 -36.655,6.308C-36.023,5.992 -35.547,6.152 -35.227,6.784C-35.07,6.944 -34.989,7.103 -34.989,7.26C-35.308,7.42 -35.703,7.736 -36.179,8.212L-36.417,8.45C-36.261,8.45 -36.023,8.293 -35.703,7.974C-35.387,7.658 -35.149,7.42 -34.989,7.26C-35.308,7.42 -35.703,7.736 -36.179,8.212L-39.987,12.02C-40.94,12.972 -41.497,13.448 -41.653,13.448L-42.13,13.686C-42.289,13.846 -42.527,14.084 -42.843,14.4L-41.891,13.21C-42.051,12.894 -42.13,12.578 -42.13,12.258L-40.701,10.83L-43.081,12.496L-38.321,7.736ZM-58.314,-2.737C-53.714,-2.737 -50.304,-2.815 -48.08,-2.975C-46.651,-6.939 -45.543,-10.986 -44.748,-15.114C-54.905,-14.162 -63.157,-13.604 -69.502,-13.447C-67.122,-8.527 -62.68,-5.593 -56.172,-4.641L-58.314,-2.737ZM-68.073,-28.919C-70.453,-25.267 -71.405,-21.697 -70.93,-18.208C-61.885,-18.208 -53,-18.684 -44.271,-19.636C-44.115,-21.856 -44.194,-24.873 -44.51,-28.681C-50.698,-33.281 -58.552,-33.36 -68.073,-28.919M-64.027,-33.203C-57.362,-36.536 -51.65,-37.726 -46.89,-36.773C-51.81,-47.879 -61.49,-50.579 -75.928,-44.866C-80.213,-43.278 -85.924,-39.392 -93.065,-33.203C-96.081,-28.919 -97.432,-25.981 -97.112,-24.397C-96.319,-20.744 -89.101,-18.684 -75.452,-18.208C-74.66,-21.381 -73.072,-24.158 -70.692,-26.538L-68.787,-28.443L-65.932,-31.299L-64.027,-33.203ZM-15.233,-7.259C-8.093,-8.368 2.934,-8.129 17.851,-6.545C32.765,-4.957 43.795,-4.641 50.936,-5.593C51.252,-10.193 50.697,-14.162 49.269,-17.494C28.957,-18.602 15.627,-18.922 9.283,-18.446C7.695,-18.286 5.118,-18.007 1.547,-17.613C-2.023,-17.215 -4.682,-16.977 -6.427,-16.899C-8.175,-16.817 -10.711,-16.858 -14.043,-17.018L-9.283,-21.778C-6.427,-21.459 -3.415,-21.459 -0.238,-21.778L-0.238,-22.017L4.76,-26.777C9.996,-31.537 15.311,-34.869 20.707,-36.773C26.1,-38.678 30.942,-39.154 35.226,-38.201C39.511,-37.249 43.319,-35.424 46.651,-32.727C49.984,-30.027 52.442,-26.617 54.03,-22.492C55.298,-22.492 57.124,-22.41 59.505,-22.255C61.885,-22.094 63.629,-22.017 64.741,-22.017L65.931,-23.207C67.835,-24.474 70.848,-26.379 74.976,-28.919L70.215,-24.158C69.42,-23.523 68.192,-22.689 66.526,-21.659C64.86,-20.625 63.551,-19.874 62.598,-19.398L60.695,-17.256C58.314,-17.256 56.566,-17.334 55.458,-17.494C55.934,-13.686 55.852,-9.955 55.22,-6.307C61.249,-7.575 66.801,-9.639 71.881,-12.496C75.214,-16.46 77.118,-20.35 77.594,-24.158L82.354,-28.919C81.878,-24.315 78.624,-19 72.596,-12.972L67.835,-8.211C63.075,-5.511 58.552,-3.607 54.268,-2.499C52.52,3.373 49.11,8.848 44.033,13.925L39.273,18.685C29.116,27.413 18.007,31.062 5.95,29.634C1.19,29.157 -3.095,27.89 -6.903,25.826C-10.711,23.765 -14.043,20.827 -16.899,17.018C-19.756,13.21 -22.017,9.878 -23.683,7.022C-25.349,4.165 -27.413,0.082 -29.872,-5.236C-32.333,-10.55 -34.118,-14.162 -35.227,-16.066C-37.451,-15.746 -39.355,-15.59 -40.94,-15.59C-41.735,-11.462 -43.242,-7.259 -45.461,-2.975L-36.655,-2.975L-41.415,1.785L-48.318,1.785C-49.906,4.326 -51.572,6.39 -53.316,7.974L-58.077,12.735C-63.633,17.338 -68.828,20.273 -73.667,21.541C-78.509,22.813 -82.793,22.534 -86.519,20.708C-90.25,18.886 -93.779,16.227 -97.112,12.735C-100.444,9.246 -103.579,5.159 -106.513,0.477C-109.451,-4.202 -112.385,-8.963 -115.32,-13.805C-118.258,-18.643 -121.311,-23.087 -124.484,-27.133C-127.66,-31.18 -130.992,-34.472 -134.48,-37.011C-137.972,-39.548 -141.978,-40.779 -146.5,-40.701C-151.023,-40.619 -155.824,-38.994 -160.9,-35.821C-163.757,-31.537 -165.344,-27.133 -165.66,-22.612C-165.98,-18.089 -164.631,-14.4 -161.615,-11.544C-158.602,-8.687 -153.998,-7.653 -147.809,-8.449L-152.569,-3.689C-159.078,-2.737 -163.838,-3.927 -166.851,-7.259C-169.867,-10.591 -171.016,-14.675 -170.302,-19.517C-169.588,-24.356 -167.565,-28.919 -164.233,-33.203L-159.472,-37.964C-158.996,-38.439 -158.602,-38.755 -158.282,-38.916L-157.092,-40.106C-151.856,-43.594 -146.976,-45.461 -142.454,-45.699C-137.932,-45.937 -133.926,-44.825 -130.434,-42.367C-126.945,-39.905 -123.614,-36.732 -120.437,-32.846C-117.265,-28.956 -114.212,-24.635 -111.273,-19.874C-108.339,-15.114 -105.442,-10.354 -102.586,-5.593C-99.73,-0.833 -96.635,3.373 -93.304,7.022C-89.971,10.674 -86.519,13.489 -82.949,15.471C-79.379,17.458 -75.214,18.012 -70.453,17.138C-65.693,16.268 -60.616,13.768 -55.221,9.64C-53.316,7.26 -51.65,4.642 -50.222,1.785C-73.548,2.105 -88.387,3.214 -94.732,5.118L-89.971,0.357C-86.007,-0.751 -78.706,-1.625 -68.073,-2.261C-72.678,-4.957 -75.214,-8.687 -75.69,-13.447C-92.351,-13.447 -101.079,-15.508 -101.872,-19.636C-102.192,-20.744 -102.073,-21.897 -101.515,-23.087C-100.961,-24.278 -100.128,-25.587 -99.015,-27.015C-97.907,-28.443 -97.193,-29.473 -96.874,-30.109L-92.113,-34.869C-91.481,-35.501 -89.934,-36.852 -87.472,-38.916C-85.013,-40.976 -83.228,-42.445 -82.116,-43.319C-81.008,-44.189 -79.42,-45.261 -77.356,-46.532C-75.296,-47.8 -73.232,-48.831 -71.168,-49.627C-61.171,-52.799 -53.714,-52.84 -48.794,-49.745C-43.878,-46.651 -40.861,-41.214 -39.75,-33.441C-36.417,-30.741 -33.323,-26.538 -30.467,-20.827C-20.63,-22.094 -15.155,-22.809 -14.043,-22.968L-18.804,-18.208L-28.324,-17.018C-27.849,-15.906 -26.699,-13.447 -24.873,-9.639C-23.051,-5.831 -21.742,-3.131 -20.946,-1.546C-20.153,0.041 -18.804,2.421 -16.899,5.594C-14.995,8.77 -13.251,11.187 -11.663,12.853C-10.079,14.52 -8.134,16.345 -5.832,18.328C-3.533,20.314 -0.993,21.82 1.785,22.85C4.56,23.884 7.535,24.557 10.711,24.873C22.135,25.985 32.686,22.813 42.367,15.353C46.651,10.116 49.348,4.485 50.46,-1.546C42.523,0.041 30.585,-0 14.638,-1.666C-1.309,-3.332 -12.853,-3.607 -19.994,-2.499L-15.233,-7.259Z" style="fill-rule:nonzero;"/>
        </g>
    </g>
</svg>
