<?xml version="1.0" encoding="UTF-8" standalone="no"?>
<!DOCTYPE svg PUBLIC "-//W3C//DTD SVG 1.1//EN" "http://www.w3.org/Graphics/SVG/1.1/DTD/svg11.dtd">
<svg width="100%" height="100%" viewBox="0 0 976 562" version="1.1" xmlns="http://www.w3.org/2000/svg" xmlns:xlink="http://www.w3.org/1999/xlink" xml:space="preserve" xmlns:serif="http://www.serif.com/" style="fill-rule:evenodd;clip-rule:evenodd;stroke-linejoin:round;stroke-miterlimit:2;">
    <g transform="matrix(1,0,0,1,-4592,-1698)">
        <g transform="matrix(4.16667,0,0,4.16667,5107.11,1909.18)">
            <path d="M0,27.295C6.82,24.759 12.138,26.503 15.947,32.532C19.756,38.564 19.119,45.146 14.042,52.287C10.551,54.827 6.902,56.493 3.094,57.286C2.774,56.334 2.537,55.541 2.38,54.906L1.666,49.193C1.19,43.956 0.632,36.66 0,27.295M35.703,68.948C29.989,73.076 23.563,75.933 16.423,77.517C9.282,79.105 2.338,79.384 -4.404,78.35C-11.149,77.32 -17.814,75.456 -24.397,72.757C-30.983,70.061 -36.618,66.371 -41.297,61.689C-45.979,57.01 -49.627,51.971 -52.245,46.575C-54.864,41.183 -55.857,35.15 -55.221,28.485C-54.588,21.821 -52.048,15.238 -47.604,8.73C-41.892,12.698 -35.941,17.536 -29.752,23.249C-32.769,30.71 -33.405,37.612 -31.657,43.956C-29.913,50.305 -26.223,55.344 -20.589,59.071C-14.958,62.801 -8.888,64.032 -2.38,62.76C-1.588,69.9 -1.19,74.266 -1.19,75.851L4.046,70.615C4.522,67.758 4.44,64.426 3.807,60.618C6.504,59.19 8.963,57.524 11.187,55.619L16.423,50.383C21.499,44.355 23.839,38.642 23.444,33.245C23.047,27.853 20.309,24.123 15.233,22.059C10.153,19.999 4.997,21.028 -0.239,25.153C-0.398,23.092 -0.558,19.999 -0.714,15.871C-0.874,11.746 -1.034,8.652 -1.19,6.588C5.95,6.431 12.615,7.937 18.803,11.11C26.1,19.838 32.924,26.581 39.273,31.342C45.938,44.83 44.748,57.367 35.703,68.948M-86.163,-20.784C-84.735,-20.784 -82.752,-20.941 -80.213,-21.26C-61.171,-23.956 -40.225,-25.545 -17.376,-26.02C-14.839,-24.117 -12.299,-22.053 -9.759,-19.832C-23.248,-13.484 -33.959,-6.344 -41.892,1.589L-43.082,2.78C-57.682,-7.693 -72.042,-15.548 -86.163,-20.784M-7.616,-17.69C-7.3,-8.169 -6.984,-1.185 -6.665,3.255C-11.585,5.003 -16.107,7.7 -20.231,11.348L-25.468,16.584L-25.706,16.823C-32.371,10.954 -38.165,6.35 -43.082,3.017C-33.721,-4.915 -21.898,-11.818 -7.616,-17.69M-3.57,57.762C-11.031,57.286 -17.179,53.875 -22.017,47.527C-26.859,41.183 -28.485,33.96 -26.896,25.867C-15.315,37.136 -7.539,47.765 -3.57,57.762M-5.475,30.39C-5.318,31.501 -5.159,33.245 -4.999,35.626C-4.843,38.006 -4.76,39.754 -4.76,40.863C-9.364,33.722 -15.948,26.105 -24.516,18.013C-24.36,17.697 -23.564,16.346 -22.136,13.966C-17.06,10.318 -11.901,8.016 -6.665,7.063C-6.508,9.604 -6.308,13.49 -6.07,18.727C-5.831,23.963 -5.634,27.853 -5.475,30.39M1.785,-26.14C3.767,-26.058 5.236,-26.02 6.187,-26.02C2.38,-24.749 -0.476,-23.719 -2.38,-22.927L-2.38,-23.165C-2.38,-23.481 -2.422,-23.956 -2.5,-24.593C-2.582,-25.225 -2.619,-25.783 -2.619,-26.259C-1.666,-26.259 -0.201,-26.218 1.785,-26.14M11.187,1.827C7.058,1.036 2.856,1.036 -1.429,1.827C-1.748,-4.517 -1.905,-9.278 -1.905,-12.454C2.059,-8.485 6.426,-3.725 11.187,1.827M110.203,-1.029C109.09,-11.658 104.965,-19.435 97.824,-24.355C89.097,-30.543 79.813,-28.717 69.977,-18.88L64.741,-13.644C73.149,-22.053 81.32,-24.511 89.257,-21.022C96.554,-17.846 101.474,-11.264 104.014,-1.267C107.026,10.634 105.122,21.028 98.302,29.914C82.116,42.61 64.183,41.338 44.509,26.105C40.224,17.381 33.4,10.634 24.039,5.873C24.039,5.718 23.879,5.48 23.563,5.16C14.834,-5.629 7.058,-14.198 0.237,-20.546C6.107,-22.766 12.693,-24.511 19.993,-25.783C20.625,-25.783 21.618,-25.741 22.968,-25.664C24.315,-25.582 25.308,-25.545 25.943,-25.545C28.48,-25.385 33.281,-24.987 40.344,-24.355C47.402,-23.719 52.84,-23.402 56.649,-23.402L61.885,-28.639C51.888,-32.764 39.589,-33.555 24.992,-31.019C12.931,-31.336 3.648,-31.413 -2.856,-31.257C-2.974,-34.039 -3.132,-37.763 -3.332,-42.408C-4.959,-40.81 -6.706,-39.333 -8.542,-37.997C-8.402,-35.195 -8.331,-32.94 -8.331,-31.257L-12.14,-31.257C-13.887,-32.619 -15.63,-33.89 -17.369,-35.108C-17.718,-35.297 -18.044,-35.528 -18.341,-35.794C-49.902,-57.403 -80.206,-55.179 -109.25,-29.115L-114.487,-23.879C-119.407,-18.482 -122.304,-12.294 -123.174,-5.313C-124.045,1.671 -123.174,7.897 -120.556,13.371C-117.938,18.846 -113.855,23.052 -108.298,25.986C-102.746,28.924 -96.636,29.519 -89.971,27.772L-84.735,22.535C-91.083,24.283 -96.992,23.766 -102.467,20.988C-107.942,18.214 -112.029,14.286 -114.725,9.206C-117.425,4.129 -118.574,-1.743 -118.176,-8.408C-117.782,-15.072 -115.521,-21.179 -111.393,-26.735C-83.626,-49.9 -54.506,-51.328 -24.041,-31.019C-42.13,-30.223 -59.111,-28.717 -74.976,-26.497C-75.928,-26.337 -79.301,-26.14 -85.092,-25.902C-90.886,-25.664 -94.969,-25.069 -97.35,-24.117L-102.586,-18.88C-87.037,-15.704 -68.948,-6.66 -48.318,8.254C-56.095,18.251 -60.141,28.009 -60.457,37.53C-60.777,47.051 -57.523,55.344 -50.698,62.403C-43.878,69.466 -35.904,75.018 -26.777,79.064C-17.655,83.111 -7.579,84.698 3.451,83.824C14.478,82.954 24.039,79.265 32.132,72.757L37.369,67.52C46.414,58.476 49.984,48.401 48.079,37.292C65.373,47.133 81.163,45.782 95.444,33.245L100.682,28.009C108.298,20.393 111.47,10.716 110.203,-1.029" style="fill-rule:nonzero;"/>
        </g>
    </g>
</svg>
