<?xml version="1.0" encoding="UTF-8" standalone="no"?>
<!DOCTYPE svg PUBLIC "-//W3C//DTD SVG 1.1//EN" "http://www.w3.org/Graphics/SVG/1.1/DTD/svg11.dtd">
<svg width="100%" height="100%" viewBox="0 0 765 459" version="1.1" xmlns="http://www.w3.org/2000/svg" xmlns:xlink="http://www.w3.org/1999/xlink" xml:space="preserve" xmlns:serif="http://www.serif.com/" style="fill-rule:evenodd;clip-rule:evenodd;stroke-linejoin:round;stroke-miterlimit:2;">
    <g transform="matrix(1,0,0,1,-3560,-504)">
        <g transform="matrix(4.16667,0,0,4.16667,3945.76,720.422)">
            <path d="M0,5.077C0.476,3.969 1.584,1.589 3.332,-2.064C0.792,-2.22 -3.057,-2.458 -8.212,-2.778C-13.37,-3.094 -17.219,-3.332 -19.756,-3.491C-20.708,-0.952 -21.979,1.191 -23.564,2.935L-23.802,3.173C-20.946,3.333 -13.013,3.969 0,5.077M-41.653,4.125C-37.053,3.493 -31.419,3.173 -24.754,3.173C-23.326,1.269 -22.374,-1.03 -21.898,-3.729C-47.287,-5.634 -64.265,-6.426 -72.833,-6.11C-73.946,-6.11 -76.207,-6.229 -79.617,-6.467C-83.031,-6.705 -85.531,-6.742 -87.114,-6.586C-62.68,11.027 -43.004,15.312 -28.086,6.267C-35.703,6.267 -41.259,6.587 -44.748,7.219L-41.653,4.125ZM-49.746,-39.432L-52.84,-36.338C-53.316,-38.242 -53.316,-39.909 -52.84,-41.337L-49.746,-44.192L-48.556,-45.383L-47.841,-46.097C-38.481,-49.269 -30.704,-46.015 -24.516,-36.338C-18.328,-26.657 -16.423,-16.82 -18.804,-6.824C-13.568,-6.348 -5.556,-5.79 5.236,-5.158C10.153,-13.727 16.423,-22.057 24.04,-30.15L25.23,-31.34C17.137,-22.295 10.867,-13.566 6.426,-5.158C43.873,-3.41 69.263,-7.218 82.592,-16.582C89.257,-26.103 89.691,-34.196 83.901,-40.861C78.107,-47.525 69.42,-50.062 57.838,-48.477C48.158,-47.049 37.287,-41.337 25.23,-31.34L27.134,-33.244C39.511,-43.873 50.776,-49.905 60.932,-51.333C72.99,-53.078 81.837,-50.34 87.472,-43.122C93.102,-35.899 91.953,-27.372 84.02,-17.535L80.926,-14.679C68.389,-4.838 42.999,-0.636 4.76,-2.064C4.44,-1.268 3.927,-0.078 3.213,1.507C2.499,3.095 1.982,4.285 1.666,5.077C8.647,5.713 13.723,6.111 16.899,6.267C36.573,6.267 46.414,7.695 46.414,10.552C46.414,11.027 46.176,11.503 45.699,11.98L42.605,14.836C41.969,15.312 37.845,18.488 30.228,24.356L33.085,21.263C38.477,17.298 41.891,14.757 43.319,13.645C43.476,12.693 42.724,11.901 41.058,11.265C39.392,10.633 37.168,10.157 34.393,9.837C31.616,9.521 28.878,9.324 26.182,9.242C23.482,9.164 20.827,9.123 18.209,9.123L13.805,9.123C12.217,9.123 9.759,9.004 6.426,8.767C3.094,8.528 1.108,8.409 0.476,8.409C-4.921,25.23 -3.731,40.862 4.046,55.299L1.19,58.155C-7.223,42.606 -8.015,25.945 -1.19,8.172C-15.471,7.063 -24.04,6.427 -26.896,6.267C-42.605,19.44 -64.425,15.631 -92.351,-5.158L-89.257,-8.252C-87.829,-9.044 -85.965,-9.52 -83.664,-9.68C-81.365,-9.836 -78.706,-9.758 -75.69,-9.442C-72.678,-9.122 -70.692,-8.966 -69.74,-8.966C-61.647,-9.442 -45.461,-8.728 -21.184,-6.824C-20.076,-16.82 -22.456,-26.062 -28.324,-34.553C-34.196,-43.04 -41.497,-45.937 -50.222,-43.241C-50.542,-42.444 -50.382,-41.177 -49.746,-39.432" style="fill-rule:nonzero;"/>
        </g>
    </g>
</svg>
