<?xml version="1.0" encoding="UTF-8" standalone="no"?>
<!DOCTYPE svg PUBLIC "-//W3C//DTD SVG 1.1//EN" "http://www.w3.org/Graphics/SVG/1.1/DTD/svg11.dtd">
<svg width="100%" height="100%" viewBox="0 0 707 506" version="1.1" xmlns="http://www.w3.org/2000/svg" xmlns:xlink="http://www.w3.org/1999/xlink" xml:space="preserve" xmlns:serif="http://www.serif.com/" style="fill-rule:evenodd;clip-rule:evenodd;stroke-linejoin:round;stroke-miterlimit:2;">
    <g transform="matrix(1,0,0,1,-1107,-543)">
        <g transform="matrix(4.16667,0,0,4.16667,1533.87,998.882)">
            <path d="M0,-96.266C-0.32,-96.106 -0.833,-95.909 -1.547,-95.671C-2.261,-95.433 -2.778,-95.232 -3.094,-95.076C-3.094,-96.028 -3.135,-97.337 -3.213,-99.003C-3.295,-100.669 -3.332,-101.896 -3.332,-102.692C-0.952,-102.692 2.655,-102.729 7.498,-102.812C12.336,-102.89 16.025,-102.931 18.566,-102.931C19.041,-102.931 19.793,-102.89 20.827,-102.812C21.857,-102.729 22.69,-102.692 23.326,-102.692C11.741,-100.152 3.965,-98.01 0,-96.266M-1.428,-49.615C4.285,-53.899 9.361,-55.643 13.805,-54.851C18.246,-54.055 21.816,-52.073 24.516,-48.9C27.213,-45.724 28.64,-41.559 28.8,-36.404C28.957,-31.246 27.45,-26.526 24.278,-22.243C16.025,-15.894 7.535,-12.878 -1.19,-13.198C-0.874,-21.766 -0.952,-33.906 -1.428,-49.615M-1.666,-9.389C-1.666,-9.546 -1.588,-9.627 -1.428,-9.627C6.821,-10.104 14.913,-13.752 22.85,-20.576L26.182,-23.908C29.99,-28.349 32.014,-33.388 32.252,-39.022C32.49,-44.654 31.099,-49.138 28.086,-52.471C25.07,-55.803 21.143,-57.785 16.304,-58.421C11.462,-59.053 5.951,-56.673 -0.238,-51.28L-1.428,-50.09C-1.588,-55.167 -1.826,-63.26 -2.142,-74.369C4.203,-77.065 10.391,-78.058 16.423,-77.344C22.452,-76.63 28.242,-75.041 33.799,-72.584C39.351,-70.121 43.915,-66.473 47.485,-61.634C51.055,-56.792 53.591,-51.638 55.101,-46.163C56.608,-40.689 56.37,-34.578 54.387,-27.836C52.401,-21.09 48.556,-14.625 42.843,-8.437C35.703,-2.725 27.967,1.559 19.637,4.416C11.306,7.272 3.411,8.503 -4.046,8.105C-11.507,7.71 -18.647,6.32 -25.468,3.939C-32.292,1.559 -37.926,-2.089 -42.367,-7.009C-46.811,-11.926 -50.025,-17.4 -52.007,-23.433C-53.993,-29.461 -53.993,-36.441 -52.007,-44.378C-50.025,-52.311 -46.019,-60.325 -39.987,-68.418C-33.959,-63.181 -29.12,-58.34 -25.468,-53.899C-31.024,-42.95 -31.738,-33.191 -27.61,-24.623C-23.486,-16.054 -16.583,-11.133 -6.903,-9.865C-6.426,-8.278 -5.794,-7.009 -4.998,-6.057L-1.666,-9.389ZM-90.209,-102.216C-81.008,-102.216 -67.203,-102.295 -48.794,-102.454C-30.388,-102.611 -16.505,-102.692 -7.141,-102.692C-7.141,-101.58 -7.062,-99.993 -6.903,-97.932C-6.746,-95.868 -6.664,-94.362 -6.664,-93.41C-18.725,-87.537 -28.086,-81.271 -34.75,-74.607L-36.893,-72.464C-49.43,-82.461 -67.203,-92.376 -90.209,-102.216M-8.093,-14.388C-15.552,-16.768 -20.945,-21.528 -24.278,-28.669C-27.61,-35.809 -27.61,-43.742 -24.278,-52.471C-19.994,-47.074 -16.029,-40.964 -12.377,-34.143C-11.585,-32.396 -10.911,-30.491 -10.354,-28.431C-9.8,-26.367 -9.323,-23.749 -8.926,-20.576C-8.531,-17.4 -8.252,-15.34 -8.093,-14.388M-5.95,-72.702C-4.998,-51.757 -4.522,-33.667 -4.522,-18.434C-4.682,-18.91 -4.998,-20.852 -5.474,-24.266C-5.95,-27.676 -6.467,-30.335 -7.021,-32.239C-7.579,-34.143 -8.252,-35.888 -9.044,-37.476C-12.537,-44.933 -16.821,-51.597 -21.897,-57.469C-19.994,-60.642 -18.011,-63.497 -15.947,-66.038L-18.327,-63.658C-20.391,-61.278 -21.819,-59.451 -22.612,-58.183C-26.579,-62.943 -31.34,-67.622 -36.893,-72.226L-35.465,-73.654C-28.484,-79.999 -18.885,-85.95 -6.664,-91.506L-5.95,-74.369C-8.806,-72.621 -11.823,-70.162 -14.995,-66.989L-15.947,-66.038C-11.982,-69.05 -8.651,-71.274 -5.95,-72.702M63.789,-101.741L67.122,-105.072C64.265,-108.245 54.424,-108.323 37.607,-105.311C30.306,-105.943 25.07,-106.262 21.898,-106.262L-3.57,-106.262C-3.621,-107.284 -3.672,-108.272 -3.722,-109.25C-4.287,-109.022 -4.93,-108.888 -5.66,-108.888C-6.367,-108.888 -6.992,-109.014 -7.544,-109.229C-7.489,-108.258 -7.434,-107.278 -7.378,-106.262C-68.311,-105.787 -98.859,-105.549 -99.015,-105.549L-102.348,-102.216C-74.261,-90.791 -53.554,-79.605 -40.225,-68.656C-49.906,-57.071 -55.38,-45.724 -56.648,-34.619C-57.92,-23.511 -55.458,-14.466 -49.269,-7.485C-43.081,-0.501 -35.308,4.854 -25.944,8.581C-16.583,12.311 -5.753,12.984 6.546,10.604C18.841,8.224 30.068,2.831 40.225,-5.581L43.558,-8.914C49.27,-14.625 53.436,-20.576 56.054,-26.765C58.672,-32.953 59.742,-38.666 59.267,-43.902C58.791,-49.138 57.399,-54.174 55.101,-59.016C52.799,-63.855 49.467,-67.901 45.105,-71.155C40.738,-74.406 36.019,-76.946 30.942,-78.772C25.862,-80.594 20.388,-81.308 14.519,-80.914C8.647,-80.516 3.012,-78.969 -2.38,-76.272C-2.54,-80.08 -2.778,-85.633 -3.094,-92.934C4.998,-96.266 17.376,-99.2 34.037,-101.741C47.522,-100.469 57.44,-100.469 63.789,-101.741" style="fill-rule:nonzero;"/>
        </g>
    </g>
</svg>
