<?xml version="1.0" encoding="UTF-8" standalone="no"?>
<!DOCTYPE svg PUBLIC "-//W3C//DTD SVG 1.1//EN" "http://www.w3.org/Graphics/SVG/1.1/DTD/svg11.dtd">
<svg width="100%" height="100%" viewBox="0 0 690 421" version="1.1" xmlns="http://www.w3.org/2000/svg" xmlns:xlink="http://www.w3.org/1999/xlink" xml:space="preserve" xmlns:serif="http://www.serif.com/" style="fill-rule:evenodd;clip-rule:evenodd;stroke-linejoin:round;stroke-miterlimit:2;">
    <g transform="matrix(1,0,0,1,-2762,-575)">
        <g transform="matrix(4.16667,0,0,4.16667,3389.4,712.659)">
            <path d="M0,31.932C-0.16,32.092 -0.32,32.252 -0.477,32.408L-0.238,32.17L0,31.932ZM12.377,-4.723C11.424,-16.304 7.219,-24.159 -0.238,-28.287C-9.759,-33.203 -20.868,-29.871 -33.56,-18.29C-19.915,-31.935 -8.015,-36.06 2.142,-30.667C9.599,-26.699 13.805,-19.004 14.757,-7.579C16.025,6.226 11.979,18.447 2.618,29.076C1.822,30.028 1.03,30.902 0.238,31.694L0,31.932C9.36,21.143 13.485,8.926 12.377,-4.723M-19.279,39.31C-15.315,33.758 -13.251,28.005 -13.091,22.054C-12.935,16.104 -14.519,10.949 -17.851,6.583C-21.184,2.221 -25.39,-1.271 -30.467,-3.89C-35.547,-6.508 -41.616,-7.419 -48.675,-6.627C-55.737,-5.831 -62.68,-3.135 -69.502,1.465C-68.233,2.894 -65.061,6.345 -59.981,11.82C-54.905,17.294 -51.334,20.946 -49.27,22.768C-47.209,24.595 -44.194,27.172 -40.225,30.504C-36.261,33.836 -32.649,36.138 -29.395,37.407C-26.145,38.678 -22.772,39.31 -19.279,39.31M-62.123,61.684C-59.11,56.767 -58.552,52.246 -60.457,48.118C-61.885,47.009 -63.711,45.499 -65.932,43.595C-68.312,43.119 -71.25,43.915 -74.738,45.975L-72.12,43.595C-70.692,42.643 -69.263,41.928 -67.835,41.453C-69.74,39.548 -71.643,37.407 -73.548,35.027C-75.452,32.646 -77.635,29.872 -80.093,26.696C-82.556,23.523 -84.259,21.303 -85.211,20.031C-90.131,28.76 -92.589,37.488 -92.589,46.213C-92.589,52.085 -90.964,56.727 -87.71,60.137C-84.459,63.552 -80.569,65.217 -76.047,65.135C-71.525,65.058 -66.883,63.908 -62.123,61.684M-85.924,19.317C-88.465,16.145 -90.767,13.527 -92.827,11.463C-94.891,9.402 -97.112,7.617 -99.492,6.107C-101.872,4.601 -104.334,3.887 -106.87,3.965C-109.41,4.047 -112.029,4.88 -114.725,6.464C-118.533,12.02 -117.027,17.413 -110.203,22.649C-103.382,27.886 -96.955,29.95 -90.923,28.837L-93.304,31.218C-97.112,32.014 -101.634,31.18 -106.87,28.719C-112.106,26.26 -115.796,23.126 -117.938,19.317C-120.081,15.509 -119.329,11.384 -115.677,6.94L-113.059,4.56C-109.726,1.704 -106.197,0.793 -102.467,1.823C-98.74,2.857 -95.564,4.441 -92.946,6.583C-90.328,8.725 -87.275,11.938 -83.783,16.223C-81.403,12.734 -79.182,9.878 -77.118,7.654L-75.69,6.226C-78.706,9.719 -81.246,13.211 -83.306,16.699C-73.31,29.711 -66.645,37.804 -63.313,40.977C-60.616,41.453 -58.791,42.963 -57.839,45.499C-46.734,53.275 -34.751,52.323 -21.898,42.643L-24.04,44.785C-35.785,53.829 -46.734,55.577 -56.887,50.021C-56.887,53.829 -58.236,57.482 -60.932,60.97L-63.551,63.589C-68.471,66.129 -73.273,67.515 -77.951,67.754C-82.633,67.992 -86.68,66.366 -90.09,62.874C-93.504,59.386 -95.207,54.626 -95.207,48.593C-95.207,42.405 -93.779,35.822 -90.923,28.837C-89.655,25.825 -87.988,22.649 -85.924,19.317M-121.389,26.934L-124.007,29.552C-132.42,31.14 -139.003,29.711 -143.763,25.267C-148.523,20.827 -150.707,14.996 -150.309,7.773C-149.914,0.554 -147.333,-6.151 -142.573,-12.339L-139.955,-14.957C-133.29,-20.986 -125.596,-24.318 -116.867,-24.954C-108.618,-25.587 -100.801,-23.564 -93.422,-18.885C-86.044,-14.203 -78.23,-7.498 -69.978,1.228C-58.236,-7.817 -46.376,-11.031 -34.394,-8.412C-22.415,-5.794 -15.077,0.198 -12.377,9.558C-9.681,18.923 -11.745,28.837 -18.566,39.31C-12.697,38.994 -6.665,36.692 -0.477,32.408L-2.38,34.074C-8.252,38.835 -14.441,41.375 -20.946,41.691L-21.898,42.643C-21.742,42.486 -21.504,42.167 -21.184,41.691C-24.676,41.691 -28.086,41.096 -31.419,39.905C-34.751,38.715 -38.481,36.417 -42.605,33.003C-46.734,29.593 -49.787,27.015 -51.769,25.267C-53.755,23.523 -57.403,19.793 -62.718,14.081C-68.036,8.368 -71.25,4.88 -72.358,3.608C-72.833,3.928 -73.391,4.363 -74.023,4.917C-74.66,5.475 -75.214,5.91 -75.69,6.226L-74.5,5.036C-73.707,4.244 -73.072,3.69 -72.596,3.37C-81.164,-5.355 -89.06,-12.019 -96.279,-16.624C-103.501,-21.224 -111.236,-23.128 -119.486,-22.336C-127.261,-21.86 -134.402,-19.004 -140.907,-13.767C-145.351,-7.579 -147.691,-0.992 -147.928,5.988C-148.166,12.973 -145.905,18.644 -141.145,23.006C-136.385,27.372 -129.802,28.682 -121.389,26.934" style="fill-rule:nonzero;"/>
        </g>
    </g>
</svg>
