<?xml version="1.0" encoding="UTF-8" standalone="no"?>
<!DOCTYPE svg PUBLIC "-//W3C//DTD SVG 1.1//EN" "http://www.w3.org/Graphics/SVG/1.1/DTD/svg11.dtd">
<svg width="100%" height="100%" viewBox="0 0 1037 776" version="1.1" xmlns="http://www.w3.org/2000/svg" xmlns:xlink="http://www.w3.org/1999/xlink" xml:space="preserve" xmlns:serif="http://www.serif.com/" style="fill-rule:evenodd;clip-rule:evenodd;stroke-linejoin:round;stroke-miterlimit:2;">
    <g transform="matrix(1,0,0,1,-187,-1588)">
        <g transform="matrix(4.16667,0,0,4.16667,1181.22,2191.55)">
            <path d="M0,-103.976C3.012,-107.784 4.642,-111.552 4.88,-115.282C5.118,-119.009 4.165,-122.102 2.024,-124.565C-0.119,-127.023 -2.897,-129.124 -6.307,-130.872C-9.721,-132.616 -13.649,-133.449 -18.089,-133.371C-22.533,-133.29 -26.978,-132.538 -31.418,-131.11C-35.703,-129.522 -39.67,-127.22 -43.319,-124.208C-37.767,-114.687 -35.387,-103.816 -36.178,-91.599C-21.897,-93.183 -9.84,-97.311 0,-103.976M-51.887,-117.067C-56.332,-111.831 -58.634,-109.052 -58.79,-108.736C-57.522,-103.5 -57.124,-97.627 -57.6,-91.123C-52.207,-90.963 -46.733,-90.963 -41.177,-91.123C-41.497,-102.228 -44.115,-111.749 -49.032,-119.685C-50.303,-118.414 -51.255,-117.543 -51.887,-117.067M-62.123,-62.085C-58.634,-59.228 -55.778,-55.974 -53.554,-52.326C-52.125,-54.23 -50.303,-57.242 -48.079,-61.371C-49.668,-61.371 -52.007,-61.449 -55.101,-61.608C-58.195,-61.765 -60.538,-61.925 -62.123,-62.085M-68.787,-68.035C-66.251,-67.875 -62.402,-67.678 -57.243,-67.44C-52.088,-67.203 -48.239,-67.001 -45.699,-66.845C-43.319,-73.034 -41.891,-79.538 -41.415,-86.362C-47.127,-85.887 -52.84,-85.649 -58.552,-85.649C-59.824,-79.936 -62.044,-75.254 -65.216,-71.606C-66.489,-70.494 -67.441,-69.62 -68.073,-68.988C-68.233,-68.668 -68.471,-68.352 -68.787,-68.035M-71.405,-91.837C-67.597,-91.517 -64.662,-91.361 -62.598,-91.361C-62.598,-95.645 -62.997,-99.294 -63.788,-102.31C-64.741,-101.038 -66.169,-99.096 -68.073,-96.478C-69.977,-93.86 -71.089,-92.313 -71.405,-91.837M-58.79,-18.527C-52.286,-27.412 -52.207,-36.855 -58.552,-46.852C-69.025,-37.331 -81.8,-30.666 -96.873,-26.858C-83.864,-13.369 -71.167,-10.591 -58.79,-18.527M-112.344,-47.566C-107.427,-40.105 -103.299,-34.315 -99.968,-30.19C-84.418,-32.887 -70.773,-38.678 -59.028,-47.566C-62.68,-53.118 -67.835,-58.038 -74.499,-62.323L-74.737,-62.085C-84.894,-54.944 -96.479,-50.262 -109.488,-48.042C-109.808,-48.042 -110.284,-47.96 -110.916,-47.804C-111.552,-47.643 -112.028,-47.566 -112.344,-47.566M-122.103,-47.327C-121.787,-38.599 -121.708,-32.411 -121.865,-28.762C-116.788,-28.442 -112.266,-28.525 -108.298,-29C-112.106,-33.917 -116.152,-39.949 -120.437,-47.09C-120.757,-47.09 -121.073,-47.127 -121.389,-47.209C-121.708,-47.287 -121.947,-47.327 -122.103,-47.327M-76.166,-86.6L-77.594,-85.41C-77.437,-85.567 -77.278,-85.805 -77.117,-86.125L-76.642,-86.6C-79.974,-86.916 -84.697,-87.393 -90.803,-88.029C-96.914,-88.661 -102.429,-89.178 -107.346,-89.576C-112.266,-89.97 -116.867,-90.171 -121.151,-90.171C-121.787,-87.631 -122.263,-83.662 -122.579,-78.27C-113.694,-80.174 -104.609,-80.133 -95.326,-78.151C-86.043,-76.165 -77.594,-72.796 -69.977,-68.035L-69.025,-68.035C-65.693,-72.952 -63.633,-78.902 -62.836,-85.887C-63.156,-85.887 -67.597,-86.125 -76.166,-86.6M-86.162,-68.511C-98.699,-73.588 -110.916,-75.332 -122.817,-73.748L-122.817,-65.179C-122.341,-64.227 -121.192,-62.282 -119.365,-59.348C-117.543,-56.41 -116.152,-54.07 -115.2,-52.326C-112.028,-52.326 -108.38,-52.643 -104.251,-53.278C-94.099,-55.023 -84.816,-58.195 -76.404,-62.799C-90.685,-63.275 -104.966,-63.513 -119.247,-63.513L-114.01,-68.749C-101.633,-68.749 -92.351,-68.668 -86.162,-68.511M-128.053,-14.957C-127.578,-16.861 -127.34,-18.922 -127.34,-21.145C-127.183,-21.622 -127.101,-22.414 -127.101,-23.526C-128.849,-23.526 -131.307,-23.682 -134.48,-24.002C-131.307,-19.874 -129.165,-16.861 -128.053,-14.957M-72.833,-92.075C-69.025,-97.152 -66.09,-100.96 -64.026,-103.5C-67.043,-114.605 -72.833,-121.59 -81.402,-124.445C-83.942,-124.445 -90.09,-124.683 -99.848,-125.16C-109.607,-125.635 -117.58,-125.952 -123.769,-126.112L-128.053,-122.065C-131.706,-121.429 -135.038,-119.842 -138.051,-117.305C-138.526,-115.717 -137.853,-114.486 -136.027,-113.616C-134.204,-112.742 -131.386,-112.266 -127.578,-112.187C-123.769,-112.106 -120.318,-112.147 -117.224,-112.307C-114.129,-112.463 -110.362,-112.701 -105.918,-113.021C-103.381,-113.813 -99.491,-114.211 -94.255,-114.211L-99.491,-108.974C-100.919,-108.974 -104.809,-108.577 -111.154,-107.784C-112.426,-107.464 -113.772,-106.988 -115.2,-106.356C-116.948,-103.656 -118.533,-100.007 -119.961,-95.408C-115.361,-95.408 -110.522,-95.247 -105.442,-94.931C-100.365,-94.612 -94.493,-94.135 -87.828,-93.503C-81.164,-92.867 -76.166,-92.391 -72.833,-92.075M-129.481,-76.366C-128.53,-76.682 -127.898,-76.842 -127.578,-76.842C-127.101,-81.759 -126.309,-86.203 -125.197,-90.171C-130.433,-90.171 -135.038,-89.851 -139.002,-89.219C-136.146,-86.043 -132.974,-81.759 -129.481,-76.366M-149.951,-62.561C-150.587,-62.085 -151.142,-61.371 -151.617,-60.418C-144.952,-56.926 -137.02,-54.546 -127.815,-53.278C-127.975,-54.862 -128.053,-57.087 -128.053,-59.943C-129.642,-62.639 -131.861,-66.369 -134.718,-71.129C-139.954,-69.381 -144.715,-66.845 -148.999,-63.513L-149.951,-62.561ZM-158.282,-48.28C-152.093,-43.044 -146.225,-37.409 -140.669,-31.38C-136.704,-30.269 -132.181,-29.476 -127.101,-29C-127.101,-32.808 -127.261,-38.997 -127.578,-47.566C-138.21,-48.358 -147.493,-50.738 -155.425,-54.707C-156.537,-52.482 -157.489,-50.34 -158.282,-48.28M-129.958,-3.533C-133.134,-10.673 -138.448,-18.207 -145.905,-26.144C-151.301,-27.412 -156.14,-29.079 -160.424,-31.143C-160.107,-24.954 -158.245,-19.439 -154.83,-14.6C-151.42,-9.758 -148.047,-6.188 -144.715,-3.889C-141.382,-1.587 -136.782,1.15 -130.91,4.322C-130.91,3.53 -130.791,2.262 -130.553,0.514C-130.315,-1.23 -130.117,-2.58 -129.958,-3.533M-160.186,-40.187C-160.186,-39.711 -160.268,-39.313 -160.424,-38.997C-160.268,-38.997 -160.067,-38.915 -159.829,-38.759C-159.591,-38.599 -159.353,-38.439 -159.115,-38.283C-158.877,-38.123 -158.68,-38.045 -158.52,-38.045L-157.092,-37.331C-157.411,-37.647 -157.925,-38.123 -158.638,-38.759C-159.353,-39.391 -159.87,-39.868 -160.186,-40.187M-144.952,-68.035C-141.621,-70.416 -138.686,-72.238 -136.146,-73.509C-139.954,-79.062 -142.811,-82.711 -144.715,-84.459C-149.951,-89.695 -156.061,-93.106 -163.042,-94.693C-170.659,-80.252 -167.01,-68.988 -152.093,-60.895L-148.761,-64.227L-144.952,-68.035ZM-163.518,-43.044C-172.087,-50.34 -180.262,-56.451 -188.034,-61.371C-182.322,-53.754 -174.311,-47.008 -163.994,-41.139C-163.838,-41.455 -163.756,-41.812 -163.756,-42.211C-163.756,-42.604 -163.678,-42.883 -163.518,-43.044M-163.042,-94.693C-167.803,-95.645 -172.882,-95.883 -178.275,-95.408C-179.704,-87.471 -183.117,-78.984 -188.51,-69.939C-180.894,-65.811 -171.533,-59.147 -160.424,-49.946C-159.948,-50.578 -159.316,-51.493 -158.52,-52.683C-157.727,-53.873 -157.173,-54.784 -156.853,-55.42C-172.407,-63.513 -176.215,-74.856 -168.279,-89.457L-163.042,-94.693ZM-182.56,-94.693C-185.576,-94.217 -189.462,-93.183 -194.223,-91.599C-196.446,-85.251 -196.446,-78.825 -194.223,-72.319C-192.318,-71.684 -191.05,-71.207 -190.415,-70.891C-186.606,-78.188 -184.148,-85.329 -183.035,-92.313C-182.88,-92.629 -182.797,-93.027 -182.797,-93.503C-182.797,-93.98 -182.719,-94.373 -182.56,-94.693M-216.834,-81.84C-214.93,-80.728 -209.694,-78.426 -201.125,-74.938C-201.445,-80.331 -200.254,-85.489 -197.555,-90.409C-202.635,-88.661 -209.062,-85.805 -216.834,-81.84M-143.287,-112.544L-138.051,-117.781C-132.974,-122.542 -129.165,-125.398 -126.625,-126.35C-153.76,-126.982 -170.264,-125.792 -176.133,-122.78L-170.897,-128.016C-166.772,-130.236 -158.52,-131.467 -146.143,-131.705C-133.766,-131.943 -119.328,-131.664 -102.824,-130.872C-86.322,-130.076 -76.879,-129.682 -74.499,-129.682L-74.976,-129.206C-67.043,-126.03 -61.728,-119.525 -59.028,-109.689C-58.236,-110.48 -57.046,-111.831 -55.458,-113.735L-50.222,-118.971C-50.065,-118.971 -49.865,-119.127 -49.627,-119.447C-49.389,-119.763 -49.191,-119.923 -49.032,-119.923C-53.635,-127.54 -60.3,-133.33 -69.025,-137.299C-73.945,-139.359 -92.827,-139.954 -125.673,-139.084C-158.52,-138.21 -177.799,-136.662 -183.512,-134.443L-178.275,-139.679C-172.563,-141.899 -153.283,-143.446 -120.437,-144.32C-87.59,-145.191 -68.709,-144.596 -63.788,-142.535C-55.22,-138.567 -48.555,-132.695 -43.795,-124.922C-37.926,-130.158 -32.054,-133.966 -26.182,-136.346C-19.993,-138.883 -14.203,-139.559 -8.806,-138.369C-3.414,-137.179 1.15,-135.193 4.88,-132.419C8.606,-129.641 10.313,-125.714 9.997,-120.637C9.677,-115.557 6.903,-110.402 1.667,-105.166L-3.57,-99.93C-12.775,-93.106 -23.802,-88.821 -36.654,-87.077C-37.606,-79.776 -39.67,-72.952 -42.843,-66.607C-42.211,-66.607 -41.259,-66.525 -39.987,-66.369C-38.718,-66.209 -37.767,-66.131 -37.131,-66.131C-29.674,-65.495 -18.487,-65.179 -3.57,-65.179L-0.476,-65.179C0,-65.179 0.357,-65.097 0.595,-64.941C0.834,-64.781 0.952,-64.621 0.952,-64.465C0.952,-64.145 0.871,-63.87 0.714,-63.632C0.555,-63.394 0.394,-63.193 0.239,-63.037C0.078,-62.877 -0.119,-62.68 -0.356,-62.442C-0.595,-62.203 -0.796,-62.003 -0.951,-61.847L-6.188,-56.61C-7.3,-55.658 -8.449,-54.666 -9.639,-53.635C-10.829,-52.601 -12.18,-51.493 -13.686,-50.303C-15.195,-49.113 -16.423,-48.198 -17.375,-47.566L-12.139,-52.802C-11.346,-53.434 -10.079,-54.468 -8.331,-55.897C-6.586,-57.325 -5.236,-58.354 -4.284,-58.99L-4.284,-59.228C-4.284,-59.385 -4.403,-59.544 -4.641,-59.705C-4.879,-59.861 -5.236,-59.943 -5.712,-59.943L-8.806,-59.943C-23.724,-59.943 -34.91,-60.259 -42.367,-60.895C-42.687,-60.895 -43.241,-60.932 -44.033,-61.013C-44.829,-61.092 -45.461,-61.133 -45.937,-61.133C-48.161,-57.8 -49.745,-55.658 -50.697,-54.707L-53.315,-52.088C-46.019,-40.187 -47.288,-29.395 -57.124,-19.717L-62.36,-14.481C-76.325,-4.484 -90.528,-7.973 -104.966,-24.954C-110.046,-24.158 -115.836,-23.604 -122.341,-23.288C-122.661,-20.112 -123.453,-15.195 -124.721,-8.531C-121.708,-1.866 -120.757,4.084 -121.865,9.32C-115.997,12.813 -112.426,16.543 -111.154,20.508C-110.998,21.143 -110.879,21.816 -110.797,22.531C-110.719,23.244 -110.76,24 -110.916,24.792C-111.076,25.587 -111.273,26.257 -111.511,26.815C-111.749,27.369 -112.106,28.042 -112.582,28.838C-113.059,29.63 -113.456,30.266 -113.772,30.742C-114.092,31.219 -114.605,31.851 -115.319,32.647C-116.034,33.438 -116.551,33.992 -116.867,34.312C-117.187,34.628 -117.7,35.183 -118.414,35.979C-119.128,36.771 -119.567,37.247 -119.723,37.407L-123.769,41.215C-122.977,40.419 -122.423,39.865 -122.103,39.549C-121.787,39.229 -121.27,38.675 -120.556,37.883C-119.842,37.087 -119.328,36.455 -119.009,35.979C-118.693,35.502 -118.295,34.866 -117.819,34.075C-117.342,33.279 -116.985,32.605 -116.747,32.052C-116.51,31.494 -116.313,30.82 -116.152,30.029C-115.997,29.232 -115.956,28.481 -116.034,27.767C-116.115,27.053 -116.235,26.376 -116.39,25.744C-117.503,22.411 -120.359,19.161 -124.96,15.985C-125.119,16.145 -125.357,16.461 -125.673,16.938L-130.91,22.174C-131.386,18.841 -131.624,15.431 -131.624,11.939C-132.1,11.783 -133.766,10.909 -136.622,9.32C-139.478,7.736 -141.264,6.702 -141.977,6.227C-142.692,5.75 -144.32,4.761 -146.857,3.251C-149.397,1.745 -151.142,0.514 -152.093,-0.438C-153.045,-1.39 -154.473,-2.736 -156.378,-4.484C-158.282,-6.229 -159.632,-7.854 -160.424,-9.364C-161.22,-10.87 -162.131,-12.696 -163.161,-14.839C-164.195,-16.98 -164.909,-19.201 -165.303,-21.503C-165.702,-23.801 -165.898,-26.3 -165.898,-29C-165.898,-29.632 -165.861,-30.465 -165.779,-31.5C-165.702,-32.529 -165.66,-33.285 -165.66,-33.761C-179.785,-41.693 -189.7,-50.184 -195.413,-59.228C-200.017,-52.72 -207.432,-43.598 -217.667,-31.856C-227.902,-20.112 -233.097,-14.083 -233.258,-13.767L-238.494,-8.531C-235.794,-11.703 -231.391,-16.779 -225.284,-23.764C-219.177,-30.744 -213.703,-37.212 -208.861,-43.162C-204.022,-49.113 -199.857,-54.862 -196.365,-60.418C-196.841,-61.211 -197.874,-63.431 -199.459,-67.083C-200.571,-67.559 -202.516,-68.352 -205.291,-69.463C-208.068,-70.571 -210.33,-71.486 -212.074,-72.201C-213.822,-72.914 -215.726,-73.707 -217.787,-74.581C-219.851,-75.451 -221.397,-76.206 -222.428,-76.842C-223.461,-77.474 -223.897,-78.032 -223.737,-78.508L-218.5,-83.744C-208.347,-88.821 -200.493,-92.469 -194.936,-94.693C-194.781,-94.85 -194.698,-95.009 -194.698,-95.17L-189.462,-100.406C-190.574,-98.978 -191.526,-97.389 -192.318,-95.645C-189.462,-96.598 -186.212,-97.627 -182.56,-98.74C-182.88,-108.261 -186.606,-116.074 -193.746,-122.185C-200.887,-128.291 -208.425,-128.808 -216.358,-123.732C-216.994,-122.78 -217.392,-121.47 -217.548,-119.804C-217.708,-118.138 -217.708,-116.747 -217.548,-115.639L-217.548,-113.735L-222.785,-108.499C-223.421,-111.671 -223.539,-113.972 -223.142,-115.401C-222.748,-116.829 -221.595,-118.811 -219.69,-121.352L-214.454,-126.588C-207.789,-131.664 -201.601,-133.29 -195.888,-131.467C-190.176,-129.641 -185.498,-125.635 -181.845,-119.447C-178.197,-113.259 -176.691,-106.751 -177.324,-99.93C-162.09,-102.626 -149.713,-99.453 -140.192,-90.409L-136.622,-94.217C-130.91,-94.85 -126.547,-95.17 -123.531,-95.17C-121.627,-99.134 -119.723,-102.31 -117.819,-104.69L-114.962,-107.546C-118.931,-107.226 -122.501,-107.029 -125.673,-106.951C-128.849,-106.869 -131.981,-106.91 -135.075,-107.071C-138.169,-107.226 -140.471,-107.784 -141.977,-108.736C-143.487,-109.689 -143.923,-110.957 -143.287,-112.544" style="fill-rule:nonzero;"/>
        </g>
    </g>
</svg>
