<?xml version="1.0" encoding="UTF-8" standalone="no"?>
<!DOCTYPE svg PUBLIC "-//W3C//DTD SVG 1.1//EN" "http://www.w3.org/Graphics/SVG/1.1/DTD/svg11.dtd">
<svg width="100%" height="100%" viewBox="0 0 712 674" version="1.1" xmlns="http://www.w3.org/2000/svg" xmlns:xlink="http://www.w3.org/1999/xlink" xml:space="preserve" xmlns:serif="http://www.serif.com/" style="fill-rule:evenodd;clip-rule:evenodd;stroke-linejoin:round;stroke-miterlimit:2;">
    <g transform="matrix(1,0,0,1,-5264,-401)">
        <g transform="matrix(4.16667,0,0,4.16667,5926.75,818.437)">
            <path d="M0,-38.083C2.298,-32.289 1.071,-25.903 -3.689,-18.922C-8.293,-15.271 -12.815,-12.812 -17.256,-11.544C-22.492,-16.781 -28.525,-19.793 -35.345,-20.589C-40.426,-21.065 -45.739,-20.905 -51.293,-20.112C-55.576,-23.285 -59.704,-26.695 -63.67,-30.347C-64.781,-31.455 -65.971,-32.645 -67.24,-33.918C-68.512,-35.186 -69.939,-36.614 -71.525,-38.202C-73.111,-39.786 -74.302,-40.976 -75.095,-41.773C-70.019,-45.42 -65.655,-49.229 -62.004,-53.197L-61.527,-53.673C-66.924,-48.753 -71.605,-44.945 -75.571,-42.248C-83.983,-50.657 -89.613,-56.054 -92.469,-58.434C-86.757,-60.814 -80.966,-64.064 -75.095,-68.192C-69.857,-64.384 -64.228,-60.814 -58.195,-57.482L-58.909,-56.767C-59.704,-55.972 -60.259,-55.376 -60.575,-54.982C-60.894,-54.585 -61.211,-54.149 -61.527,-53.673L-58.434,-56.767L-57.956,-57.244C-51.612,-53.751 -45.818,-51.293 -40.582,-49.865C-46.294,-46.533 -53.993,-40.025 -63.67,-30.347C-53.993,-40.025 -45.502,-46.373 -38.202,-49.389C-30.109,-47.484 -22.099,-47.879 -14.162,-50.579C-7.021,-48.039 -2.301,-43.874 0,-38.083M-47.246,-17.256C-43.598,-17.256 -40.819,-17.174 -38.915,-17.019C-33.522,-16.542 -28.365,-14.318 -23.444,-10.354C-30.905,-9.718 -38.837,-12.02 -47.246,-17.256M-18.922,9.878C-25.271,14.798 -32.571,16.781 -40.819,15.828C-47.168,15.196 -52.959,12.578 -58.195,7.973C-63.431,3.373 -68.828,-2.816 -74.381,-10.592C-67.716,-13.764 -61.211,-15.746 -54.863,-16.542C-42.806,-7.654 -31.458,-4.798 -20.826,-7.974C-15.274,-1.785 -14.637,4.165 -18.922,9.878M-54.505,24.754C-52.048,28.008 -50.935,31.697 -51.174,35.822C-51.411,39.95 -52.72,43.758 -55.1,47.246C-60.182,51.375 -65.574,54.309 -71.286,56.053C-76.998,57.801 -82.316,58.355 -87.233,57.719C-92.153,57.087 -96.517,55.38 -100.324,52.602C-104.133,49.827 -106.832,46.294 -108.417,42.01C-110.004,37.726 -110.046,32.411 -108.535,26.063C-107.029,19.719 -103.817,12.972 -98.897,5.831L-96.992,3.927L-96.517,3.213C-91.44,-0.911 -85.567,-4.798 -78.902,-8.45C-71.605,2.023 -65.097,9.324 -59.385,13.448C-62.878,11.388 -67.24,10.674 -72.476,11.306C-78.349,12.258 -83.983,15.434 -89.376,20.826L-90.328,22.017C-85.727,18.052 -80.966,15.709 -76.046,14.995C-71.13,14.281 -66.924,14.917 -63.431,16.899C-59.943,18.885 -56.968,21.504 -54.505,24.754M-90.328,-32.49C-86.68,-34.074 -82.948,-36.138 -79.141,-38.678C-72.476,-32.013 -68.43,-28.045 -67.001,-26.777C-65.893,-25.825 -64.347,-24.434 -62.36,-22.612C-60.378,-20.786 -58.909,-19.477 -57.956,-18.684C-63.67,-17.256 -69.464,-15.033 -75.332,-12.02C-75.653,-12.496 -76.166,-13.21 -76.88,-14.162C-77.593,-15.114 -78.11,-15.828 -78.427,-16.304C-75.414,-18.684 -72.238,-21.541 -68.906,-24.873L-68.191,-25.587C-73.427,-21.143 -76.998,-18.287 -78.902,-17.019C-83.983,-24.315 -87.791,-29.473 -90.328,-32.49M-114.605,-6.546C-122.858,-6.862 -129.76,-9.599 -135.312,-14.757C-140.869,-19.912 -141.661,-25.744 -137.693,-32.252C-133.409,-30.027 -128.649,-28.521 -123.411,-27.729C-113.736,-26.301 -104.37,-27.253 -95.326,-30.585C-92.469,-27.409 -88.346,-22.017 -82.948,-14.401C-92.946,-8.528 -103.501,-5.909 -114.605,-6.546M-96.992,-32.49C-104.292,-30.585 -111.909,-30.188 -119.841,-31.3C-125.398,-32.091 -130.236,-33.598 -134.361,-35.822C-120.876,-45.659 -108.417,-44.546 -96.992,-32.49M-147.095,-46.771C-149.713,-51.055 -149.914,-55.577 -147.69,-60.338C-142.774,-57.637 -137.538,-55.655 -131.981,-54.387C-121.031,-51.687 -109.608,-52.401 -97.707,-56.529C-92.946,-52.561 -87.076,-46.927 -80.092,-39.63C-84.377,-37.25 -88.267,-35.424 -91.756,-34.156C-95.884,-38.756 -99.848,-42.048 -103.657,-44.033C-107.464,-46.015 -111.988,-46.57 -117.224,-45.699C-122.46,-44.825 -128.017,-41.928 -133.885,-37.012L-134.837,-36.06C-140.393,-38.916 -144.477,-42.486 -147.095,-46.771M-99.848,-58.195C-110.004,-55.815 -119.525,-55.734 -128.41,-57.957C-134.443,-59.226 -139.995,-61.446 -145.072,-64.622C-131.587,-73.666 -116.51,-71.525 -99.848,-58.195M-151.498,-89.614C-148.802,-91.518 -146.105,-93.065 -143.406,-94.255C-140.709,-95.445 -137.894,-96.077 -134.956,-96.16C-132.021,-96.238 -129.404,-96.278 -127.101,-96.278C-124.803,-96.278 -121.905,-95.565 -118.414,-94.137C-114.926,-92.708 -112.225,-91.637 -110.32,-90.923C-108.417,-90.209 -105.523,-88.621 -101.633,-86.162C-97.747,-83.701 -95.01,-81.916 -93.422,-80.807C-91.837,-79.695 -88.899,-77.631 -84.616,-74.619C-80.331,-71.602 -77.475,-69.62 -76.046,-68.668C-81.919,-65.017 -87.947,-62.16 -94.136,-60.1C-99.692,-64.86 -104.847,-68.389 -109.608,-70.691C-114.368,-72.99 -119.644,-74.024 -125.435,-73.786C-131.229,-73.548 -136.901,-71.443 -142.453,-67.478L-145.31,-64.622C-156.258,-71.763 -158.322,-80.093 -151.498,-89.614M-20.112,-52.007C-22.812,-51.531 -25.508,-51.531 -28.204,-52.007C-25.348,-52.163 -22.652,-52.163 -20.112,-52.007M6.546,-64.384C12.259,-70.412 13.248,-76.166 9.521,-81.641C5.791,-87.115 -0.04,-89.692 -7.973,-89.376C-13.054,-89.056 -18.25,-87.591 -23.563,-84.972C-28.881,-82.354 -33.047,-79.893 -36.059,-77.594C-39.076,-75.292 -43.282,-71.841 -48.674,-67.24L-52.245,-63.67C-52.404,-63.51 -52.643,-63.194 -52.959,-62.718L-50.579,-65.098C-45.818,-69.222 -41.813,-72.476 -38.559,-74.856C-35.307,-77.237 -31.179,-79.577 -26.182,-81.878C-21.183,-84.177 -16.303,-85.486 -11.543,-85.806C-4.247,-86.122 1.347,-83.86 5.236,-79.022C9.123,-74.18 9.005,-68.825 4.88,-62.956C-0.2,-58.827 -5.355,-55.893 -10.591,-54.149C-14.876,-55.577 -19.557,-56.054 -24.634,-55.577C-27.967,-55.101 -31.299,-54.227 -34.632,-52.959C-40.819,-54.227 -47.484,-56.846 -54.625,-60.814C-59.545,-63.51 -65.02,-67.002 -71.047,-71.286C-70.892,-71.286 -70.654,-71.443 -70.335,-71.763L-66.764,-75.333C-65.971,-76.125 -64.942,-77.475 -63.67,-79.379L-62.48,-80.569C-60.894,-83.265 -59.664,-86.319 -58.79,-89.733C-58.508,-90.838 -58.294,-91.943 -58.111,-93.049C-59.172,-91.974 -60.292,-90.962 -61.59,-90.104C-61.785,-88.785 -62.027,-87.47 -62.36,-86.162C-63.234,-82.749 -64.465,-79.695 -66.05,-76.999L-67.24,-75.809C-67.875,-74.856 -68.351,-74.221 -68.667,-73.905C-68.988,-73.585 -69.464,-73.191 -70.096,-72.715C-70.731,-72.238 -71.208,-71.841 -71.525,-71.525C-73.273,-72.633 -76.248,-74.697 -80.45,-77.713C-84.656,-80.726 -87.709,-82.868 -89.613,-84.139C-91.518,-85.408 -94.374,-87.271 -98.182,-89.733C-101.99,-92.191 -105.007,-93.858 -107.227,-94.732C-109.451,-95.602 -112.267,-96.714 -115.676,-98.063C-119.091,-99.41 -122.066,-100.087 -124.602,-100.087C-127.143,-100.087 -129.92,-99.927 -132.932,-99.611C-135.949,-99.291 -138.883,-98.458 -141.74,-97.112C-144.596,-95.761 -147.374,-93.898 -150.071,-91.518L-153.641,-87.947C-162.052,-77.631 -160.386,-68.668 -148.642,-61.052C-151.819,-57.244 -153.164,-53.472 -152.688,-49.746C-152.212,-46.015 -150.746,-42.724 -148.286,-39.868C-145.826,-37.012 -142.535,-34.55 -138.407,-32.49C-144.439,-24.713 -144.875,-17.971 -139.716,-12.258C-134.562,-6.546 -127.38,-3.451 -118.175,-2.975C-105.323,-2.339 -93.422,-5.831 -82.473,-13.448C-82.156,-13.128 -81.681,-12.533 -81.045,-11.663C-80.413,-10.789 -79.936,-10.116 -79.617,-9.64C-85.328,-6.308 -90.566,-2.5 -95.326,1.785L-98.897,5.355C-99.056,5.675 -99.335,6.07 -99.729,6.545C-100.127,7.021 -100.406,7.341 -100.563,7.498L-102.467,9.401C-108.498,17.971 -111.988,25.985 -112.939,33.442C-113.891,40.902 -112.623,46.733 -109.13,50.936C-105.642,55.142 -101.158,58.195 -95.683,60.099C-90.208,62.004 -83.901,62.004 -76.761,60.099C-69.62,58.195 -63.038,54.625 -57.005,49.389L-53.435,45.818C-48.674,40.582 -46.812,34.988 -47.841,29.038C-48.876,23.087 -52.006,18.368 -57.244,14.876C-52.802,17.416 -48.518,18.922 -44.39,19.399C-35.506,20.351 -27.651,17.971 -20.826,12.258L-17.256,8.688C-11.388,2.819 -10.99,-3.37 -16.066,-9.878C-12.733,-11.462 -9.085,-13.843 -5.117,-17.019L-1.546,-20.589C3.846,-27.569 5.751,-33.996 4.165,-39.868C2.577,-45.736 -1.546,-50.181 -8.211,-53.197C-4.402,-55.101 -0.677,-57.637 2.975,-60.814L6.546,-64.384Z" style="fill-rule:nonzero;"/>
        </g>
    </g>
</svg>
