<?xml version="1.0" encoding="UTF-8" standalone="no"?>
<!DOCTYPE svg PUBLIC "-//W3C//DTD SVG 1.1//EN" "http://www.w3.org/Graphics/SVG/1.1/DTD/svg11.dtd">
<svg width="100%" height="100%" viewBox="0 0 976 696" version="1.1" xmlns="http://www.w3.org/2000/svg" xmlns:xlink="http://www.w3.org/1999/xlink" xml:space="preserve" xmlns:serif="http://www.serif.com/" style="fill-rule:evenodd;clip-rule:evenodd;stroke-linejoin:round;stroke-miterlimit:2;">
    <g transform="matrix(1,0,0,1,-5658,-1571)">
        <g transform="matrix(4.16667,0,0,4.16667,6386.44,2070.68)">
            <path d="M0,-73.112C-2.701,-71.048 -5.278,-69.501 -7.736,-68.471C-10.198,-67.437 -12.418,-66.842 -14.4,-66.686C-16.387,-66.526 -18.488,-66.961 -20.709,-67.995C-22.932,-69.025 -24.718,-70.018 -26.064,-70.97C-27.414,-71.922 -29.157,-73.626 -31.3,-76.087C-33.442,-78.546 -35.03,-80.491 -36.061,-81.919C-37.094,-83.347 -38.678,-85.608 -40.821,-88.703C-42.963,-91.797 -44.511,-93.976 -45.462,-95.248C-48.639,-93.66 -51.412,-91.994 -53.793,-90.25C-55.697,-87.393 -56.969,-85.252 -57.602,-83.823C-55.541,-80.807 -53.041,-76.88 -50.103,-72.041C-47.17,-67.199 -44.748,-63.235 -42.843,-60.14C-40.94,-57.046 -38.6,-53.911 -35.822,-50.739C-33.048,-47.562 -30.467,-45.342 -28.086,-44.074C-25.706,-42.802 -22.891,-42.326 -19.636,-42.646C-16.387,-42.962 -13.014,-44.469 -9.521,-47.169L-5.238,-52.167L1.427,-58.831C0.476,-57.879 -0.916,-56.332 -2.738,-54.19C-4.564,-52.048 -5.95,-50.419 -6.903,-49.31L-13.568,-42.646C-16.743,-39.789 -19.719,-37.766 -22.494,-36.576C-25.271,-35.386 -27.93,-35.148 -30.467,-35.863C-33.006,-36.576 -35.227,-37.529 -37.131,-38.719C-39.036,-39.909 -41.177,-42.051 -43.558,-45.145C-45.938,-48.239 -47.883,-50.936 -49.389,-53.238C-50.9,-55.536 -52.922,-58.831 -55.458,-63.116C-57.998,-67.4 -60.062,-70.732 -61.648,-73.112C-63.396,-66.288 -64.265,-58.512 -64.265,-49.787C-56.173,-42.646 -49.352,-37.012 -43.796,-32.888C-38.244,-28.759 -31.144,-24.832 -22.494,-21.105C-13.847,-17.375 -5.397,-15.512 2.856,-15.512C16.977,-15.512 30.068,-20.272 42.129,-29.793C47.997,-37.409 51.411,-45.026 52.364,-52.643C53.315,-60.26 52.125,-66.924 48.794,-72.636C45.461,-78.349 40.779,-83.622 34.75,-88.465C28.717,-93.303 21.659,-96.795 13.567,-98.938C5.473,-101.079 -2.857,-102.389 -11.425,-102.864C-19.994,-103.341 -28.407,-102.069 -36.656,-99.056C-29.199,-88.264 -23.884,-81.521 -20.709,-78.825C-12.936,-72.161 -4.605,-71.922 4.283,-78.111C7.616,-82.235 9.837,-85.013 10.948,-86.442L17.613,-93.106C14.436,-88.822 10.788,-84.378 6.663,-79.777L0,-73.112ZM-81.403,-108.339C-81.879,-107.067 -82.116,-105.959 -82.116,-105.007C-73.868,-102.151 -66.169,-95.642 -59.029,-85.489C-58.872,-85.645 -58.635,-85.924 -58.314,-86.322C-57.998,-86.717 -57.761,-86.996 -57.602,-87.155L-50.937,-93.82C-49.032,-95.405 -47.604,-96.516 -46.652,-97.152C-49.352,-100.8 -51.811,-103.698 -54.031,-105.839C-56.255,-107.982 -58.792,-109.845 -61.648,-111.434C-64.504,-113.017 -67.598,-113.535 -70.93,-112.98C-74.263,-112.422 -77.754,-110.876 -81.403,-108.339M-79.736,-93.582L-82.594,-90.726C-86.722,-92.786 -88.781,-95.326 -88.781,-98.343C-92.114,-99.294 -95.528,-99.771 -99.016,-99.771C-107.108,-99.771 -114.171,-97.706 -120.199,-93.582C-121.947,-91.202 -122.186,-88.186 -120.913,-84.537L-121.866,-83.585C-113.457,-83.265 -105.405,-80.729 -97.707,-75.969C-90.013,-71.208 -80.926,-64.224 -70.454,-55.023C-69.346,-63.907 -67.282,-71.287 -64.265,-77.159C-69.346,-84.299 -74.5,-89.773 -79.736,-93.582M-147.571,-16.464L-154.236,-9.799C-162.805,-11.86 -168.677,-16.345 -171.85,-23.247C-175.025,-30.15 -175.538,-37.529 -173.397,-45.384C-171.255,-53.238 -167.327,-59.94 -161.615,-65.496L-154.95,-72.161C-146.065,-78.665 -137.181,-82.395 -128.293,-83.347C-128.136,-84.932 -126.47,-87.471 -123.294,-90.963L-116.629,-97.628C-109.809,-103.497 -101.716,-106.435 -92.351,-106.435C-89.815,-106.435 -87.354,-106.197 -84.974,-105.721L-78.546,-111.909C-74.106,-115.717 -69.941,-118.135 -66.05,-119.169C-62.164,-120.199 -58.593,-119.883 -55.339,-118.217C-52.09,-116.55 -49.271,-114.486 -46.891,-112.029C-44.511,-109.566 -41.814,-106.197 -38.797,-101.913C-29.12,-106.829 -18.369,-109.41 -6.546,-109.648C5.273,-109.886 15.984,-107.863 25.587,-103.579C35.185,-99.294 43.277,-93.82 49.865,-87.155C56.447,-80.491 59.582,-72.279 59.266,-62.521C58.947,-52.762 54.423,-42.884 45.699,-32.888L39.034,-26.223C26.182,-14.638 11.901,-8.847 -3.809,-8.847C-14.442,-8.847 -24.439,-11.306 -33.8,-16.226C-43.164,-21.142 -53.078,-27.967 -63.552,-36.696C-63.075,-31.14 -62.164,-23.76 -60.814,-14.56C-59.467,-5.355 -58.434,2.064 -57.719,7.695C-57.007,13.329 -56.808,19.28 -57.124,25.546C-57.445,31.817 -58.713,36.774 -60.933,40.422L-67.598,47.087C-65.061,42.962 -63.712,37.25 -63.552,29.949C-63.396,22.653 -63.908,15.43 -65.099,8.29C-66.289,1.149 -67.561,-7.419 -68.907,-17.416C-70.257,-27.413 -70.93,-35.981 -70.93,-43.122C-86.007,-56.132 -96.636,-64.544 -102.825,-68.352C-120.438,-78.825 -137.497,-79.457 -153.999,-70.256C-155.747,-69.304 -157.49,-68.27 -159.235,-67.162C-163.52,-61.13 -166.256,-54.625 -167.446,-47.644C-168.636,-40.66 -167.606,-34.155 -164.352,-28.127C-161.102,-22.095 -155.508,-18.208 -147.571,-16.464" style="fill-rule:nonzero;"/>
        </g>
    </g>
</svg>
