<?xml version="1.0" encoding="UTF-8" standalone="no"?>
<!DOCTYPE svg PUBLIC "-//W3C//DTD SVG 1.1//EN" "http://www.w3.org/Graphics/SVG/1.1/DTD/svg11.dtd">
<svg width="100%" height="100%" viewBox="0 0 739 230" version="1.1" xmlns="http://www.w3.org/2000/svg" xmlns:xlink="http://www.w3.org/1999/xlink" xml:space="preserve" xmlns:serif="http://www.serif.com/" style="fill-rule:evenodd;clip-rule:evenodd;stroke-linejoin:round;stroke-miterlimit:2;">
    <g transform="matrix(1,0,0,1,-4420,-664)">
        <g transform="matrix(4.16667,0,0,4.16667,5141.79,740.086)">
            <path d="M0,18.447L-1.429,19.875C-2.38,20.671 -3.89,22.017 -5.95,23.922L-3.57,21.304C-1.666,19.719 -0.476,18.767 0,18.447M-57.6,4.88C-57.76,5.04 -58.195,5.557 -58.91,6.428C-59.624,7.301 -60.141,7.974 -60.457,8.451C-52.684,7.974 -47.447,7.498 -44.748,7.023L-47.366,9.641C-50.698,10.277 -55.458,10.674 -61.647,10.831L-61.647,12.497C-61.49,12.973 -60.932,13.371 -59.98,13.687C-56.333,14.007 -53.041,14.044 -50.103,13.806C-47.168,13.568 -41.772,13.054 -33.918,12.259C-26.063,11.467 -20.154,10.912 -16.186,10.593C-15.553,5.04 -17.219,0.637 -21.184,-2.617C-25.151,-5.868 -30.548,-6.939 -37.369,-5.831C-44.193,-4.719 -50.936,-1.148 -57.6,4.88M-27.134,29.158L-26.182,28.206C-25.706,27.889 -25.39,27.652 -25.23,27.492C-25.074,27.335 -24.835,27.098 -24.516,26.778C-23.407,25.67 -22.374,24.397 -21.422,22.969C-25.55,23.289 -27.848,23.445 -28.324,23.445L-39.392,23.445C-46.139,23.445 -51.017,23.843 -54.03,24.635L-52.602,25.112L-54.982,27.73C-56.57,26.938 -57.362,26.462 -57.362,26.302C-57.523,26.145 -57.362,25.825 -56.886,25.35L-54.506,22.969C-52.286,22.017 -49.548,21.422 -46.294,21.184C-43.044,20.947 -39.116,20.868 -34.513,20.947C-29.912,21.028 -27.056,21.065 -25.944,21.065C-24.676,20.749 -22.612,20.589 -19.756,20.589C-18.171,17.577 -17.137,15.037 -16.661,12.973C-20.47,13.292 -26.539,13.887 -34.87,14.758C-43.2,15.632 -48.913,16.149 -52.007,16.305C-55.101,16.465 -58.634,16.387 -62.599,16.067C-63.551,15.751 -64.108,15.435 -64.265,15.115C-64.425,14.163 -63.949,12.817 -62.837,11.069C-63.633,11.069 -64.823,11.11 -66.407,11.188C-67.995,11.269 -69.185,11.306 -69.978,11.306C-70.773,13.371 -71.725,15.513 -72.833,17.733C-72.678,17.893 -72.476,18.053 -72.238,18.209C-72,18.369 -71.804,18.566 -71.643,18.804C-71.488,19.042 -71.327,19.243 -71.168,19.399C-68.311,19.399 -66.645,19.637 -66.169,20.114C-65.693,20.749 -66.013,21.623 -67.121,22.732C-63.157,26.383 -59.624,29.121 -56.529,30.943C-53.435,32.769 -49.232,33.762 -43.914,33.918C-38.6,34.079 -33.006,32.49 -27.134,29.158M-76.88,19.161C-82.592,14.561 -87.591,13.769 -91.875,16.781C-92.511,17.577 -92.827,18.529 -92.827,19.637C-85.846,19.321 -80.532,19.161 -76.88,19.161M-90.923,23.445L-93.303,25.825C-94.575,24.558 -95.207,23.368 -95.207,22.255C-102.507,22.891 -106.632,23.445 -107.584,23.922L-104.966,21.304C-104.174,20.827 -100.763,20.351 -94.732,19.875C-94.575,19.399 -94.017,18.685 -93.065,17.733L-90.447,15.115C-85.687,11.151 -80.134,11.783 -73.786,17.019C-72.833,15.115 -72.12,13.211 -71.643,11.306C-96.081,12.259 -110.761,11.151 -115.677,7.974C-118.853,5.914 -118.771,2.66 -115.439,-1.785L-113.297,-3.927C-116.313,0.517 -116.234,3.69 -113.059,5.594C-108.142,8.451 -94.177,9.562 -71.168,8.926C-70.375,3.85 -70.97,-0.75 -72.953,-4.878C-74.939,-9.003 -77.794,-12.019 -81.521,-13.923C-85.251,-15.828 -89.971,-16.025 -95.683,-14.518C-101.396,-13.008 -107.268,-9.479 -113.297,-3.927L-112.821,-4.403C-106.476,-10.747 -100.168,-14.876 -93.898,-16.779C-87.631,-18.684 -82.555,-18.564 -78.665,-16.423C-74.779,-14.281 -71.881,-10.907 -69.978,-6.307C-68.073,-1.702 -67.835,3.374 -69.263,8.926C-68.311,8.926 -66.924,8.889 -65.098,8.808C-63.276,8.729 -61.885,8.61 -60.932,8.451C-60.616,8.134 -60.3,7.658 -59.98,7.023L-57.362,4.404C-50.066,-2.737 -42.687,-6.98 -35.227,-8.33C-27.77,-9.676 -22.017,-8.449 -17.971,-4.64C-13.925,-0.832 -12.615,4.166 -14.042,10.354C-3.57,9.562 2.38,9.878 3.809,11.306C4.601,12.102 3.727,14.085 1.19,17.257L0,18.447C1.745,16.387 2.141,14.877 1.19,13.924C-0.082,12.657 -5.396,12.259 -14.757,12.734C-16.029,15.751 -17.376,18.291 -18.803,20.351C-12.775,20.035 -9.603,20.351 -9.282,21.304C-8.806,21.939 -9.364,23.052 -10.949,24.635L-13.33,27.015C-12.061,25.271 -11.507,24.242 -11.662,23.922C-11.983,22.969 -14.995,22.653 -20.707,22.969C-21.184,23.445 -21.779,24.081 -22.492,24.874C-23.207,25.67 -23.724,26.224 -24.04,26.54L-26.658,29.158C-27.134,29.478 -27.848,30.032 -28.8,30.824L-29.514,31.538C-34.118,34.079 -38.403,35.703 -42.368,36.418C-46.335,37.131 -50.025,36.856 -53.435,35.585C-56.849,34.316 -59.664,32.929 -61.885,31.419C-64.108,29.913 -66.727,27.889 -69.74,25.35C-70.215,25.034 -70.893,24.48 -71.763,23.684C-72.637,22.891 -73.232,22.255 -73.548,21.779L-75.69,21.779C-77.278,23.684 -78.546,25.112 -79.498,26.064L-80.212,26.778C-79.26,25.67 -77.992,24.003 -76.404,21.779C-83.068,21.779 -88.226,21.862 -91.875,22.017C-91.719,22.178 -91.559,22.416 -91.399,22.732C-91.243,23.052 -91.083,23.289 -90.923,23.445M-80.212,26.778L-82.116,28.682C-88.941,34.714 -96.16,36.775 -103.776,34.87C-108.06,33.762 -112.147,31.382 -116.034,27.73C-119.924,24.081 -123.096,20.076 -125.555,15.71C-128.017,11.348 -130.713,7.023 -133.647,2.738C-136.585,-1.547 -139.441,-4.998 -142.216,-7.616C-144.994,-10.234 -148.445,-11.461 -152.569,-11.305C-156.698,-11.145 -161.298,-9.003 -166.375,-4.878C-170.183,-0.118 -171.373,5.319 -169.945,11.426C-168.517,17.536 -164.552,21.065 -158.044,22.017L-160.424,24.635C-167.249,23.527 -171.295,19.678 -172.563,13.092C-173.835,6.509 -172.325,0.994 -168.041,-3.45L-165.423,-6.068C-160.187,-10.669 -155.389,-13.209 -151.022,-13.685C-146.66,-14.161 -143.049,-13.128 -140.193,-10.591C-137.336,-8.051 -134.402,-4.64 -131.386,-0.357C-128.373,3.928 -125.637,8.294 -123.174,12.734C-120.716,17.179 -117.544,21.266 -113.654,24.992C-109.767,28.723 -105.602,31.144 -101.158,32.252C-94.017,34.156 -87.036,32.334 -80.212,26.778" style="fill-rule:nonzero;"/>
        </g>
    </g>
</svg>
