<?xml version="1.0" encoding="UTF-8" standalone="no"?>
<!DOCTYPE svg PUBLIC "-//W3C//DTD SVG 1.1//EN" "http://www.w3.org/Graphics/SVG/1.1/DTD/svg11.dtd">
<svg width="100%" height="100%" viewBox="0 0 987 602" version="1.1" xmlns="http://www.w3.org/2000/svg" xmlns:xlink="http://www.w3.org/1999/xlink" xml:space="preserve" xmlns:serif="http://www.serif.com/" style="fill-rule:evenodd;clip-rule:evenodd;stroke-linejoin:round;stroke-miterlimit:2;">
    <g transform="matrix(1,0,0,1,-1293,-1628)">
        <g transform="matrix(4.16667,0,0,4.16667,2020.83,2124.75)">
            <path d="M0,-93.467C11.741,-87.278 19.674,-78.389 23.802,-66.808C27.926,-55.224 26.658,-43.163 19.993,-30.63C26.974,-32.374 33.955,-35.944 40.939,-41.341C46.491,-48.161 50.538,-54.588 53.078,-60.62C56.09,-68.236 57.005,-76.05 55.815,-84.065C54.625,-92.075 51.806,-98.584 47.365,-103.583C42.921,-108.581 37.368,-111.712 30.704,-112.984C24.04,-114.253 16.739,-111.951 8.806,-106.082C5.63,-101.953 2.696,-97.751 0,-93.467M-5.713,-87.754C-24.914,-97.751 -45.223,-96.639 -66.645,-84.422C-64.585,-82.358 -60.26,-77.955 -53.673,-71.212C-47.091,-64.465 -42.409,-59.746 -39.63,-57.05C-36.856,-54.35 -32.572,-50.583 -26.777,-45.744C-20.987,-40.902 -16.148,-37.533 -12.258,-35.628C-8.372,-33.724 -3.772,-32.095 1.546,-30.749C6.862,-29.399 11.978,-29.12 16.899,-29.916C21.499,-41.497 21.618,-52.527 17.256,-63C12.89,-73.473 5.393,-81.566 -5.237,-87.278L-7.141,-85.374C-6.985,-85.69 -6.747,-86.088 -6.427,-86.564C-6.111,-87.04 -5.873,-87.434 -5.713,-87.754M-79.498,-75.377C-82.674,-71.569 -84.973,-68.631 -86.401,-66.571C-83.864,-63.554 -80.294,-58.954 -75.69,-52.765C-71.089,-46.577 -67.203,-41.579 -64.027,-37.771C-60.855,-33.962 -56.969,-29.558 -52.364,-24.56C-47.764,-19.562 -43.361,-15.91 -39.154,-13.612C-34.952,-11.31 -30.27,-9.446 -25.111,-8.018C-19.957,-6.59 -14.52,-6.668 -8.807,-8.256C-3.095,-9.841 2.774,-12.779 8.806,-17.063C10.234,-18.807 12.057,-21.425 14.281,-24.917C11.265,-24.122 8.17,-23.765 4.998,-23.847C1.822,-23.924 -1.113,-24.163 -3.809,-24.56C-6.508,-24.955 -9.484,-25.948 -12.735,-27.535C-15.989,-29.12 -18.725,-30.47 -20.946,-31.582C-23.17,-32.69 -25.985,-34.635 -29.396,-37.413C-32.81,-40.188 -35.465,-42.33 -37.369,-43.84C-39.273,-45.346 -42.051,-47.886 -45.7,-51.457C-49.352,-55.027 -51.97,-57.604 -53.554,-59.192C-55.142,-60.777 -57.839,-63.554 -61.647,-67.523C-67.043,-73.075 -71.089,-77.199 -73.786,-79.899C-76.326,-77.996 -78.23,-76.486 -79.498,-75.377M-69.025,-11.826C-65.378,-15.315 -61.409,-17.301 -57.124,-17.777C-60.777,-21.265 -64.544,-25.393 -68.43,-30.154C-72.32,-34.914 -76.445,-40.229 -80.808,-46.101C-85.174,-51.97 -88.543,-56.336 -90.923,-59.192C-99.652,-43.639 -102.508,-28.963 -99.492,-15.159C-96.955,-3.098 -90.012,6.542 -78.665,13.76C-67.322,20.983 -56.492,21.34 -46.176,14.831C-43.796,10.867 -42.884,6.78 -43.438,2.574C-43.996,-1.629 -45.7,-4.924 -48.556,-7.304C-51.413,-9.684 -54.863,-11.231 -58.91,-11.946C-62.956,-12.659 -67.122,-11.589 -71.405,-8.732C-71.405,-8.572 -71.804,-7.936 -72.596,-6.828L-78.546,-1.116C-77.914,-2.068 -77.356,-2.819 -76.88,-3.376C-76.404,-3.931 -75.69,-4.842 -74.738,-6.114L-69.025,-11.826ZM-119.009,-48.957L-124.722,-43.007C-131.706,-45.543 -136.348,-50.147 -138.646,-56.812C-140.948,-63.476 -140.275,-69.821 -136.623,-75.853L-130.672,-81.566C-126.707,-84.579 -122.818,-86.364 -119.009,-86.921C-115.201,-87.475 -111.434,-86.88 -107.703,-85.136C-103.977,-83.388 -100.525,-81.127 -97.35,-78.352C-94.178,-75.575 -90.767,-71.963 -87.115,-67.523C-86.483,-68.315 -85.609,-69.345 -84.496,-70.617C-83.388,-71.885 -82.752,-72.599 -82.593,-72.759L-76.642,-78.709C-76.326,-78.866 -75.928,-79.145 -75.452,-79.542C-74.976,-79.937 -74.66,-80.294 -74.5,-80.614C-81.641,-87.754 -88.149,-93.467 -94.017,-97.751C-99.89,-102.035 -106.395,-105.565 -113.535,-108.343C-120.676,-111.117 -127.976,-111.712 -135.432,-110.128C-142.893,-108.54 -150.509,-104.732 -158.282,-98.703C-162.567,-92.67 -165.661,-85.928 -167.565,-78.472C-169.469,-71.011 -169.153,-63.792 -166.613,-56.812C-164.077,-49.827 -158.84,-45.149 -150.904,-42.769L-156.854,-36.818C-163.203,-38.879 -167.844,-42.412 -170.778,-47.41C-173.716,-52.409 -174.943,-57.842 -174.468,-63.715C-173.992,-69.583 -172.645,-75.377 -170.422,-81.09C-168.201,-86.802 -165.345,-91.719 -161.852,-95.847L-155.902,-101.559C-147.81,-108.7 -139.798,-113.341 -131.862,-115.484C-123.93,-117.625 -116.235,-117.306 -108.775,-114.531C-101.318,-111.753 -94.535,-108.142 -88.424,-103.701C-82.318,-99.257 -75.452,-93.307 -67.835,-85.85C-56.411,-93.943 -44.591,-98.584 -32.371,-99.774C-20.154,-100.964 -9.841,-99.097 -1.429,-94.181L5.712,-103.463L11.424,-109.414C17.613,-114.806 23.839,-117.941 30.109,-118.815C36.375,-119.686 41.653,-118.615 45.937,-115.602C50.222,-112.586 53.948,-108.54 57.124,-103.463C60.296,-98.383 61.922,-92.515 62.003,-85.85C62.082,-79.186 61.011,-72.678 58.79,-66.333C56.566,-60.62 51.567,-53.081 43.795,-43.721L38.083,-38.008C30.942,-31.82 23.802,-27.614 16.661,-25.393C14.121,-22.217 12.057,-19.837 10.472,-18.253L4.522,-12.541C-10.079,-1.432 -24.122,1.347 -37.607,-4.21C-36.499,1.347 -38.165,6.739 -42.605,11.975L-48.318,17.926C-56.095,23.958 -63.909,26.219 -71.763,24.709C-79.618,23.203 -86.758,19.198 -93.184,12.69C-99.611,6.184 -103.698,-1.116 -105.442,-9.208C-108.934,-25.87 -104.49,-43.007 -92.113,-60.62C-99.414,-69.345 -106.238,-75.414 -112.583,-78.829C-118.932,-82.239 -125.517,-82.12 -132.339,-78.472C-134.719,-72.599 -134.682,-66.767 -132.219,-60.977C-129.761,-55.183 -125.358,-51.178 -119.009,-48.957" style="fill-rule:nonzero;"/>
        </g>
    </g>
</svg>
