<?xml version="1.0" encoding="UTF-8" standalone="no"?>
<!DOCTYPE svg PUBLIC "-//W3C//DTD SVG 1.1//EN" "http://www.w3.org/Graphics/SVG/1.1/DTD/svg11.dtd">
<svg width="100%" height="100%" viewBox="0 0 731 595" version="1.1" xmlns="http://www.w3.org/2000/svg" xmlns:xlink="http://www.w3.org/1999/xlink" xml:space="preserve" xmlns:serif="http://www.serif.com/" style="fill-rule:evenodd;clip-rule:evenodd;stroke-linejoin:round;stroke-miterlimit:2;">
    <g transform="matrix(1,0,0,1,-1911,-465)">
        <g transform="matrix(4.16667,0,0,4.16667,2606.92,693.971)">
            <path d="M0,32.847C-12.853,41.892 -30.388,34.197 -52.602,9.76C-54.35,7.699 -57.719,3.374 -62.718,-3.213C-67.716,-9.796 -71.168,-14.358 -73.071,-16.899L-73.071,-17.613C-73.391,-23.802 -73.391,-33.002 -73.071,-45.223C-61.967,-47.603 -51.453,-47.8 -41.534,-45.818C-31.62,-43.832 -22.612,-38.953 -14.519,-31.18C-6.426,-23.403 -0.636,-13.407 2.856,-1.19C6.821,12.299 5.868,23.646 0,32.847M-71.643,36.655C-72.916,34.435 -74.422,30.549 -76.166,24.992C-77.914,19.44 -79.26,15.791 -80.212,14.043C-84.021,6.587 -89.1,-0.156 -95.445,-6.188C-99.414,-10.153 -104.334,-14.281 -110.203,-18.565C-107.982,-22.849 -105.126,-26.974 -101.633,-30.942C-99.253,-32.846 -96.873,-34.512 -94.493,-35.94C-90.209,-31.496 -84.102,-24.195 -76.166,-14.042C-76.009,-11.502 -75.85,-7.456 -75.69,-1.903C-75.534,3.653 -75.333,8.532 -75.095,12.735C-74.856,16.94 -74.422,20.946 -73.786,24.754C-72.517,31.895 -71.804,35.863 -71.643,36.655M-141.145,-33.798C-142.573,-34.274 -145.868,-35.263 -151.022,-36.773C-156.181,-38.28 -160.03,-39.589 -162.567,-40.701C-160.187,-41.653 -156.378,-42.683 -151.142,-43.795C-145.905,-44.903 -142.893,-45.539 -142.097,-45.699C-141.145,-46.015 -138.966,-46.77 -135.551,-47.96C-132.141,-49.15 -129.839,-49.864 -128.649,-50.102C-127.459,-50.34 -125.16,-50.775 -121.746,-51.412C-118.336,-52.044 -116.075,-51.966 -114.963,-51.174C-110.046,-50.061 -103.381,-45.223 -94.969,-36.654C-97.193,-35.066 -98.778,-33.876 -99.73,-33.084L-102.824,-29.99C-106.156,-26.021 -108.934,-22.373 -111.154,-19.041C-120.519,-25.546 -130.516,-30.466 -141.145,-33.798M-76.166,-44.509C-76.486,-34.036 -76.564,-26.259 -76.404,-21.183C-82.752,-29.116 -87.513,-34.829 -90.685,-38.321C-87.036,-40.381 -82.198,-42.445 -76.166,-44.509M5.95,-4.284C0.394,-23.005 -9.919,-36.215 -24.992,-43.914C-40.069,-51.608 -56.094,-52.84 -73.071,-47.603C-73.048,-48.335 -73.031,-49.045 -73.012,-49.762C-73.847,-49.234 -74.833,-48.984 -75.89,-49.143C-75.901,-48.242 -75.912,-47.338 -75.928,-46.413C-80.848,-44.825 -86.007,-42.367 -91.399,-39.034C-99.651,-48.079 -106.476,-53.156 -111.869,-54.268C-113.297,-54.9 -115.558,-54.982 -118.652,-54.505C-121.746,-54.03 -124.089,-53.554 -125.674,-53.077C-127.261,-52.602 -129.563,-51.846 -132.576,-50.817C-135.592,-49.782 -137.734,-49.11 -139.003,-48.794C-140.431,-48.317 -143.012,-47.722 -146.738,-47.008C-150.468,-46.294 -153.842,-45.461 -156.854,-44.509C-159.87,-43.557 -162.172,-42.445 -163.757,-41.176L-166.851,-38.083C-164.154,-36.811 -160.067,-35.383 -154.592,-33.798C-149.119,-32.21 -145.589,-31.18 -144.001,-30.704C-133.052,-27.212 -122.817,-22.135 -113.297,-15.471C-116.472,-9.914 -118.693,-4.481 -119.961,0.834C-121.233,6.152 -121.151,11.663 -119.723,17.376C-118.295,23.088 -115.201,28.008 -110.441,32.133C-108.697,33.721 -106.595,35.309 -104.133,36.893C-101.674,38.481 -99.651,39.712 -98.063,40.583C-96.479,41.457 -94.017,42.688 -90.685,44.272C-87.352,45.86 -85.133,46.89 -84.021,47.366C-79.736,49.43 -76.129,51.215 -73.191,52.721C-70.256,54.231 -66.965,56.374 -63.313,59.148C-59.664,61.926 -57.124,64.622 -55.696,67.24C-54.268,69.859 -53.755,72.994 -54.149,76.642C-54.547,80.294 -56.41,84.021 -59.742,87.829L-57.6,85.687C-53.952,81.723 -51.81,77.874 -51.174,74.143C-50.542,70.417 -50.899,67.24 -52.245,64.622C-53.595,62.004 -56.135,59.267 -59.862,56.411C-63.592,53.554 -66.924,51.334 -69.858,49.746C-72.796,48.162 -76.486,46.336 -80.926,44.272C-81.402,44.116 -83.585,43.082 -87.472,41.178C-91.362,39.273 -93.939,38.006 -95.207,37.369C-96.479,36.737 -98.383,35.584 -100.92,33.918C-103.46,32.252 -105.68,30.626 -107.584,29.039C-119.645,18.409 -121.233,3.809 -112.344,-14.757C-106.792,-10.788 -102.191,-6.98 -98.54,-3.331C-92.351,2.857 -87.197,9.603 -83.068,16.9C-82.592,17.852 -81.086,22.218 -78.546,29.991C-76.009,37.767 -73.47,42.606 -70.93,44.51L-67.835,41.653C-67.835,39.75 -67.995,37.648 -68.311,35.346C-68.631,33.048 -69.066,30.549 -69.62,27.849C-70.178,25.152 -70.535,23.088 -70.691,21.66C-71.804,14.839 -72.517,4.444 -72.833,-9.521C-62.837,3.493 -57.046,10.871 -55.459,12.615C-32.608,38.641 -14.441,45.86 -0.952,34.275L2.142,31.419C8.806,21.898 10.075,9.997 5.95,-4.284" style="fill-rule:nonzero;"/>
        </g>
    </g>
</svg>
