<?xml version="1.0" encoding="UTF-8" standalone="no"?>
<!DOCTYPE svg PUBLIC "-//W3C//DTD SVG 1.1//EN" "http://www.w3.org/Graphics/SVG/1.1/DTD/svg11.dtd">
<svg width="100%" height="100%" viewBox="0 0 1036 662" version="1.1" xmlns="http://www.w3.org/2000/svg" xmlns:xlink="http://www.w3.org/1999/xlink" xml:space="preserve" xmlns:serif="http://www.serif.com/" style="fill-rule:evenodd;clip-rule:evenodd;stroke-linejoin:round;stroke-miterlimit:2;">
    <g transform="matrix(1,0,0,1,-3489,-1586)">
        <g transform="matrix(4.16667,0,0,4.16667,4276.04,1942.08)">
            <path d="M0,-12.734C-5.08,-8.129 -9.841,-5.315 -14.281,-4.284C-18.725,-3.25 -22.493,-3.529 -25.587,-5.117C-28.681,-6.701 -31.816,-9.557 -34.989,-13.685C-38.165,-17.81 -40.701,-21.815 -42.605,-25.706C-44.51,-29.592 -46.771,-34.274 -49.389,-39.749C-52.007,-45.223 -54.112,-49.307 -55.696,-52.007C-61.729,-48.675 -68.787,-43.992 -76.88,-37.964C-73.232,-34.156 -68.75,-29.235 -63.432,-23.206C-58.118,-17.174 -53.554,-11.979 -49.746,-7.616C-45.938,-3.25 -41.415,1.51 -36.179,6.665C-30.942,11.823 -26.182,16.03 -21.898,19.28C-17.613,22.534 -12.697,25.431 -7.141,27.968C-1.588,30.508 3.767,31.977 8.926,32.371C14.08,32.768 19.715,32.055 25.825,30.229C31.932,28.406 38.161,25.349 44.509,21.065C50.222,12.972 53.115,4.247 53.197,-5.117C53.275,-14.478 51.092,-23.047 46.651,-30.823C42.207,-38.596 36.06,-45.461 28.205,-51.412C20.35,-57.362 11.819,-61.289 2.618,-63.194C-14.043,-66.366 -30.942,-63.908 -48.08,-55.815C-46.812,-53.435 -44.866,-49.466 -42.248,-43.914C-39.63,-38.358 -37.41,-33.877 -35.584,-30.466C-33.762,-27.052 -31.341,-23.363 -28.324,-19.398C-25.312,-15.43 -22.337,-12.734 -19.399,-11.305C-16.464,-9.877 -12.894,-9.557 -8.688,-10.354C-4.485,-11.146 -0.082,-13.526 4.522,-17.494C6.742,-19.714 9.915,-23.206 14.043,-27.967L20.232,-34.393C14.199,-27.409 9.521,-22.255 6.188,-18.922L0,-12.734ZM-115.677,-73.666C-117.425,-70.966 -117.979,-68.348 -117.343,-65.812C-105.442,-62.636 -92.195,-53.591 -77.594,-38.677L-76.642,-39.392C-71.089,-43.992 -64.503,-48.83 -56.886,-53.911C-65.455,-67.24 -76.802,-75.332 -90.923,-78.189C-99.968,-80.249 -108.22,-78.743 -115.677,-73.666M-110.916,-78.903C-103.143,-84.615 -94.415,-86.52 -84.734,-84.615C-70.614,-81.439 -59.188,-73.268 -50.46,-60.099C-50.304,-59.78 -50.144,-59.464 -49.984,-59.148C-49.828,-58.828 -49.668,-58.511 -49.508,-58.195C-29.198,-69.46 -9.759,-73.19 8.806,-69.382C21.816,-66.842 33.122,-60.613 42.724,-50.698C52.323,-40.779 57.838,-29.711 59.267,-17.494C60.695,-5.273 56.804,6.784 47.604,18.685L41.415,25.111C34.907,30.032 28.48,33.561 22.135,35.703C15.787,37.845 9.955,38.838 4.641,38.679C-0.677,38.522 -6.151,37.213 -11.782,34.751C-17.417,32.293 -22.456,29.477 -26.896,26.301C-31.341,23.129 -36.261,18.923 -41.653,13.687C-47.05,8.45 -51.65,3.652 -55.458,-0.714C-59.267,-5.076 -63.908,-10.354 -69.382,-16.542C-74.857,-22.73 -79.42,-27.729 -83.068,-31.537C-100.205,-8.211 -107.506,12.418 -104.966,30.348C-103.698,40.028 -99.73,48.199 -93.065,54.863C-86.401,61.528 -78.784,65.377 -70.215,66.407C-61.647,67.441 -52.922,65.574 -44.033,60.814C-40.225,55.262 -38.916,49.746 -40.106,44.272C-41.296,38.797 -44.312,35.19 -49.151,33.442C-53.993,31.698 -60.219,32.412 -67.835,35.584L-61.647,29.396C-55.302,26.063 -49.984,25.033 -45.7,26.301C-41.415,27.573 -38.124,29.793 -35.822,32.966C-33.523,36.142 -32.847,40.225 -33.799,45.224C-34.75,50.222 -37.369,54.863 -41.653,59.148L-47.841,65.574C-56.886,71.287 -65.853,73.786 -74.738,73.072C-83.626,72.357 -91.559,68.59 -98.54,61.766C-105.524,54.945 -109.726,46.615 -111.155,36.774C-112.903,25.033 -111.195,13.608 -106.037,2.499C-100.883,-8.606 -93.463,-20.191 -83.783,-32.251C-96.635,-45.737 -108.38,-54.387 -119.009,-58.195L-121.627,-55.815C-122.263,-56.767 -122.899,-58.035 -123.532,-59.623C-138.924,-63.747 -154.794,-59.148 -171.135,-45.818C-176.691,-38.358 -180.299,-30.425 -181.965,-22.016C-183.631,-13.604 -182.441,-5.749 -178.395,1.547C-174.348,8.848 -167.408,13.687 -157.568,16.067L-163.757,22.493C-171.533,20.433 -177.561,16.863 -181.846,11.782C-186.131,6.706 -188.391,0.993 -188.629,-5.355C-188.867,-11.7 -187.796,-18.167 -185.416,-24.753C-183.036,-31.336 -179.548,-37.328 -174.943,-42.724L-168.755,-48.912C-152.569,-63.034 -137.098,-68.984 -122.341,-66.764C-122.025,-67.24 -121.55,-67.913 -120.914,-68.787C-120.281,-69.657 -119.883,-70.252 -119.723,-70.572L-113.535,-76.76C-113.219,-77.076 -112.742,-77.393 -112.106,-77.712L-110.916,-78.903Z" style="fill-rule:nonzero;"/>
        </g>
    </g>
</svg>
