<?xml version="1.0" encoding="UTF-8" standalone="no"?>
<!DOCTYPE svg PUBLIC "-//W3C//DTD SVG 1.1//EN" "http://www.w3.org/Graphics/SVG/1.1/DTD/svg11.dtd">
<svg width="100%" height="100%" viewBox="0 0 1000 545" version="1.1" xmlns="http://www.w3.org/2000/svg" xmlns:xlink="http://www.w3.org/1999/xlink" xml:space="preserve" xmlns:serif="http://www.serif.com/" style="fill-rule:evenodd;clip-rule:evenodd;stroke-linejoin:round;stroke-miterlimit:2;">
    <g transform="matrix(1,0,0,1,-6721,-1673)">
        <g transform="matrix(4.16667,0,0,4.16667,7399.01,2102.59)">
            <path d="M0,-77.676C-0.16,-77.516 -0.319,-77.278 -0.476,-76.962C-1.111,-76.326 -1.427,-75.928 -1.427,-75.772C-0.952,-76.404 -0.476,-77.04 0,-77.676M-1.427,-75.772C-4.92,-71.168 -7.936,-66.883 -10.472,-62.918C-1.111,-61.647 2.459,-58.077 0.239,-52.208L-7.378,-44.591C-5.318,-49.827 -7.936,-53.238 -15.233,-54.826C-16.98,-51.81 -19.279,-47.128 -22.136,-40.783C18.167,-40.783 47.205,-47.128 64.979,-59.825C71.96,-70.298 71.168,-78.468 62.599,-84.34C54.507,-89.893 43.238,-91.399 28.801,-88.863C17.376,-86.959 7.297,-82.592 -1.427,-75.772M-18.089,-55.302C-23.01,-56.094 -32.215,-56.172 -45.699,-55.54C-45.859,-50.936 -46.971,-46.257 -49.031,-41.497L-26.182,-40.783C-24.597,-44.116 -21.897,-48.953 -18.089,-55.302M-33.56,-24.36C-32.768,-26.42 -31.578,-29.358 -29.989,-33.166C-37.926,-33.166 -45.781,-33.405 -53.554,-33.881C-53.714,-33.721 -53.873,-33.523 -54.03,-33.285C-54.189,-33.048 -54.349,-32.847 -54.506,-32.69L-57.839,-29.358L-62.122,-25.074L-62.599,-24.598C-46.573,-24.598 -36.893,-24.516 -33.56,-24.36M-64.979,-24.598C-64.347,-24.914 -63.473,-25.431 -62.36,-26.145C-61.253,-26.859 -60.538,-27.294 -60.219,-27.454C-58.79,-29.674 -57.6,-31.816 -56.649,-33.881C-61.885,-34.037 -70.893,-34.513 -83.663,-35.308C-96.438,-36.101 -104.847,-36.536 -108.893,-36.618C-112.939,-36.696 -120.359,-36.655 -131.147,-36.499L-147.571,-36.499C-139.639,-32.215 -128.411,-28.127 -113.891,-24.24C-99.373,-20.351 -89.416,-18.566 -84.021,-18.885C-82.911,-18.885 -82.037,-18.963 -81.402,-19.124L-76.166,-24.36C-72.041,-24.36 -68.311,-24.438 -64.979,-24.598M0.953,-78.866C12.217,-90.131 26.339,-96.319 43.319,-97.431C57.124,-98.383 67.04,-95.683 73.071,-89.339C79.576,-82.515 78.464,-73.868 69.74,-63.395L61.885,-55.778C44.748,-41.021 15.628,-33.482 -25.468,-33.166C-25.787,-32.69 -26.977,-29.674 -29.038,-24.122C-16.186,-23.486 -9.758,-22.058 -9.758,-19.837L-17.376,-12.221C-19.279,-10.473 -21.504,-8.806 -24.039,-7.223L-18.089,-13.411C-19.677,-14.839 -24.278,-15.791 -31.894,-16.267C-34.595,-8.331 -38.165,3.727 -42.605,19.911L-50.221,27.528C-44.985,8.011 -40.463,-6.665 -36.654,-16.505C-41.735,-16.821 -53.714,-16.981 -72.596,-16.981C-78.783,-13.329 -85.132,-11.425 -91.637,-11.269C-98.461,-10.793 -111.117,-13.329 -129.601,-18.885C-148.087,-24.438 -159.077,-29.515 -162.567,-34.118L-154.949,-41.735C-152.253,-42.843 -148.921,-43.558 -144.952,-43.877C-140.989,-44.193 -137.299,-44.312 -133.885,-44.234C-130.475,-44.153 -127.024,-44.193 -123.531,-44.353C-114.486,-44.67 -91.398,-43.796 -54.268,-41.735C-53.159,-46.812 -52.84,-51.334 -53.315,-55.302C-67.28,-54.666 -75.213,-55.618 -77.117,-58.158L-69.501,-65.775C-68.072,-66.883 -66.09,-68.073 -63.551,-69.345L-68.072,-64.823C-65.853,-63.395 -61.17,-62.681 -54.03,-62.681C-56.41,-74.106 -61.449,-83.031 -69.145,-89.458C-76.843,-95.885 -85.608,-97.034 -95.444,-92.909L-102.585,-85.769C-102.43,-86.244 -102.109,-86.996 -101.633,-88.03C-101.158,-89.06 -100.763,-89.815 -100.443,-90.291L-92.827,-97.908C-80.61,-105.204 -69.899,-104.728 -60.695,-96.48C-51.493,-88.226 -46.414,-77.04 -45.461,-62.918C-26.103,-63.395 -15.155,-63.473 -12.615,-63.157C-10.554,-66.329 -8.568,-68.947 -6.665,-71.011L0.953,-78.866Z" style="fill-rule:nonzero;"/>
        </g>
    </g>
</svg>
