<?xml version="1.0" encoding="UTF-8" standalone="no"?>
<!DOCTYPE svg PUBLIC "-//W3C//DTD SVG 1.1//EN" "http://www.w3.org/Graphics/SVG/1.1/DTD/svg11.dtd">
<svg width="100%" height="100%" viewBox="0 0 758 463" version="1.1" xmlns="http://www.w3.org/2000/svg" xmlns:xlink="http://www.w3.org/1999/xlink" xml:space="preserve" xmlns:serif="http://www.serif.com/" style="fill-rule:evenodd;clip-rule:evenodd;stroke-linejoin:round;stroke-miterlimit:2;">
    <g transform="matrix(1,0,0,1,-235,-525)">
        <g transform="matrix(4.16667,0,0,4.16667,847.602,703.24)">
            <path d="M0,25.624C-3.652,25.624 -6.427,25.546 -8.331,25.386C-23.248,23.957 -37.767,16.579 -51.888,3.25C-54.112,1.346 -56.333,-0.874 -58.552,-3.415C-57.601,-4.998 -56.333,-7.379 -54.744,-10.555C-47.128,-12.459 -39.868,-12.657 -32.965,-11.15C-26.063,-9.64 -20.035,-7.141 -14.876,-3.653C-9.721,-0.161 -5.795,4.202 -3.095,9.438C-0.398,14.675 0.632,20.071 0,25.624M-7.141,41.571C-8.252,42.367 -9.283,43.081 -10.235,43.713C-24.992,52.602 -39.433,50.775 -53.554,38.239C-57.682,34.591 -65.061,26.26 -75.69,13.247C-72.358,11.343 -69.583,9.36 -67.359,7.296L-64.265,4.202C-64.109,4.046 -63.075,2.774 -61.171,0.394C-60.695,0.87 -60.062,1.547 -59.267,2.417C-58.475,3.291 -57.76,4.046 -57.124,4.678C-56.492,5.314 -55.856,5.868 -55.221,6.345C-40.94,19.833 -26.42,27.29 -11.663,28.718C-7.378,29.038 -3.652,28.956 -0.477,28.48C-1.428,33.085 -3.652,37.447 -7.141,41.571M-82.831,4.916C-82.674,4.6 -82.395,4.202 -81.998,3.726C-81.603,3.25 -81.324,2.934 -81.164,2.774C-76.564,-0.874 -71.882,-3.89 -67.122,-6.271C-65.853,-4.843 -64.109,-2.857 -61.885,-0.32C-62.68,1.108 -64.027,3.094 -65.932,5.63C-69.583,8.486 -73.072,10.711 -76.404,12.295C-77.832,10.55 -79.974,8.093 -82.831,4.916M-89.495,17.055C-89.019,14.835 -87.672,12.056 -85.449,8.725C-84.496,9.676 -82.912,11.581 -80.688,14.437C-83.705,15.709 -86.639,16.579 -89.495,17.055M-91.637,17.769C-105.286,20.149 -117.343,18.405 -127.816,12.533C-130.04,7.616 -129.482,2.458 -126.15,-2.938C-122.341,-5.634 -118.652,-7.301 -115.082,-7.936C-111.511,-8.569 -108.023,-8.175 -104.609,-6.746C-101.199,-5.318 -98.064,-3.415 -95.207,-1.035C-92.351,1.346 -89.257,4.362 -85.924,8.01C-88.781,11.819 -90.685,15.073 -91.637,17.769M-132.338,9.915C-139.162,4.998 -142.971,-0.952 -143.763,-7.936C-144.559,-14.917 -141.621,-22.534 -134.957,-30.787C-130.832,-34.275 -126.666,-36.737 -122.461,-38.165C-118.258,-39.593 -114.093,-39.79 -109.965,-38.76C-105.84,-37.726 -102.11,-36.458 -98.778,-34.952C-95.445,-33.442 -91.719,-30.824 -87.591,-27.097C-83.467,-23.367 -80.175,-20.232 -77.713,-17.696C-75.255,-15.155 -72.042,-11.663 -68.073,-7.223C-73.153,-4.047 -77.04,-1.272 -79.736,1.108L-83.068,4.44C-87.829,-0.796 -92.113,-4.682 -95.922,-7.223C-99.73,-9.759 -104.215,-11.031 -109.37,-11.031C-114.528,-11.031 -119.723,-8.889 -124.96,-4.605L-128.054,-1.51C-130.91,1.982 -132.338,5.79 -132.338,9.915M-56.886,-10.079C-57.839,-7.539 -58.713,-5.634 -59.505,-4.366C-59.825,-4.843 -60.378,-5.475 -61.171,-6.271C-61.967,-7.062 -62.521,-7.699 -62.837,-8.175C-59.505,-9.283 -57.523,-9.919 -56.886,-10.079M34.275,-16.267C32.846,-26.264 28.402,-33.085 20.945,-36.737C11.424,-41.653 1.108,-38.56 -9.997,-27.454L-13.329,-24.36C-16.506,-20.708 -19.041,-17.773 -20.946,-15.553L-17.851,-18.647C-14.679,-22.296 -12.459,-24.836 -11.187,-26.264C-0.398,-34.357 8.963,-36.934 16.899,-34C24.832,-31.062 29.592,-24.081 31.18,-13.054C32.765,-2.023 29.752,7.932 22.135,16.817C16.74,21.421 10.313,24.196 2.856,25.147C4.6,17.375 3.053,9.915 -1.785,2.774C-6.628,-4.366 -13.846,-9.562 -23.445,-12.816C-33.047,-16.066 -43.081,-16.186 -53.554,-13.173C-51.81,-17.773 -50.62,-22.612 -49.984,-27.692C-49.667,-30.395 -49.828,-33.358 -50.467,-36.58C-51.8,-36.845 -53.136,-37.12 -54.478,-37.391C-53.193,-32.944 -52.798,-28.678 -53.316,-24.598C-53.792,-20.63 -54.666,-16.661 -55.934,-12.697C-56.411,-12.537 -59.11,-11.425 -64.027,-9.365C-68.312,-14.126 -71.606,-17.733 -73.905,-20.194C-76.207,-22.653 -79.539,-25.907 -83.901,-29.953C-88.267,-34 -92.113,-36.737 -95.445,-38.165C-98.778,-39.593 -102.586,-40.861 -106.87,-41.973C-111.155,-43.081 -115.439,-42.843 -119.723,-41.259C-124.007,-39.671 -128.292,-36.975 -132.577,-33.167L-135.908,-30.072C-141.781,-24.2 -145.273,-18.209 -146.381,-12.102C-147.493,-5.992 -146.66,-0.595 -143.882,4.083C-141.108,8.765 -136.86,12.693 -131.148,15.865C-128.928,20.626 -125.12,23.482 -119.723,24.434L-116.391,21.339C-118.139,21.023 -119.567,20.548 -120.676,19.911C-111.315,22.451 -101.953,22.612 -92.589,20.387C-92.749,20.548 -92.827,20.707 -92.827,20.864C-94.099,25.784 -94.178,31.972 -93.065,39.429C-91.957,46.889 -89.376,53.672 -85.329,59.779C-81.283,65.89 -76.248,68.705 -70.215,68.229C-69.263,68.073 -68.312,67.872 -67.359,67.634C-66.407,67.396 -65.377,66.961 -64.265,66.325C-63.157,65.693 -62.324,65.176 -61.766,64.778C-61.211,64.383 -60.3,63.748 -59.029,62.874C-57.76,62.003 -56.969,61.408 -56.649,61.089L-53.554,57.994C-53.874,58.154 -54.666,58.709 -55.934,59.66C-57.206,60.612 -58.118,61.29 -58.672,61.684C-59.229,62.081 -60.062,62.558 -61.171,63.112C-62.283,63.67 -63.313,64.104 -64.265,64.42C-65.217,64.74 -66.169,64.897 -67.122,64.897C-72.833,65.373 -77.676,62.796 -81.641,57.161C-85.608,51.531 -88.186,45.223 -89.376,38.239C-90.566,31.258 -90.767,25.07 -89.971,19.674C-87.115,18.881 -83.626,17.531 -79.498,15.627C-78.546,16.739 -77.2,18.405 -75.452,20.626C-70.851,26.182 -67.203,30.503 -64.503,33.597C-61.806,36.692 -58.077,40.184 -53.316,44.07C-48.556,47.961 -44.194,50.459 -40.225,51.568C-36.261,52.68 -31.578,52.758 -26.182,51.806C-20.789,50.854 -15.233,48.317 -9.521,44.189L-6.427,41.095C-2.302,36.971 0.476,32.608 1.904,28.004C8.249,26.895 14.281,23.957 19.994,19.197L23.325,15.865C32.527,6.664 36.178,-4.047 34.275,-16.267" style="fill-rule:nonzero;"/>
        </g>
    </g>
</svg>
