<?xml version="1.0" encoding="UTF-8" standalone="no"?>
<!DOCTYPE svg PUBLIC "-//W3C//DTD SVG 1.1//EN" "http://www.w3.org/Graphics/SVG/1.1/DTD/svg11.dtd">
<svg width="100%" height="100%" viewBox="0 0 428 238" version="1.1" xmlns="http://www.w3.org/2000/svg" xmlns:xlink="http://www.w3.org/1999/xlink" xml:space="preserve" xmlns:serif="http://www.serif.com/" style="fill-rule:evenodd;clip-rule:evenodd;stroke-linejoin:round;stroke-miterlimit:2;">
    <g transform="matrix(1,0,0,1,-298,-102)">
        <g>
            <g>
                <g>
                    <path d="M669.9,234.97C669.9,234.97 639.26,226.16 606.86,213.55C604.78,212.74 602.79,211.97 600.91,211.24C595.6,209.18 591.04,207.41 587.16,205.91C578.49,202.56 573.14,200.52 570.03,199.35C574.34,197.51 578.21,194.63 581.13,190.96C584.1,187.21 586.1,182.64 586.51,177.88C587.09,170.98 583.75,164.09 578.04,160.2C573.38,157.02 567.04,156.78 561.75,158.45C558.32,159.53 555.37,162.4 554.03,165.74C551.82,171.25 554.96,176.96 559.83,179.64C558.74,177.58 559.32,174.89 560.91,173.19C562.5,171.49 564.92,170.72 567.24,170.79C568.82,170.84 570.45,171.28 571.6,172.36C573.12,173.79 573.52,176.09 573.31,178.17C572.5,186.15 564.52,190.77 557.04,188.62C551.69,187.08 547.62,182.31 546.06,176.97C544.35,171.12 544.85,162.54 548.79,157.69C554.49,150.65 563.45,148.4 572.18,149.42C581.57,150.52 589.42,156.64 593.58,165.01C597.53,172.98 597.47,182.3 594.9,190.68C593.43,195.47 591.07,199.99 588.29,204.27C592.86,205.99 597.41,207.74 601.95,209.52C604.91,204.31 607.16,198.7 608.59,192.88C611.98,179.03 611.09,162.74 602.06,151.12C591.3,137.29 569.4,130.59 553.08,137.65C536.83,144.68 528.18,163.34 533.22,180.28C535.52,188.01 540.53,194.81 546.72,199.8C556.09,207.34 566.73,213.18 577.74,218.15C582.21,220.17 586.75,222.05 591.28,223.84C593.91,224.88 596.54,225.89 599.16,226.87C609.97,230.95 621.01,234.33 631.9,238.15C627.34,241.05 617.65,247.63 607.67,256.97C611.46,259.03 615.25,261.08 619.04,263.14C642.17,242.91 669.9,234.97 669.9,234.97Z" style="fill-rule:nonzero;"/>
                    <path d="M522.6,306.29C524.77,318.09 532.4,329.03 544.51,332.01C544.76,332.07 545.01,332.13 545.27,332.19C548.15,332.82 551.1,333.1 554.04,333.02C561.23,332.83 570.03,329.82 574.04,323.57C577.6,318.02 580.14,311.97 580.26,305.46L643.46,305.46C655.45,306.26 668.87,304.28 679.16,297.85C684.62,294.44 689.07,289.05 691.7,283.2C696.76,271.91 693.98,256.22 684.29,248.2C672.87,238.74 650.87,239.47 643.86,254.01C641.34,259.25 640.48,265.47 642.47,270.94C645.65,279.72 656.62,284.25 664.94,279.52C667.85,277.87 670.15,275.03 670.79,271.75C671.43,268.47 670.24,264.8 667.57,262.79C666.06,261.66 664.21,261.09 662.4,260.55C664.37,262.13 664.89,265.3 663.41,267.36C661.94,269.42 658.65,269.91 656.71,268.29C655.43,267.23 654.85,265.54 654.64,263.89C654.38,261.8 654.66,259.57 655.79,257.79C658.32,253.8 664,254.16 667.94,255.3C675.46,257.47 680.32,265.5 679.47,273.2C678.98,277.67 677.05,282.05 673.9,285.29C666.08,293.3 653.65,293.67 643.19,293.67L595.42,293.67C598.64,286.73 602.76,280.5 607.4,274.93C606.69,274.58 605.98,274.23 605.26,273.89C602.13,272.4 599.02,270.87 595.92,269.33C589.94,276.55 584.62,284.74 581.19,293.67L577.23,293.67C575.8,291.39 573.89,289.42 571.56,287.92C567.26,285.14 561.28,284.31 556.25,285.06C548.62,286.2 542.35,291.16 541.64,299.1C541.26,303.39 542.64,307.99 545.96,310.73C550.6,314.56 557.53,313.21 559.99,307.68C560.31,306.96 560.55,306.22 560.75,305.46C560.08,305.77 559.38,306.02 558.66,306.21C558.25,306.32 557.84,306.41 557.42,306.43C555.81,306.5 554.25,305.39 553.68,303.88C553.11,302.37 553.5,300.57 554.56,299.35C557.73,295.69 563.47,297.61 565.89,301.16C568.88,305.56 566.92,311.09 563.53,314.62C559.85,318.45 554.23,319.78 549.07,318.58C540.57,316.61 535.94,308.58 535.1,300.4C533.17,281.69 548.43,266.92 560.74,255.07C568.25,247.85 575.9,240.77 583.14,233.27C585.41,230.92 587.48,228.42 589.54,225.91C586.69,224.66 580.86,222.08 576.2,219.91C563.98,234.08 549.83,246.38 537.29,260.26C534.94,262.86 532.76,265.41 531.02,268.42C529.17,271.63 527.58,274.98 526.18,278.42C522.6,287.2 520.87,296.88 522.6,306.29Z" style="fill-rule:nonzero;"/>
                </g>
            </g>
            <g>
                <path d="M640.05,307.47C640.37,310.51 640.04,313.55 638.81,316.45C636.82,321.16 632.48,324.8 627.5,325.95C624.49,326.64 621.1,326.38 618.67,324.48C616.24,322.57 615.25,318.75 617.08,316.26C619.03,313.62 623.01,313.55 626.13,314.57C624.62,310.47 620.07,307.85 615.71,308.18C611.35,308.51 607.41,311.51 605.5,315.45C603.6,319.39 603.62,324.11 605.11,328.22C609.1,339.24 623.02,341.56 633.02,337.94C645.2,333.53 652.49,319.91 652.56,307.14C648.4,307.37 644.23,307.48 640.05,307.47Z" style="fill-rule:nonzero;"/>
                <path d="M565.66,254.31C577.36,260.31 589.76,264.63 601.52,270.26C611.11,274.85 621.42,279.08 629.1,286.85C630.61,288.37 632.1,290.11 633.48,292.01C638.55,291.91 643.62,291.88 648.7,291.7C645.28,285.21 639.93,279.61 634.01,275.16C622.31,266.36 609.3,260.38 596.09,254.29C588.98,251.01 581.65,247.74 574.45,244.18C571.15,247.36 567.85,250.55 564.55,253.73C564.92,253.92 565.29,254.12 565.66,254.31Z" style="fill-rule:nonzero;"/>
            </g>
            <path d="M520.16,317.51C518.6,317.41 517.2,316.42 516.22,315.2C513.83,312.23 513.6,308.12 513.61,304.31C513.61,304.04 513.61,303.76 513.52,303.51C513.41,303.21 513.19,302.96 512.99,302.72C512.59,302.23 512.27,301.7 512,301.14C511.73,301.7 511.41,302.23 511.01,302.72C510.81,302.97 510.59,303.21 510.48,303.51C510.39,303.77 510.39,304.04 510.39,304.31C510.4,308.12 510.17,312.23 507.78,315.2C506.8,316.42 505.4,317.41 503.84,317.51C502.28,317.61 500.59,316.63 500.26,315.09C499.53,316.61 499.19,318.36 499.58,320C499.97,321.64 501.2,323.12 502.82,323.56C504.45,324 506.4,323.18 507.01,321.61C507.12,324.27 507.48,326.95 508.44,329.44C509.21,331.45 510.4,333.32 511.99,334.76C513.58,333.33 514.77,331.45 515.54,329.44C516.49,326.95 516.85,324.27 516.97,321.61C517.58,323.18 519.53,323.99 521.16,323.56C522.79,323.12 524.01,321.64 524.4,320C524.79,318.36 524.45,316.61 523.72,315.09C523.4,316.62 521.72,317.61 520.16,317.51Z" style="fill-rule:nonzero;"/>
            <path d="M672.62,312.3C672.52,313.86 671.53,315.26 670.31,316.24C667.34,318.63 663.23,318.86 659.42,318.85C659.15,318.85 658.87,318.85 658.62,318.94C658.32,319.05 658.07,319.27 657.83,319.47C657.34,319.87 656.81,320.19 656.25,320.46C656.81,320.73 657.34,321.05 657.83,321.45C658.08,321.65 658.32,321.87 658.62,321.98C658.88,322.07 659.15,322.07 659.42,322.07C663.23,322.06 667.34,322.29 670.31,324.68C671.53,325.66 672.52,327.06 672.62,328.62C672.72,330.18 671.74,331.87 670.2,332.2C671.72,332.93 673.47,333.27 675.11,332.88C676.75,332.49 678.23,331.26 678.67,329.64C679.11,328.01 678.29,326.06 676.72,325.45C679.38,325.34 682.06,324.98 684.55,324.02C686.56,323.25 688.43,322.06 689.87,320.47C688.44,318.88 686.56,317.69 684.55,316.92C682.06,315.97 679.38,315.61 676.72,315.49C678.29,314.88 679.1,312.93 678.67,311.3C678.23,309.67 676.75,308.45 675.11,308.06C673.47,307.67 671.72,308.01 670.2,308.74C671.73,309.05 672.72,310.73 672.62,312.3Z" style="fill-rule:nonzero;"/>
            <path d="M487.2,254.11C494.17,255.65 500.48,251.98 503.92,246.02C505.32,243.59 506.32,241.2 506.95,238.45C508.28,232.56 508.8,226.62 509.38,220.63C509.4,220.44 509.42,220.23 509.55,220.08C509.76,219.84 510.16,219.88 510.42,220.07C510.93,220.44 510.99,221.17 511.01,221.8C511.26,234.87 509.39,247.59 507.09,260.42C506.91,261.41 506.72,262.43 506.13,263.24C505.26,264.42 503,264.83 502.2,263.33C501.88,262.72 501.96,261.98 501.74,261.33C501.36,260.2 500.13,259.55 498.95,259.38C497.77,259.21 496.56,259.39 495.37,259.32C497.92,260.72 498.31,263.12 498.35,265.74C498.37,267.11 498.43,268.53 498.98,269.78C499.18,270.23 499.44,270.66 499.81,270.98C500.31,271.42 500.98,271.63 501.64,271.72C503.4,271.93 505.24,271.24 506.41,269.91C507.58,268.58 508.05,266.67 507.63,264.95C509.29,265 510.77,266.55 510.74,268.21C510.71,269.84 509.5,271.16 508.49,272.44C506.62,274.78 506.47,278.31 507.66,281.03C508.32,282.55 509.4,283.84 510.47,285.11C510.95,285.67 511.45,286.25 512.01,286.73C512.57,286.25 513.07,285.67 513.55,285.11C514.62,283.85 515.7,282.55 516.36,281.03C517.55,278.3 517.39,274.78 515.53,272.44C514.52,271.17 513.3,269.84 513.28,268.21C513.25,266.55 514.72,265 516.39,264.95C515.96,266.67 516.43,268.58 517.61,269.91C518.79,271.24 520.63,271.93 522.38,271.72C523.04,271.64 523.71,271.42 524.22,270.98C524.59,270.66 524.85,270.23 525.05,269.78C525.6,268.52 525.66,267.11 525.68,265.74C525.72,263.12 526.11,260.72 528.66,259.32C527.47,259.39 526.26,259.21 525.08,259.38C523.9,259.55 522.67,260.2 522.29,261.33C522.07,261.98 522.15,262.72 521.83,263.33C521.03,264.83 518.77,264.42 517.9,263.24C517.31,262.43 517.11,261.41 516.94,260.42C514.64,247.59 512.76,234.87 513.02,221.8C513.03,221.17 513.09,220.44 513.61,220.07C513.87,219.88 514.27,219.84 514.48,220.08C514.61,220.23 514.63,220.44 514.65,220.63C515.23,226.63 515.75,232.56 517.08,238.45C517.7,241.2 518.7,243.59 520.11,246.02C523.54,251.98 529.85,255.65 536.83,254.11C541.27,253.13 544.74,249.3 546.08,244.95C545.13,245.48 543.98,245.64 542.92,245.39C542.18,245.21 541.5,244.85 540.77,244.62C539.06,244.1 537.16,244.4 535.58,245.24C534,246.08 532.73,247.42 531.76,248.92C532.41,247.9 532.92,246.75 532.94,245.54C532.96,244.33 532.41,243.07 531.35,242.48C531.38,243.68 530.5,244.79 529.38,245.23C528.26,245.67 526.98,245.53 525.87,245.06C524.26,244.38 522.98,243.06 522.07,241.56C517.67,234.33 517.04,225.22 516.94,216.98C516.94,216.98 514.12,214.67 512.03,208.03C509.94,214.67 507.12,216.98 507.12,216.98C507.02,225.22 506.39,234.33 501.99,241.56C501.08,243.05 499.8,244.37 498.19,245.06C497.08,245.53 495.8,245.67 494.68,245.23C493.56,244.79 492.68,243.68 492.71,242.48C491.65,243.07 491.1,244.33 491.12,245.54C491.14,246.75 491.65,247.9 492.3,248.92C491.33,247.42 490.06,246.08 488.48,245.24C486.9,244.4 485,244.09 483.29,244.62C482.56,244.84 481.88,245.21 481.14,245.39C480.08,245.64 478.93,245.48 477.98,244.95C479.28,249.3 482.76,253.13 487.2,254.11Z" style="fill-rule:nonzero;"/>
            <path d="M721,299.36C720.06,297.87 718.98,296.46 717.76,295.18C715.47,292.79 712.83,290.77 710.18,288.79C711.37,289.68 714.13,289.46 715.5,289.27C717.13,289.04 718.83,288.61 720.25,287.75C722.63,286.31 723.69,283.72 724.06,281.07C724.46,278.19 724.52,275.31 723.85,272.46C722.32,274.42 720.58,276.5 718.15,276.98C715.51,277.51 713.27,275.86 710.72,275.8C708.41,275.75 705.71,277.06 703.89,278.36C704.25,277.63 704.61,276.9 704.76,276.1C705.06,274.54 704.29,273.18 702.8,272.62C701.65,272.19 700.34,272.25 699.14,272.37C696.28,272.65 694.95,275.69 695.98,278.31C695.4,278.39 694.83,278.54 694.29,278.76C694.14,279.36 693.96,279.95 693.77,280.54C699.7,280.27 701.97,282.45 701.97,282.45C701.97,282.45 697.8,281.05 693.35,281.7C693.21,282.05 693.07,282.4 692.91,282.75C705.71,281.33 708.73,287.03 708.73,287.03C708.73,287.03 702.97,282.28 692.14,284.33C692.07,284.47 692,284.6 691.93,284.73C706.84,283.45 711.68,292.98 711.68,292.98C711.68,292.98 704.98,285.3 691.24,285.94C691.09,286.19 690.95,286.43 690.79,286.68L690.79,286.67C701.2,285.83 703.46,290.81 703.46,290.81C703.46,290.81 699.69,287.15 690.03,287.85C689.84,288.14 689.64,288.43 689.44,288.72C690.92,289.07 692.32,289.82 693.67,290.55C694.14,290.81 694.64,291.1 694.85,291.59C695.15,292.33 694.64,293.17 693.98,293.62C693.32,294.07 692.53,294.27 691.85,294.69C690.09,295.77 689.45,298.2 690.06,300.17C690.34,301.09 690.86,301.95 691.64,302.51C694.55,304.61 698.56,301.48 697.99,298.17C698.67,299.17 698.88,300.41 698.9,301.62C698.92,302.83 698.76,304.03 698.79,305.24C698.8,305.78 698.85,306.33 699.1,306.81C699.42,307.45 700.06,307.91 700.32,308.57C700.7,309.54 700.19,310.62 699.7,311.54C701.29,311.47 702.89,311.41 704.43,311.03C705.97,310.65 707.47,309.92 708.52,308.73C709.01,308.17 709.4,307.51 709.68,306.82C710.61,304.54 710.44,301.73 709.49,299.5C708.39,296.92 706.37,294.7 703.78,293.62C705.51,293.96 707.08,294.85 708.54,295.82C713.27,298.95 717.36,303.29 719.28,308.62C720.24,311.27 720.4,313.96 720.6,316.73C720.77,319.03 720.19,321.63 718.86,323.53C717.7,325.18 716.05,326.46 714.22,327.28C708.91,329.64 699.34,329.18 699.11,321.49C699.07,320.16 699.51,318.69 700.68,318.06C701.78,317.46 703.33,317.91 703.94,319.01C704.55,320.11 704.1,321.66 703.01,322.27C703.88,322.28 704.7,321.79 705.24,321.11C705.77,320.43 706.04,319.57 706.16,318.71C706.54,315.88 704.04,314.14 701.46,314.05C697.79,313.92 695.52,316.87 695.12,320.32C694.54,325.28 697.26,329.92 701.98,331.53C704.4,332.36 706.99,332.49 709.55,332.52C714.92,332.58 720.13,329.54 723.12,325.06C728.32,317.25 725.65,306.76 721,299.36Z" style="fill-rule:nonzero;"/>
            <path d="M643.7,252.25C642.99,253.78 641.18,254.41 639.53,254.81C637.58,255.28 635.38,255.59 633.69,254.51C633.13,256.08 634.14,257.96 635.68,258.59C639.57,260.17 643.06,255.54 643.7,252.25Z" style="fill-rule:nonzero;"/>
            <path d="M672.35,283.41C673.51,282.57 674.39,281.33 674.8,279.71C673.84,280.75 672.39,281.16 671.02,281.48C668,282.19 665.06,282.66 662,281.9C663.28,283.3 665.05,284.26 666.92,284.55C668.97,284.87 670.89,284.46 672.35,283.41Z" style="fill-rule:nonzero;"/>
            <path d="M587.69,238.98C588.88,239.82 590.09,240.67 591.06,241.77C592.03,242.86 592.75,244.24 592.8,245.7C592.85,247.16 592.1,248.69 590.77,249.31C592.4,250 594.48,249.38 595.47,247.91C597.7,244.6 594.36,241.26 591.48,239.01C595.96,240.77 600.32,242.81 604.54,245.12C605.99,245.92 607.54,246.88 608.08,248.45C608.87,250.78 606.68,252.7 604.46,252.66C606.18,252.98 608.11,253.26 609.55,252.28C611,251.29 611.16,249.47 610.75,247.86C610.27,245.98 608.61,244.67 607,243.61C603.6,241.37 599.92,239.55 596.07,238.21C595.1,237.87 594.14,237.5 593.17,237.14C594.36,237.32 595.56,237.44 596.77,237.51C598.89,237.63 601.29,237.78 603.37,237.27C604.97,236.88 606.93,235.84 606.94,233.97C606.95,233 606.52,232.08 606,231.27C605.7,232.62 604.63,233.7 603.39,234.31C602.15,234.92 600.76,235.12 599.38,235.24C595,235.6 590.55,235.13 586.34,233.85C585.71,233.66 585.08,233.45 584.45,233.25C583.81,233.96 583.17,234.67 582.52,235.36C584.25,236.55 585.97,237.77 587.69,238.98Z" style="fill-rule:nonzero;"/>
            <path d="M522.84,176.7L522.91,177.33C524.1,188.78 529.63,199.26 539.33,208.46C540.04,209.13 540.75,209.81 541.47,210.49C544.57,215.66 546.8,221.36 548,227.27C548.68,224.94 548.62,222.44 548.14,220.06C547.81,218.41 547.29,216.81 546.68,215.24C548.78,217.07 550.94,218.83 553.21,220.46C557.8,223.74 562.76,226.4 567,228.56L568.4,225.81C564.26,223.7 559.43,221.11 555,217.94C552.76,216.34 550.62,214.58 548.53,212.76C552.81,213.89 557.59,213.02 561.61,211.02C556.1,211.47 550.5,210.89 545.2,209.33C544.97,209.26 544.74,209.19 544.52,209.12C543.49,208.16 542.46,207.19 541.45,206.23C532.29,197.55 527.08,187.72 525.97,177.02L525.9,176.39C525.82,175.64 525.75,174.89 525.66,174.15L522.6,174.51C522.69,175.24 522.76,175.97 522.84,176.7Z" style="fill-rule:nonzero;"/>
            <path d="M616.6,169.03C619.07,168.44 621.98,169.81 622.74,172.23C622.93,172.82 622.99,173.44 622.99,174.06C622.97,177.43 620.96,180.6 618.19,182.51C616.17,183.9 613.8,184.66 611.36,184.97C611.16,187.98 610.84,190.98 610.39,193.97C612.93,193.76 615.5,193.93 618,194.4C620.37,194.84 623.1,195.69 624.61,197.71C625.56,198.99 626.12,200.56 626.17,202.16C626.23,204.62 625.11,206.87 622.67,207.71C621.09,208.25 619.26,207.99 617.89,207.02C617.61,206.82 617.34,206.58 617.14,206.3C616.8,205.81 616.67,205.21 616.56,204.63C615.88,206.42 616.27,208.42 617.32,209.98C619.21,212.78 622.71,213.4 625.67,212.11C632.39,209.16 633.53,199.92 629.29,194.38C628.11,192.84 626.55,191.6 624.8,190.76C629.83,190.07 635.15,191.1 639.99,192.82C640.74,193.09 641.5,193.36 642.24,193.66C647.76,195.91 652.4,201.14 653.25,207.13C653.96,212.11 652.43,218.5 647.33,220.61C645.39,221.41 643.19,221.51 641.16,220.98C639.59,220.57 637.93,219.55 637.76,217.94C637.62,216.61 638.59,215.37 639.78,214.77C640.97,214.17 642.35,214.08 643.68,214C642.44,212.05 638.72,211.88 636.87,212.91C634.65,214.14 634.01,217.5 634.72,219.72C635.62,222.57 638.74,225.1 641.74,225.29C645.48,225.53 649.33,224.55 652.37,222.36C656.17,219.63 658.07,215.46 658.24,210.86C658.48,204.27 655.95,197.27 651.17,192.65C647.05,188.66 641.59,186.32 636.04,185.15C632.24,184.35 627.7,183.96 623.55,184.6C626.47,181.49 628.61,177.43 628.62,173.32C628.64,168.29 624.49,163.66 619.37,163.56C616.74,163.51 614.08,164.74 612.51,166.86C610.95,168.98 610.57,171.95 611.66,174.35C612.25,171.86 614.13,169.62 616.6,169.03Z" style="fill-rule:nonzero;"/>
            <path d="M565.69,278.68C555.04,277.42 545.1,284.9 541.3,294.55C541.41,292.11 542.13,289.69 543.39,287.59C546.17,282.96 551.27,280.15 554.32,275.69C554.92,274.82 555.44,273.85 555.55,272.8C555.74,271 554.54,269.15 552.82,268.59C551.1,268.03 549.04,268.81 548.13,270.37C548.56,268.24 550.16,266.33 552.26,265.76C554.36,265.19 556.83,266.12 557.85,268.04C558.33,268.95 558.49,270.01 558.5,271.04C558.52,273.09 558.01,275.14 557.02,276.93C557.55,275.96 559.16,275.06 560.08,274.49C561.22,273.79 562.48,273.18 563.78,272.83C566.4,272.1 568.91,271.35 571.69,271.3C574.05,271.26 576.46,271.36 578.7,270.62C580.3,270.09 581.19,268.85 580.21,267.29C579.41,266.01 577.69,265.5 576.26,265.47C574.9,265.45 573.4,265.79 572.58,266.88C573,266.31 573.15,265.56 573.64,264.99C574.17,264.38 574.83,263.88 575.57,263.54C577.13,262.83 579.16,262.75 580.75,263.38C583.13,264.33 584.02,266.94 583.69,269.35C583.25,272.53 580.97,274.39 577.87,274.7C576.37,274.85 574.86,274.73 573.35,274.76C570.55,274.81 567.77,275.63 565.16,276.65C568.63,276.23 572.46,275.81 575.21,278.35C577.49,280.45 578.07,283.7 576.25,286.3C575.47,287.42 574.11,288.19 572.76,288.02C573.11,287.12 573.42,286.19 573.51,285.23C573.89,281.18 569.05,279.08 565.69,278.68Z" style="fill-rule:nonzero;"/>
            <path d="M597.17,320.55C595.94,318.72 594.97,316.72 594.79,314.65C594.6,312.51 595.48,310.15 597.38,309.17C599.17,308.24 601.41,308.74 603.14,309.77C602.34,308.04 600.28,307.29 598.4,307.03C595.49,306.62 592.36,308.11 591.4,311.04C590.76,313 591.17,315.23 592.27,316.98C590.94,315.97 589.89,314.61 589.24,313.08C588.53,311.39 588.24,309.39 586.85,308.18C585.64,307.13 583.87,306.98 582.28,307.17C583.61,307.86 584.66,309.06 585.18,310.46C585.55,311.48 585.65,312.57 585.9,313.63C586.49,316.09 587.95,318.32 589.96,319.84C588.15,318.63 585.76,318.24 583.74,319.03C581.71,319.82 580.18,321.86 580.18,324.03C580.19,326.12 581.58,328.07 583.43,329.05C584.89,329.83 586.73,330.06 588.21,329.33C586.61,328.49 584.83,327.4 584.55,325.61C584.31,324.06 585.42,322.5 586.88,321.91C588.34,321.31 590.02,321.53 591.47,322.13C592.92,322.73 594.2,323.69 595.48,324.6C597.25,325.86 598.74,327.43 600.6,328.61C602.47,329.8 604.48,330.77 606.58,331.47C604.33,329.21 602.25,326.78 600.16,324.37C599.18,323.22 598.1,321.93 597.17,320.55Z" style="fill-rule:nonzero;"/>
            <g>
                <g>
                    <path d="M354.1,234.97C354.1,234.97 384.74,226.16 417.14,213.55C419.22,212.74 421.21,211.97 423.09,211.24C428.4,209.18 432.96,207.41 436.84,205.91C445.51,202.56 450.86,200.52 453.97,199.35C449.66,197.51 445.79,194.63 442.87,190.96C439.9,187.21 437.9,182.64 437.49,177.88C436.91,170.98 440.25,164.09 445.96,160.2C450.62,157.02 456.96,156.78 462.25,158.45C465.68,159.53 468.63,162.4 469.97,165.74C472.18,171.25 469.04,176.96 464.17,179.64C465.26,177.58 464.68,174.89 463.09,173.19C461.5,171.49 459.08,170.72 456.76,170.79C455.18,170.84 453.55,171.28 452.4,172.36C450.88,173.79 450.48,176.09 450.69,178.17C451.5,186.15 459.48,190.77 466.96,188.62C472.31,187.08 476.38,182.31 477.94,176.97C479.65,171.12 479.15,162.54 475.21,157.69C469.51,150.65 460.55,148.4 451.82,149.42C442.43,150.52 434.58,156.64 430.42,165.01C426.47,172.98 426.53,182.3 429.1,190.68C430.57,195.47 432.93,199.99 435.71,204.27C431.14,205.99 426.59,207.74 422.05,209.52C419.09,204.31 416.84,198.7 415.41,192.88C412.02,179.03 412.91,162.74 421.94,151.12C432.7,137.29 454.6,130.59 470.92,137.65C487.17,144.68 495.82,163.34 490.78,180.28C488.48,188.01 483.47,194.81 477.28,199.8C467.91,207.34 457.27,213.18 446.26,218.15C441.79,220.17 437.25,222.05 432.72,223.84C430.09,224.88 427.46,225.89 424.84,226.87C414.03,230.95 402.99,234.33 392.1,238.15C396.66,241.05 406.35,247.63 416.33,256.97C412.54,259.03 408.75,261.08 404.96,263.14C381.83,242.91 354.1,234.97 354.1,234.97Z" style="fill-rule:nonzero;"/>
                    <path d="M501.4,306.29C499.23,318.09 491.6,329.03 479.49,332.01C479.24,332.07 478.99,332.13 478.73,332.19C475.85,332.82 472.9,333.1 469.96,333.02C462.77,332.83 453.97,329.82 449.96,323.57C446.4,318.02 443.86,311.97 443.74,305.46L380.54,305.46C368.55,306.26 355.13,304.28 344.84,297.85C339.38,294.44 334.93,289.05 332.3,283.2C327.24,271.91 330.02,256.22 339.71,248.2C351.13,238.74 373.13,239.47 380.14,254.01C382.66,259.25 383.52,265.47 381.53,270.94C378.35,279.72 367.38,284.25 359.06,279.52C356.15,277.87 353.85,275.03 353.21,271.75C352.57,268.47 353.76,264.8 356.43,262.79C357.94,261.66 359.79,261.09 361.6,260.55C359.63,262.13 359.11,265.3 360.59,267.36C362.06,269.42 365.35,269.91 367.29,268.29C368.57,267.23 369.15,265.54 369.36,263.89C369.62,261.8 369.34,259.57 368.21,257.79C365.68,253.8 360,254.16 356.06,255.3C348.54,257.47 343.68,265.5 344.53,273.2C345.02,277.67 346.95,282.05 350.1,285.29C357.92,293.3 370.35,293.67 380.81,293.67L428.58,293.67C425.36,286.73 421.24,280.5 416.6,274.93C417.31,274.58 418.02,274.23 418.74,273.89C421.87,272.4 424.98,270.87 428.08,269.33C434.06,276.55 439.38,284.74 442.81,293.67L446.77,293.67C448.2,291.39 450.11,289.42 452.44,287.92C456.74,285.14 462.72,284.31 467.75,285.06C475.38,286.2 481.65,291.16 482.36,299.1C482.74,303.39 481.36,307.99 478.04,310.73C473.4,314.56 466.47,313.21 464.01,307.68C463.69,306.96 463.45,306.22 463.25,305.46C463.92,305.77 464.62,306.02 465.34,306.21C465.75,306.32 466.16,306.41 466.58,306.43C468.19,306.5 469.75,305.39 470.32,303.88C470.89,302.37 470.5,300.57 469.44,299.35C466.27,295.69 460.53,297.61 458.11,301.16C455.12,305.56 457.08,311.09 460.47,314.62C464.15,318.45 469.77,319.78 474.93,318.58C483.43,316.61 488.06,308.58 488.9,300.4C490.83,281.69 475.57,266.92 463.26,255.07C455.75,247.85 448.1,240.77 440.86,233.27C438.59,230.92 436.52,228.42 434.46,225.91C437.31,224.66 443.14,222.08 447.8,219.91C460.02,234.08 474.17,246.38 486.71,260.26C489.06,262.86 491.24,265.41 492.98,268.42C494.83,271.63 496.42,274.98 497.82,278.42C501.4,287.2 503.13,296.88 501.4,306.29Z" style="fill-rule:nonzero;"/>
                </g>
            </g>
            <path d="M512,102.21C511.95,102.49 511.89,102.77 511.82,103.04C511.89,102.77 511.95,102.49 512,102.21Z" style="fill-rule:nonzero;"/>
            <path d="M512,102.21C512.11,102.77 512.24,103.32 512.4,103.87C512.24,103.32 512.11,102.77 512,102.21Z" style="fill-rule:nonzero;"/>
            <path d="M526.33,204.08C518.4,189.9 515.61,172.73 520.43,157.05C520.84,155.71 521.4,154.19 522.09,152.66C524.69,146.9 529.26,140.8 535.86,141.94C536.53,142.06 537.2,142.21 537.88,142.36C539.32,142.68 540.76,142.96 542.2,142.72C542.54,142.66 542.88,142.57 543.2,142.46C545.73,141.56 547.58,139.02 547.99,136.33C548.42,133.51 547.51,130.63 546,128.19C546.19,129.37 546.18,130.56 545.81,131.68C545.53,132.52 545,133.31 544.33,133.88C543.59,134.51 542.68,134.89 541.71,134.84C539.12,134.69 537.69,131.87 535.79,130.09C533.18,127.66 529.1,127.13 525.78,128.44C525.54,128.53 525.3,128.64 525.07,128.74C523.74,129.23 522.47,129.89 521.29,130.67C521.3,130.65 521.31,130.62 521.32,130.6C521.47,130.27 521.62,129.94 521.76,129.6C521.79,129.53 521.82,129.47 521.84,129.4C521.99,129.01 522.14,128.62 522.27,128.23C522.38,127.88 522.49,127.53 522.58,127.17C522.67,126.81 522.75,126.46 522.82,126.09C523.23,123.92 523.19,121.68 522.49,119.6C522.31,119.06 522.08,118.54 521.83,118.04C521.58,117.54 521.29,117.05 520.98,116.58C520.67,116.11 520.34,115.65 519.99,115.2C519.64,114.75 519.27,114.31 518.9,113.87C518.71,113.65 518.52,113.43 518.33,113.22C517,111.7 515.62,110.2 514.53,108.52C513.83,107.45 513.26,106.29 512.81,105.09C512.66,104.69 512.53,104.28 512.41,103.87C512.25,103.32 512.12,102.77 512.01,102.21C511.96,102.49 511.9,102.77 511.83,103.04C511.36,104.98 510.57,106.84 509.49,108.51C508.79,109.59 507.97,110.6 507.12,111.58C506.84,111.91 506.55,112.23 506.26,112.56C504.73,114.3 503.2,116.02 502.18,118.03C501.93,118.53 501.7,119.05 501.52,119.59C501.08,120.89 500.9,122.25 500.93,123.62C500.95,124.44 501.04,125.27 501.19,126.08C501.26,126.44 501.34,126.8 501.43,127.16C501.52,127.52 501.62,127.87 501.74,128.22C501.87,128.62 502.02,129.01 502.17,129.39C502.2,129.46 502.23,129.52 502.25,129.59C502.39,129.93 502.53,130.26 502.69,130.59C502.7,130.61 502.71,130.64 502.72,130.66C501.54,129.88 500.27,129.22 498.94,128.73C498.71,128.62 498.47,128.52 498.23,128.43C494.91,127.12 490.83,127.65 488.22,130.08C486.32,131.85 484.9,134.68 482.3,134.83C481.33,134.88 480.42,134.5 479.68,133.87C479,133.29 478.47,132.51 478.2,131.67C477.83,130.55 477.82,129.35 478.01,128.18C476.5,130.62 475.59,133.5 476.02,136.32C476.43,139.01 478.28,141.56 480.81,142.45C481.13,142.56 481.47,142.66 481.81,142.71C483.25,142.95 484.69,142.67 486.13,142.35C486.8,142.2 487.48,142.05 488.15,141.93C494.75,140.79 499.33,146.89 501.92,152.65C502.61,154.19 503.17,155.7 503.58,157.04C508.39,172.73 505.61,189.9 497.68,204.07C490.14,217.55 478.85,227.24 466.12,235.11C469.2,238.28 472.33,241.39 475.51,244.45C484.45,238.58 492.62,231.72 499.12,223.15C503.8,216.99 508.25,210.87 511.02,203.63C511.36,202.75 511.69,201.85 512.01,200.95C512.33,201.85 512.66,202.75 513,203.63C515.76,210.87 520.21,216.98 524.9,223.15C531.41,231.72 539.57,238.58 548.51,244.45C551.69,241.39 554.83,238.28 557.9,235.11C545.17,227.25 533.87,217.56 526.33,204.08Z" style="fill-rule:nonzero;"/>
            <g>
                <path d="M383.95,307.47C383.63,310.51 383.96,313.55 385.19,316.45C387.18,321.16 391.52,324.8 396.5,325.95C399.51,326.64 402.9,326.38 405.33,324.48C407.76,322.57 408.75,318.75 406.92,316.26C404.97,313.62 400.99,313.55 397.87,314.57C399.38,310.47 403.93,307.85 408.29,308.18C412.65,308.51 416.59,311.51 418.5,315.45C420.4,319.39 420.38,324.11 418.89,328.22C414.9,339.24 400.98,341.56 390.98,337.94C378.8,333.53 371.51,319.91 371.44,307.14C375.6,307.37 379.77,307.48 383.95,307.47Z" style="fill-rule:nonzero;"/>
                <path d="M458.34,254.31C446.64,260.31 434.24,264.63 422.48,270.26C412.89,274.85 402.58,279.08 394.9,286.85C393.39,288.37 391.9,290.11 390.52,292.01C385.45,291.91 380.38,291.88 375.3,291.7C378.72,285.21 384.07,279.61 389.99,275.16C401.69,266.36 414.7,260.38 427.91,254.29C435.02,251.01 442.35,247.74 449.55,244.18C452.85,247.36 456.15,250.55 459.45,253.73C459.08,253.92 458.71,254.12 458.34,254.31Z" style="fill-rule:nonzero;"/>
            </g>
            <path d="M351.38,312.3C351.48,313.86 352.47,315.26 353.69,316.24C356.66,318.63 360.77,318.86 364.58,318.85C364.85,318.85 365.13,318.85 365.38,318.94C365.68,319.05 365.93,319.27 366.17,319.47C366.66,319.87 367.19,320.19 367.75,320.46C367.19,320.73 366.66,321.05 366.17,321.45C365.92,321.65 365.68,321.87 365.38,321.98C365.12,322.07 364.85,322.07 364.58,322.07C360.77,322.06 356.66,322.29 353.69,324.68C352.47,325.66 351.48,327.06 351.38,328.62C351.28,330.18 352.26,331.87 353.8,332.2C352.28,332.93 350.53,333.27 348.89,332.88C347.25,332.49 345.77,331.26 345.33,329.64C344.89,328.01 345.71,326.06 347.28,325.45C344.62,325.34 341.94,324.98 339.45,324.02C337.44,323.25 335.57,322.06 334.13,320.47C335.56,318.88 337.44,317.69 339.45,316.92C341.94,315.97 344.62,315.61 347.28,315.49C345.71,314.88 344.9,312.93 345.33,311.3C345.77,309.67 347.25,308.45 348.89,308.06C350.53,307.67 352.28,308.01 353.8,308.74C352.27,309.05 351.28,310.73 351.38,312.3Z" style="fill-rule:nonzero;"/>
            <path d="M303,299.36C303.94,297.87 305.02,296.46 306.24,295.18C308.53,292.79 311.17,290.77 313.82,288.79C312.63,289.68 309.87,289.46 308.5,289.27C306.87,289.04 305.17,288.61 303.75,287.75C301.37,286.31 300.31,283.72 299.94,281.07C299.54,278.19 299.48,275.31 300.15,272.46C301.67,274.42 303.42,276.5 305.85,276.98C308.49,277.51 310.73,275.86 313.28,275.8C315.59,275.75 318.29,277.06 320.11,278.36C319.75,277.63 319.39,276.9 319.24,276.1C318.94,274.54 319.71,273.18 321.2,272.62C322.35,272.19 323.66,272.25 324.86,272.37C327.72,272.65 329.05,275.69 328.02,278.31C328.6,278.39 329.17,278.54 329.71,278.76C329.86,279.36 330.04,279.95 330.23,280.54C324.3,280.27 322.03,282.45 322.03,282.45C322.03,282.45 326.2,281.05 330.65,281.7C330.79,282.05 330.93,282.4 331.09,282.75C318.29,281.33 315.27,287.03 315.27,287.03C315.27,287.03 321.03,282.28 331.86,284.33C331.93,284.47 332,284.6 332.07,284.73C317.16,283.45 312.32,292.98 312.32,292.98C312.32,292.98 319.02,285.3 332.76,285.94C332.91,286.19 333.05,286.43 333.21,286.68L333.21,286.67C322.8,285.83 320.54,290.81 320.54,290.81C320.54,290.81 324.31,287.15 333.97,287.85C334.16,288.14 334.36,288.43 334.56,288.72C333.08,289.07 331.68,289.82 330.33,290.55C329.86,290.81 329.36,291.1 329.15,291.59C328.85,292.33 329.36,293.17 330.02,293.62C330.68,294.07 331.47,294.27 332.15,294.69C333.91,295.77 334.55,298.2 333.94,300.17C333.66,301.09 333.14,301.95 332.36,302.51C329.45,304.61 325.44,301.48 326.01,298.17C325.33,299.17 325.12,300.41 325.1,301.62C325.08,302.83 325.24,304.03 325.21,305.24C325.2,305.78 325.15,306.33 324.9,306.81C324.58,307.45 323.94,307.91 323.68,308.57C323.3,309.54 323.81,310.62 324.3,311.54C322.71,311.47 321.11,311.41 319.57,311.03C318.03,310.65 316.53,309.92 315.48,308.73C314.99,308.17 314.6,307.51 314.32,306.82C313.39,304.54 313.56,301.73 314.51,299.5C315.61,296.92 317.63,294.7 320.22,293.62C318.49,293.96 316.92,294.85 315.46,295.82C310.73,298.95 306.64,303.29 304.72,308.62C303.76,311.27 303.6,313.96 303.4,316.73C303.23,319.03 303.81,321.63 305.14,323.53C306.29,325.18 307.95,326.46 309.78,327.28C315.09,329.64 324.66,329.18 324.89,321.49C324.93,320.16 324.49,318.69 323.32,318.06C322.22,317.46 320.67,317.91 320.06,319.01C319.45,320.11 319.9,321.66 320.99,322.27C320.12,322.28 319.3,321.79 318.76,321.11C318.23,320.43 317.96,319.57 317.84,318.71C317.46,315.88 319.96,314.14 322.54,314.05C326.21,313.92 328.48,316.87 328.88,320.32C329.46,325.28 326.74,329.92 322.02,331.53C319.6,332.36 317.01,332.49 314.45,332.52C309.08,332.58 303.87,329.54 300.88,325.06C295.68,317.25 298.35,306.76 303,299.36Z" style="fill-rule:nonzero;"/>
            <path d="M380.3,252.25C381.01,253.78 382.82,254.41 384.47,254.81C386.42,255.28 388.62,255.59 390.31,254.51C390.87,256.08 389.86,257.96 388.32,258.59C384.43,260.17 380.94,255.54 380.3,252.25Z" style="fill-rule:nonzero;"/>
            <path d="M351.65,283.41C350.49,282.57 349.61,281.33 349.2,279.71C350.16,280.75 351.61,281.16 352.98,281.48C356,282.19 358.94,282.66 362,281.9C360.72,283.3 358.95,284.26 357.08,284.55C355.03,284.87 353.11,284.46 351.65,283.41Z" style="fill-rule:nonzero;"/>
            <path d="M436.31,238.98C435.12,239.82 433.91,240.67 432.94,241.77C431.97,242.86 431.25,244.24 431.2,245.7C431.15,247.16 431.9,248.69 433.23,249.31C431.6,250 429.52,249.38 428.53,247.91C426.3,244.6 429.64,241.26 432.52,239.01C428.04,240.77 423.68,242.81 419.46,245.12C418.01,245.92 416.46,246.88 415.92,248.45C415.13,250.78 417.32,252.7 419.54,252.66C417.82,252.98 415.89,253.26 414.45,252.28C413,251.29 412.84,249.47 413.25,247.86C413.73,245.98 415.39,244.67 417,243.61C420.4,241.37 424.08,239.55 427.93,238.21C428.9,237.87 429.86,237.5 430.83,237.14C429.64,237.32 428.44,237.44 427.23,237.51C425.11,237.63 422.71,237.78 420.63,237.27C419.03,236.88 417.07,235.84 417.06,233.97C417.05,233 417.48,232.08 418,231.27C418.3,232.62 419.37,233.7 420.61,234.31C421.85,234.92 423.24,235.12 424.62,235.24C429,235.6 433.45,235.13 437.66,233.85C438.29,233.66 438.92,233.45 439.55,233.25C440.19,233.96 440.83,234.67 441.48,235.36C439.75,236.55 438.03,237.77 436.31,238.98Z" style="fill-rule:nonzero;"/>
            <path d="M501.16,176.7L501.09,177.33C499.9,188.78 494.37,199.26 484.67,208.46C483.96,209.13 483.25,209.81 482.53,210.49C479.43,215.66 477.2,221.36 476,227.27C475.32,224.94 475.38,222.44 475.86,220.06C476.19,218.41 476.71,216.81 477.32,215.24C475.22,217.07 473.06,218.83 470.79,220.46C466.2,223.74 461.24,226.4 457,228.56L455.6,225.81C459.74,223.7 464.57,221.11 469,217.94C471.24,216.34 473.38,214.58 475.47,212.76C471.19,213.89 466.41,213.02 462.39,211.02C467.9,211.47 473.5,210.89 478.8,209.33C479.03,209.26 479.26,209.19 479.48,209.12C480.51,208.16 481.54,207.19 482.55,206.23C491.71,197.55 496.92,187.72 498.03,177.02L498.1,176.39C498.18,175.64 498.25,174.89 498.34,174.15L501.4,174.51C501.31,175.24 501.24,175.97 501.16,176.7Z" style="fill-rule:nonzero;"/>
            <path d="M407.4,169.03C404.93,168.44 402.02,169.81 401.26,172.23C401.07,172.82 401.01,173.44 401.01,174.06C401.03,177.43 403.04,180.6 405.81,182.51C407.83,183.9 410.2,184.66 412.64,184.97C412.84,187.98 413.16,190.98 413.61,193.97C411.07,193.76 408.5,193.93 406,194.4C403.63,194.84 400.9,195.69 399.39,197.71C398.44,198.99 397.88,200.56 397.83,202.16C397.77,204.62 398.89,206.87 401.33,207.71C402.91,208.25 404.74,207.99 406.11,207.02C406.39,206.82 406.66,206.58 406.86,206.3C407.2,205.81 407.33,205.21 407.44,204.63C408.12,206.42 407.73,208.42 406.68,209.98C404.79,212.78 401.29,213.4 398.33,212.11C391.61,209.16 390.47,199.92 394.71,194.38C395.89,192.84 397.45,191.6 399.2,190.76C394.17,190.07 388.85,191.1 384.01,192.82C383.26,193.09 382.5,193.36 381.76,193.66C376.24,195.91 371.6,201.14 370.75,207.13C370.04,212.11 371.57,218.5 376.67,220.61C378.61,221.41 380.81,221.51 382.84,220.98C384.41,220.57 386.07,219.55 386.24,217.94C386.38,216.61 385.41,215.37 384.22,214.77C383.03,214.17 381.65,214.08 380.32,214C381.56,212.05 385.28,211.88 387.13,212.91C389.35,214.14 389.99,217.5 389.28,219.72C388.38,222.57 385.26,225.1 382.26,225.29C378.52,225.53 374.67,224.55 371.63,222.36C367.83,219.63 365.93,215.46 365.76,210.86C365.52,204.27 368.05,197.27 372.83,192.65C376.95,188.66 382.41,186.32 387.96,185.15C391.76,184.35 396.3,183.96 400.45,184.6C397.53,181.49 395.39,177.43 395.38,173.32C395.36,168.29 399.51,163.66 404.63,163.56C407.26,163.51 409.92,164.74 411.49,166.86C413.05,168.98 413.43,171.95 412.34,174.35C411.75,171.86 409.87,169.62 407.4,169.03Z" style="fill-rule:nonzero;"/>
            <path d="M458.31,278.68C468.96,277.42 478.9,284.9 482.7,294.55C482.59,292.11 481.87,289.69 480.61,287.59C477.83,282.96 472.73,280.15 469.68,275.69C469.08,274.82 468.56,273.85 468.45,272.8C468.26,271 469.46,269.15 471.18,268.59C472.9,268.03 474.96,268.81 475.87,270.37C475.44,268.24 473.84,266.33 471.74,265.76C469.64,265.19 467.17,266.12 466.15,268.04C465.66,268.95 465.51,270.01 465.5,271.04C465.48,273.09 465.99,275.14 466.98,276.93C466.45,275.96 464.84,275.06 463.92,274.49C462.78,273.79 461.52,273.18 460.22,272.83C457.59,272.1 455.09,271.35 452.31,271.3C449.95,271.26 447.54,271.36 445.3,270.62C443.7,270.09 442.81,268.85 443.79,267.29C444.59,266.01 446.31,265.5 447.74,265.47C449.1,265.45 450.6,265.79 451.42,266.88C451,266.31 450.85,265.56 450.36,264.99C449.83,264.38 449.17,263.88 448.43,263.54C446.87,262.83 444.84,262.75 443.25,263.38C440.87,264.33 439.98,266.94 440.31,269.35C440.75,272.53 443.03,274.39 446.13,274.7C447.63,274.85 449.14,274.73 450.65,274.76C453.45,274.81 456.23,275.63 458.84,276.65C455.37,276.23 451.54,275.81 448.79,278.35C446.51,280.45 445.93,283.7 447.75,286.3C448.53,287.42 449.89,288.19 451.24,288.02C450.89,287.12 450.58,286.19 450.49,285.23C450.11,281.18 454.95,279.08 458.31,278.68Z" style="fill-rule:nonzero;"/>
            <path d="M426.83,320.55C428.06,318.72 429.03,316.72 429.21,314.65C429.4,312.51 428.52,310.15 426.62,309.17C424.83,308.24 422.59,308.74 420.86,309.77C421.66,308.04 423.72,307.29 425.6,307.03C428.51,306.62 431.64,308.11 432.6,311.04C433.24,313 432.83,315.23 431.73,316.98C433.06,315.97 434.11,314.61 434.76,313.08C435.47,311.39 435.76,309.39 437.15,308.18C438.36,307.13 440.13,306.98 441.72,307.17C440.39,307.86 439.34,309.06 438.82,310.46C438.45,311.48 438.35,312.57 438.1,313.63C437.51,316.09 436.05,318.32 434.04,319.84C435.85,318.63 438.24,318.24 440.26,319.03C442.29,319.82 443.82,321.86 443.82,324.03C443.81,326.12 442.42,328.07 440.57,329.05C439.11,329.83 437.27,330.06 435.79,329.33C437.39,328.49 439.17,327.4 439.45,325.61C439.69,324.06 438.58,322.5 437.12,321.91C435.66,321.31 433.98,321.53 432.53,322.13C431.08,322.73 429.8,323.69 428.52,324.6C426.75,325.86 425.26,327.43 423.4,328.61C421.53,329.8 419.52,330.77 417.42,331.47C419.67,329.21 421.75,326.78 423.84,324.37C424.82,323.22 425.9,321.93 426.83,320.55Z" style="fill-rule:nonzero;"/>
        </g>
    </g>
</svg>
