<?xml version="1.0" encoding="UTF-8" standalone="no"?>
<!DOCTYPE svg PUBLIC "-//W3C//DTD SVG 1.1//EN" "http://www.w3.org/Graphics/SVG/1.1/DTD/svg11.dtd">
<svg width="100%" height="100%" viewBox="0 0 583 645" version="1.1" xmlns="http://www.w3.org/2000/svg" xmlns:xlink="http://www.w3.org/1999/xlink" xml:space="preserve" xmlns:serif="http://www.serif.com/" style="fill-rule:evenodd;clip-rule:evenodd;stroke-linejoin:round;stroke-miterlimit:2;">
    <g transform="matrix(1,0,0,1,-6567,-452)">
        <g transform="matrix(5.55556,0,0,5.55556,6114.94,0)">
            <g transform="matrix(1,0,0,1,97.9223,160.335)">
                <path d="M0,-42.007L0,-48.088L9.936,-48.088L9.936,-42.007L0,-42.007ZM14.362,-52.516L14.362,-62.309L20.445,-62.309L20.445,-52.516L14.362,-52.516ZM9.936,-52.516L0,-52.516L0,-56.878L5.433,-56.878L5.433,-62.309L9.936,-62.309L9.936,-52.516ZM-12.084,-52.516L-12.084,-74.534L9.936,-74.534L9.936,-64.74L5.433,-64.74L5.433,-70.171L-7.861,-70.171L-7.861,-56.878L-2.428,-56.878L-2.428,-52.516L-12.084,-52.516ZM-12.083,36.955L-12.083,22.793L-12.084,-37.579L-2.428,-37.579L-2.428,36.955L0,36.955L0,-37.579L14.362,-37.579L14.362,-48.088L24.871,-48.088L24.871,-62.309L88.229,-62.309C88.227,-63.125 88.225,-63.933 88.222,-64.74L24.871,-64.74L24.871,-74.534L88.186,-74.534C88.18,-76.029 88.173,-77.507 88.166,-78.962L20.445,-78.962L20.445,-64.74L14.362,-64.74L14.362,-78.962L-16.509,-78.962L-16.509,-48.088L-2.428,-48.088L-2.428,-42.007L-16.509,-42.007L-16.509,36.955L-12.083,36.955Z" style="fill:rgb(206,23,30);fill-rule:nonzero;"/>
            </g>
        </g>
    </g>
</svg>
