<?xml version="1.0" encoding="UTF-8" standalone="no"?>
<!DOCTYPE svg PUBLIC "-//W3C//DTD SVG 1.1//EN" "http://www.w3.org/Graphics/SVG/1.1/DTD/svg11.dtd">
<svg width="100%" height="100%" viewBox="0 0 583 645" version="1.1" xmlns="http://www.w3.org/2000/svg" xmlns:xlink="http://www.w3.org/1999/xlink" xml:space="preserve" xmlns:serif="http://www.serif.com/" style="fill-rule:evenodd;clip-rule:evenodd;stroke-linejoin:round;stroke-miterlimit:2;">
    <g transform="matrix(1,0,0,1,-10345,-3013)">
        <g transform="matrix(5.55556,0,0,5.55556,6114.94,0)">
            <g transform="matrix(1,0,0,1,849.763,579.404)">
                <path d="M0,42.007L0,48.088L-9.936,48.088L-9.936,42.007L0,42.007ZM-14.362,52.516L-14.362,62.309L-20.445,62.309L-20.445,52.516L-14.362,52.516ZM-9.936,52.516L0,52.516L0,56.878L-5.433,56.878L-5.433,62.309L-9.936,62.309L-9.936,52.516ZM12.083,52.516L12.083,74.534L-9.936,74.534L-9.936,64.74L-5.433,64.74L-5.433,70.171L7.861,70.171L7.861,56.878L2.428,56.878L2.428,52.516L12.083,52.516ZM12.083,-36.955L12.083,37.579L2.428,37.579L2.428,-36.955L0,-36.955L0,37.579L-14.362,37.579L-14.362,48.088L-24.871,48.088L-24.871,62.309L-88.229,62.309C-88.227,63.125 -88.225,63.933 -88.222,64.74L-24.871,64.74L-24.871,74.534L-88.186,74.534C-88.18,76.029 -88.173,77.507 -88.166,78.962L-20.445,78.962L-20.445,64.74L-14.362,64.74L-14.362,78.962L16.509,78.962L16.509,48.088L2.428,48.088L2.428,42.007L16.509,42.007L16.509,-36.955L12.083,-36.955Z" style="fill:rgb(206,23,30);fill-rule:nonzero;"/>
            </g>
        </g>
    </g>
</svg>
