<?xml version="1.0" encoding="UTF-8" standalone="no"?>
<!DOCTYPE svg PUBLIC "-//W3C//DTD SVG 1.1//EN" "http://www.w3.org/Graphics/SVG/1.1/DTD/svg11.dtd">
<svg width="100%" height="100%" viewBox="0 0 583 645" version="1.1" xmlns="http://www.w3.org/2000/svg" xmlns:xlink="http://www.w3.org/1999/xlink" xml:space="preserve" xmlns:serif="http://www.serif.com/" style="fill-rule:evenodd;clip-rule:evenodd;stroke-linejoin:round;stroke-miterlimit:2;">
    <g transform="matrix(1,0,0,1,-10345,-452)">
        <g transform="matrix(5.55556,0,0,5.55556,6114.94,0)">
            <g transform="matrix(1,0,0,1,839.826,160.335)">
                <path d="M0,-42.007L0,-48.088L9.936,-48.088L9.936,-42.007L0,-42.007ZM-10.509,-52.516L-10.509,-62.309L-4.426,-62.309L-4.426,-52.516L-10.509,-52.516ZM0,-52.516L0,-62.309L4.503,-62.309L4.503,-56.878L9.936,-56.878L9.936,-52.516L0,-52.516ZM12.364,-52.516L12.364,-56.878L17.797,-56.878L17.797,-70.171L4.504,-70.171L4.503,-64.74L0,-64.74L0,-74.534L22.02,-74.534L22.02,-52.516L12.364,-52.516ZM22.019,36.955L26.445,36.955L26.445,-42.007L12.364,-42.007L12.364,-48.088L26.445,-48.088L26.445,-78.962L-4.426,-78.962L-4.426,-64.74L-10.509,-64.74L-10.509,-78.962L-78.229,-78.962C-78.237,-77.507 -78.244,-76.029 -78.25,-74.534L-14.935,-74.534L-14.935,-64.74L-78.286,-64.74C-78.288,-63.933 -78.291,-63.125 -78.293,-62.309L-14.935,-62.309L-14.935,-48.088L-4.426,-48.088L-4.426,-37.579L9.936,-37.579L9.936,36.955L12.364,36.955L12.364,-37.579L22.02,-37.579L22.019,22.793L22.019,36.955Z" style="fill:rgb(206,23,30);fill-rule:nonzero;"/>
            </g>
        </g>
    </g>
</svg>
