<?xml version="1.0" encoding="UTF-8" standalone="no"?>
<!DOCTYPE svg PUBLIC "-//W3C//DTD SVG 1.1//EN" "http://www.w3.org/Graphics/SVG/1.1/DTD/svg11.dtd">
<svg width="100%" height="100%" viewBox="0 0 1982 312" version="1.1" xmlns="http://www.w3.org/2000/svg" xmlns:xlink="http://www.w3.org/1999/xlink" xml:space="preserve" xmlns:serif="http://www.serif.com/" style="fill-rule:evenodd;clip-rule:evenodd;stroke-linejoin:round;stroke-miterlimit:2;">
    <g transform="matrix(1,0,0,1,-7746,-3346)">
        <g transform="matrix(5.55556,0,0,5.55556,6114.94,0)">
            <g transform="matrix(1,0,0,1,314.336,629.791)">
                <path d="M0,1.221C2.342,-7.58 -0.331,-16.804 -6.722,-21.692C-15.428,-16.181 -20.448,-5.817 -18.634,4.979C-18.036,8.548 -16.742,11.827 -14.92,14.703C-8.113,12.807 -2.128,9.219 0,1.221M11.751,26.622C26.119,24.209 35.808,10.605 33.393,-3.76C31.385,-15.715 21.637,-24.429 10.143,-25.632C7.822,-25.876 5.425,-25.81 3.008,-25.405C0.143,-24.925 -2.53,-23.993 -4.964,-22.702C7.701,-18.407 14.51,-11.878 14.981,-5.188C15.214,-1.057 13.294,1.93 10.77,4.366L28.678,3.115C29.185,3.08 29.343,3.67 28.73,3.845L-13.982,16.092C-9.635,22.081 -2.881,26.064 4.616,26.848C6.937,27.092 9.333,27.029 11.751,26.622M10.308,-27.204C24.374,-25.74 35.345,-13.854 35.35,0.598C35.355,16.044 22.838,28.569 7.393,28.575C-8.053,28.58 -20.579,16.063 -20.584,0.618C-20.589,-14.828 -8.073,-27.353 7.373,-27.359C8.363,-27.359 9.342,-27.304 10.308,-27.204" style="fill:white;fill-rule:nonzero;"/>
            </g>
            <g transform="matrix(1,0,0,1,295.703,626.029)">
                <path d="M0,8.742C0.598,12.311 1.892,15.59 3.714,18.465C10.521,16.57 16.506,12.981 18.634,4.984C20.976,-3.818 18.303,-13.041 11.912,-17.929C3.206,-12.419 -1.814,-2.054 0,8.742M52.027,0.003C54.442,14.368 44.753,27.972 30.385,30.384C27.967,30.792 25.571,30.855 23.25,30.611C15.753,29.827 8.999,25.843 4.652,19.855L47.364,7.608C47.977,7.432 47.819,6.842 47.312,6.877L29.404,8.128C31.928,5.693 33.847,2.706 33.615,-1.425C33.144,-8.115 26.334,-14.644 13.67,-18.94C16.104,-20.23 18.777,-21.163 21.642,-21.643C24.059,-22.047 26.456,-22.113 28.777,-21.87C40.271,-20.667 50.019,-11.952 52.027,0.003" style="fill:rgb(206,23,30);fill-rule:nonzero;"/>
            </g>
            <g transform="matrix(1,0,0,1,494.537,619.465)">
                <path d="M0,21.903L0,12.707L-9.219,12.707L-9.219,21.903L-14.281,21.903L-14.281,0L-9.219,0L-9.219,8.727L0,8.727L0,0L5.098,0L5.098,21.903L0,21.903Z" style="fill:rgb(35,31,32);fill-rule:nonzero;"/>
            </g>
            <g transform="matrix(1,0,0,1,385.469,641.658)">
                <path d="M0,-22.193L0,-8.481C0,-6.965 0.223,-5.654 0.663,-4.587C1.101,-3.529 1.735,-2.65 2.548,-1.974C3.369,-1.292 4.36,-0.788 5.491,-0.478C6.64,-0.161 7.937,0 9.346,0C10.755,0 12.04,-0.161 13.165,-0.477C14.272,-0.788 15.217,-1.289 15.974,-1.967C16.731,-2.643 17.325,-3.523 17.74,-4.582C18.156,-5.645 18.368,-6.957 18.368,-8.481L18.368,-22.193L13.632,-22.193L13.632,-8.626C13.632,-7.245 13.288,-6.129 12.612,-5.309C11.921,-4.475 10.822,-4.053 9.346,-4.053C7.896,-4.053 6.804,-4.474 6.102,-5.307C5.412,-6.124 5.062,-7.241 5.062,-8.626L5.062,-22.193L0,-22.193Z" style="fill:rgb(35,31,32);fill-rule:nonzero;"/>
            </g>
            <g transform="matrix(1,0,0,1,370.872,619.465)">
                <path d="M0,21.906L0,4.09L-5.951,4.09L-5.951,0L11.048,0L11.048,1.962C11.048,3.136 10.093,4.09 8.92,4.09L5.061,4.09L5.061,21.906L0,21.906Z" style="fill:rgb(35,31,32);fill-rule:nonzero;"/>
            </g>
            <g transform="matrix(1,0,0,1,0,302.53)">
                <rect x="452.214" y="316.933" width="5.062" height="21.904" style="fill:rgb(35,31,32);"/>
            </g>
            <g transform="matrix(1,0,0,1,435.356,629.675)">
                <path d="M0,1.479L0.172,1.696L6.637,10.028C7.46,11.089 8.702,11.698 10.044,11.698L14.075,11.698L4.812,-0.085L4.676,-0.258L4.812,-0.432L12.428,-10.219L7.16,-10.219L0.176,-0.777L0,-0.55L-0.001,-0.945L-0.001,-10.219L-5.063,-10.219L-5.063,11.685L-0.001,11.685L-0.001,1.869L0,1.479Z" style="fill:rgb(35,31,32);fill-rule:nonzero;"/>
            </g>
            <g transform="matrix(1,0,0,1,413.573,631.34)">
                <path d="M0,-1.851L2.951,-1.851C4.013,-1.851 4.823,-2.142 5.357,-2.716C5.885,-3.284 6.153,-4.022 6.153,-4.91C6.153,-5.818 5.891,-6.566 5.377,-7.134C4.855,-7.711 4.039,-8.003 2.951,-8.003L0,-8.003L0,-1.851ZM10.122,10.024C8.623,10.024 7.21,9.228 6.434,7.946L2.497,1.444L0,1.444L0,10.024L-5.058,10.024L-5.058,-11.875L3.961,-11.875C6.278,-11.875 8.092,-11.27 9.354,-10.078C10.612,-8.887 11.25,-7.257 11.25,-5.233C11.25,-4.205 10.976,-3.164 10.435,-2.137C9.903,-1.129 8.958,-0.304 7.627,0.315L7.334,0.452L13.479,10.024L10.122,10.024Z" style="fill:rgb(35,31,32);fill-rule:nonzero;"/>
            </g>
            <g transform="matrix(1,0,0,1,461.43,620.361)">
                <path d="M0,20.077L0,15.878C1.611,16.619 3.687,17.36 5.834,17.36C8.304,17.36 9.557,16.513 9.557,14.889C9.557,12.984 7.874,12.773 4.51,11.326C2.22,10.303 0.036,8.715 0.036,5.046C0.036,0.776 3.293,-1.235 7.803,-1.235C10.201,-1.235 12.241,-0.671 13.387,-0.247L13.387,3.845C12.241,3.317 10.201,2.681 8.161,2.681C5.942,2.681 4.904,3.493 4.904,4.904C4.904,6.386 6.157,6.845 8.411,7.692C11.311,9.138 14.675,9.774 14.675,14.713C14.675,18.983 11.275,21.312 6.729,21.312C3.937,21.312 1.718,20.818 0,20.077" style="fill:rgb(35,31,32);fill-rule:nonzero;"/>
            </g>
            <g transform="matrix(1,0,0,1,617.777,619.463)">
                <path d="M0,21.904L0,0L13.716,0L13.716,1.987C13.716,3.146 12.773,4.09 11.613,4.09L5.062,4.09L5.062,8.801L12.418,8.801L12.418,12.457L5.062,12.457L5.062,17.816L13.716,17.816L13.716,21.904L0,21.904Z" style="fill:rgb(35,31,32);fill-rule:nonzero;"/>
            </g>
            <g transform="matrix(1,0,0,1,567.735,619.461)">
                <path d="M0,21.903L0,0L2.46,0C3.895,0 5.061,1.167 5.061,2.601L5.061,17.959L13.14,17.959L13.14,21.903L0,21.903Z" style="fill:rgb(35,31,32);fill-rule:nonzero;"/>
            </g>
            <g transform="matrix(0,-1,-1,0,549.879,632.948)">
                <rect x="-8.414" y="8.414" width="21.889" height="5.061" style="fill:rgb(35,31,32);"/>
            </g>
            <g transform="matrix(1,0,0,1,551.166,631.338)">
                <path d="M0,-1.851L2.951,-1.851C4.013,-1.851 4.823,-2.142 5.357,-2.716C5.885,-3.284 6.152,-4.022 6.152,-4.91C6.152,-5.818 5.891,-6.566 5.377,-7.134C4.855,-7.711 4.039,-8.003 2.951,-8.003L0,-8.003L0,-1.851ZM10.122,10.024C8.623,10.024 7.21,9.228 6.434,7.946L2.497,1.444L0,1.444L0,10.024L-5.058,10.024L-5.058,-11.875L3.961,-11.875C6.278,-11.875 8.092,-11.27 9.354,-10.078C10.612,-8.887 11.25,-7.257 11.25,-5.233C11.25,-4.205 10.976,-3.164 10.435,-2.137C9.903,-1.129 8.958,-0.304 7.627,0.315L7.334,0.452L13.479,10.024L10.122,10.024Z" style="fill:rgb(35,31,32);fill-rule:nonzero;"/>
            </g>
            <g transform="matrix(1,0,0,1,519.007,627.441)">
                <path d="M0,5.944L1.987,0.408C2.43,-0.838 2.871,-2.152 3.165,-3.12L3.24,-3.12C3.497,-2.117 3.938,-0.872 4.38,0.408L6.295,5.944L0,5.944ZM6.254,-7.98L0.441,-7.98L-7.82,13.924L-4.172,13.924C-3.246,13.924 -2.43,13.333 -2.14,12.455L-1.291,9.885L7.592,9.885L8.892,13.924L14.375,13.924L6.254,-7.98Z" style="fill:rgb(35,31,32);fill-rule:nonzero;"/>
            </g>
            <g transform="matrix(1,0,0,1,635.559,620.361)">
                <path d="M0,20.077L0,15.878C1.611,16.619 3.687,17.36 5.834,17.36C8.304,17.36 9.556,16.513 9.556,14.889C9.556,12.984 7.874,12.773 4.51,11.326C2.219,10.303 0.036,8.715 0.036,5.046C0.036,0.776 3.293,-1.235 7.803,-1.235C10.201,-1.235 12.241,-0.671 13.386,-0.247L13.386,3.845C12.241,3.317 10.201,2.681 8.161,2.681C5.942,2.681 4.904,3.493 4.904,4.904C4.904,6.386 6.156,6.845 8.411,7.692C11.31,9.138 14.675,9.774 14.675,14.713C14.675,18.983 11.275,21.312 6.729,21.312C3.937,21.312 1.718,20.818 0,20.077" style="fill:rgb(35,31,32);fill-rule:nonzero;"/>
            </g>
            <g transform="matrix(1,0,0,1,593.828,641.367)">
                <path d="M0,-21.902L3.137,-21.902C4.626,-21.902 6.011,-21.133 6.798,-19.869L12.907,-10.055C13.597,-8.965 14.397,-7.524 14.87,-6.504L14.979,-6.504C14.906,-7.488 14.87,-8.86 14.87,-9.844L14.87,-21.902L19.305,-21.902L19.305,0L13.756,0L6.326,-11.848C5.635,-12.937 4.908,-14.238 4.399,-15.223L4.326,-15.223C4.363,-14.274 4.435,-13.148 4.435,-12.094L4.435,0L0,0L0,-21.902Z" style="fill:rgb(35,31,32);fill-rule:nonzero;"/>
            </g>
            <g transform="matrix(0,-1,-1,0,597.607,632.948)">
                <rect x="-8.413" y="8.414" width="21.889" height="5.062" style="fill:rgb(35,31,32);"/>
            </g>
        </g>
    </g>
</svg>
